<?xml version="1.0" encoding="utf-8"?>
<!-- Generator: Adobe Illustrator 27.5.0, SVG Export Plug-In . SVG Version: 6.00 Build 0)  -->
<svg version="1.1" id="Layer_1" xmlns="http://www.w3.org/2000/svg" xmlns:xlink="http://www.w3.org/1999/xlink" x="0px" y="0px"
	 viewBox="0 0 2085.8 1080" style="enable-background:new 0 0 2085.8 1080;" xml:space="preserve">
<style type="text/css">
	.st0{fill:#FFFFFF;}
</style>
<g>
	<g>
		<path class="st0" d="M1637,960.9c-1.5,0.1-2.6,0.2-3.6,0.2c-1.8-0.1-3.7-0.3-5.5-0.3c-17.2,0-34.4,0-51.6,0c-2,0-4.1,0.1-6.1,0.2
			c-1.8,0.1-3-0.5-3.9-2.3c-1.4-2.8-3.2-5.5-4.8-8.2c-3.5-6.1-6.7-12.4-10.5-18.3c-3.3-5.1-5.9-10.5-9-15.7
			c-1.2-2.1-2.2-4.3-3.3-6.4c-1.2-2.2-2.6-4.2-3.8-6.4c-3.3-5.6-6.6-11.3-9.9-16.9c-0.1-0.2-0.2-0.3-0.3-0.5
			c-3.3-7.6-8.2-14.4-12.1-21.8c-0.6-1.1-1.2-2.3-1.8-3.4c-0.8-1.5-1.2-1.7-2.9-1.5c-3.2,0.5-6.4,1-9.7,1.4
			c-3.2,0.4-6.5,0.8-9.7,0.9c-4.8,0.3-9.6,0.4-14.4,0.5c-0.7,0-1.4,0.1-2.1,0.2c0,32.7,0,65.2,0,97.8c-0.7,0.1-1.3,0.1-1.8,0.1
			c-21,0-42,0-62.9,0c-1.5,0-3.1,0.2-4.6,0.3c-0.7,0-1.4,0-2,0c-0.3-1.4,0.2-2.3,0.9-3.1c6.2-8,12.4-15.9,18.7-23.9
			c1.5-1.9,2.2-3.9,2.2-6.3c0-54.3-0.1-108.5-0.1-162.8c0-6.2,0.1-12.4,0.1-18.6c0-1.3-0.3-2.5-1.1-3.5c-4.3-5.5-8.7-11-13-16.5
			c-0.5-0.6-1-1.3-1.4-2c-1.3-2.1-2.8-4.1-4.7-5.8c-1.1-1-1.9-2.2-2.4-3.9c0.9-0.1,1.7-0.3,2.6-0.3c5,0,10,0,15,0
			c30.4-0.1,60.9-0.1,91.3-0.1c5.9,0,11.9,0.2,17.8,0.7c4.1,0.3,8.2,1.2,12.3,1.9c5.5,0.9,11.1,1.9,16.6,2.8
			c4.4,0.7,8.4,2.5,12.4,4.4c1.3,0.6,2.6,1.1,3.9,1.6c2.8,1,5.5,2.4,7.9,4.2c2.4,1.7,4.8,3.3,7.2,5.1c3.3,2.6,6,5.7,8.3,9.1
			c1.3,1.9,2.4,3.9,3.6,5.8c0.2,0.3,0.4,0.6,0.5,1c1,4.2,3.2,8.1,3.8,12.5c0.6,4.3,0.9,8.7,0.9,13.1c0,6-0.4,12-2,17.9
			c-0.8,2.7-1.4,5.6-2.7,8.1c-2.3,4.4-4.5,8.9-7.8,12.8c-4.4,5.4-9.2,10.3-14.4,15c-1.8,1.6-3.8,3-5.8,4.4c-3.3,2.2-6.6,4.4-9.9,6.5
			c-2,1.3-4,2.5-6,3.7c-1.7,1-1.8,1.5-0.8,3.2c0.7,1.3,1.5,2.5,2.3,3.7c2.2,3.6,4.5,7.2,6.7,10.9c2.4,4,4.8,7.9,7.2,11.9
			c4.2,7.2,8.4,14.4,12.6,21.5c3.1,5.2,6.2,10.3,9.3,15.5c1.1,1.8,2.1,3.6,3.1,5.5c1.7,3,3.3,6.1,5.1,9.2c1.4,2.5,3.2,4.7,5.4,6.6
			c4,3.5,7.8,7.3,11.8,10.9c5.5,4.9,11.1,9.8,16.6,14.6C1635.3,959,1635.9,959.8,1637,960.9z M1471.9,735.2c0,1.4-0.1,2.5-0.1,3.6
			c0,11.2,0,22.4,0,33.6c0,22.2-0.1,44.5-0.1,66.7c0,0.8,0,1.7,0.1,2.5c0.1,1.4,0.4,1.6,1.8,1.7c1.9,0,3.7,0,5.6-0.1
			c1.8-0.1,3.6-0.2,5.3-0.4c3.2-0.5,6.4-1.1,9.6-1.7c1-0.2,2-0.4,3-0.7c1.5-0.4,3.1-0.9,4.6-1.3c4.3-1.1,8.6-2.1,12.6-4
			c1.9-1,3.8-2.1,5.8-3c4-1.8,7.5-4.2,11-6.9c3.7-2.8,7.3-5.7,10.3-9.3c2.7-3.2,4.6-6.8,6.7-10.4c0.9-1.6,2.1-3.1,2.8-4.8
			c1-2.4,1.8-4.9,2.4-7.4c1.7-7.5,2.4-15,1.3-22.6c-0.8-5.7-2.7-10.9-6.6-15.3c-1-1.1-1.7-2.4-2.6-3.5c-0.6-0.8-1.2-1.8-2-2.3
			c-2-1.1-3.5-2.7-5.1-4.3c-0.6-0.6-1.3-1.2-2.1-1.6c-2.2-1.1-4.4-2.2-6.7-3.2c-4.1-1.7-8.3-3.2-12.7-4.2c-2.6-0.6-5.1-1.1-7.7-1.1
			c-10.4-0.1-20.7-0.2-31.1-0.2C1475.9,735,1474,735.1,1471.9,735.2z"/>
		<path class="st0" d="M1119.4,830c0-1.8,0.1-3.6,0-5.3c-0.3-5.6,0.5-11.1,1.8-16.6c1.2-5.4,2.4-10.9,3.6-16.3
			c0.8-3.5,2.2-6.8,3.6-10c1.4-3,2.8-6,4.1-9c1.5-3.5,3.4-6.8,5.5-10c0.4-0.5,0.8-1,1-1.6c1.5-3,3.7-5.6,5.9-8.2
			c2.8-3.5,6.1-6.7,9.3-9.9c5.2-5.3,11.1-9.8,17.1-14c0.8-0.6,1.7-1.1,2.6-1.5c4.7-2.4,9.3-4.8,14-7c1.8-0.8,3.7-1.2,5.6-1.8
			c0.9-0.3,1.9-0.5,2.8-0.8c4.8-1.7,9.5-3.7,14.6-4.6c2.4-0.5,4.9-0.7,7.4-1c1.7-0.2,3.4-0.6,5.1-0.8c2-0.3,4.1-0.5,6.1-0.6
			c6.6-0.5,13.3-0.7,19.9-0.1c3.9,0.3,7.9,0.8,11.8,1.3c2.1,0.2,4.2,0.5,6.3,0.7c3.5,0.3,6.8,1.1,10.1,2.3c2.9,1.1,5.7,2.1,8.6,3.2
			c0.6,0.2,1.2,0.5,1.8,0.6c4.3,0.5,8,2.6,11.7,4.6c1.5,0.8,3.1,1.5,4.6,2.3c1.8,1,3.7,2,5.4,3.2c3.3,2.3,6.7,4.5,9.8,7
			c3.8,3.1,7.8,6.1,11.2,9.7c3.7,3.9,6.9,8.2,10.4,12.2c0.9,1,1.7,2.1,2.4,3.2c3.2,5.1,6.7,10,9.1,15.6c2,4.6,4.1,9.1,6,13.8
			c1,2.5,1.6,5.1,2.3,7.6c1.5,5.8,3.2,11.5,4.4,17.3c0.9,4.7,1.3,9.5,1.7,14.3c0.4,4.4,0.8,8.7,0.7,13.1c-0.1,6.4-0.7,12.8-1.1,19.2
			c-0.4,6.5-1.9,12.8-3.9,18.9c-1.3,4-2.3,8-3.7,12c-0.9,2.6-2.2,5.1-3.5,7.6c-1.9,3.7-3.9,7.4-6.1,11c-4,6.6-8.4,12.8-14.1,18.2
			c-4.7,4.5-9.5,8.9-14.8,12.6c-4.6,3.2-9.3,6.5-14.6,8.7c-3,1.2-5.8,3-8.8,4.2c-4.2,1.6-8.5,2.8-12.7,4.2c-0.7,0.2-1.5,0.4-2.2,0.6
			c-7.1,2.7-14.6,3.4-22.2,4.1c-6.6,0.6-13.1,0.7-19.7,0.6c-8.9-0.1-17.6-1-26.2-3.1c-3.4-0.8-6.6-2.3-9.9-3.5
			c-0.7-0.2-1.3-0.5-2-0.5c-4-0.3-7.6-1.5-10.9-3.7c-2-1.3-4.1-2.3-6.3-3.2c-2.9-1.2-5.5-2.7-7.9-4.6c-0.8-0.6-1.5-1.2-2.4-1.6
			c-3-1.4-5.5-3.6-8.1-5.7c-4.9-3.9-9.5-8.1-13.7-12.8c-1.9-2.1-3.9-4.2-5.6-6.5c-3.6-5.1-7.3-10.1-10.2-15.6
			c-2-3.8-4.2-7.4-5.7-11.4c-1.7-4.6-4-8.9-5.5-13.6c-1.1-3.5-1.8-7.1-2.5-10.7c-1.1-5.7-2-11.4-2.9-17c-0.9-5.2-1.4-10.4-1.2-15.7
			C1119.4,833.6,1119.4,831.8,1119.4,830C1119.4,830,1119.4,830,1119.4,830z M1170.5,810.9c0,6.6,0.3,13.2,1.2,19.7
			c0.5,3.8,0.9,7.6,1.9,11.2c1.7,6.5,2.4,13.2,4.4,19.6c0.6,2,1.2,4.1,1.9,6.1c1.2,3.4,2.6,6.7,3.9,10.1c1.2,3.1,2.3,6.2,3.8,9.1
			c3.1,5.8,5.9,11.8,9.5,17.3c2,3.1,3.9,6.3,6.2,9.2c2.6,3.4,5.5,6.7,8.5,9.8c3.1,3.2,6.3,6.3,9.5,9.3c2.2,2,4.6,3.7,6.9,5.5
			c3.2,2.5,7,3.9,10.6,5.6c1.7,0.8,3.4,1.3,5.2,2c0.6,0.2,1.2,0.5,1.8,0.7c1.1,0.4,2.1,0.8,3.2,1c6,0.8,12.1,0.7,18.2,0.3
			c1.9-0.1,3.9,0,5.5-1.4c0.2-0.2,0.6-0.2,0.9-0.3c11-3.1,19.6-9.5,26.2-18.7c1.1-1.6,2.1-3.4,3.2-5c2.7-3.7,4.5-7.8,5.9-12.1
			c0.4-1.4,1-2.7,1.5-4.1c1.1-3.1,2.3-6.2,3.2-9.3c0.5-1.6,0.5-3.4,0.7-5.1c0.6-5.8,1.3-11.6,1.7-17.4c0.8-13.5-0.4-26.8-2-40.2
			c-0.2-1.5-0.4-3-0.7-4.5c-0.3-1.5-0.9-2.9-1.3-4.3c-1.5-5.6-3-11.3-4.6-16.9c-0.8-2.7-1.8-5.4-2.8-8.1c-0.9-2.4-2.1-4.7-3-7.2
			c-2.4-6.4-5.6-12.4-8.9-18.3c-4-7.1-8.9-13.6-14.3-19.7c-4.7-5.2-10-9.8-15.5-14.2c-5.4-4.2-11.1-7.6-17.5-10.2
			c-0.3-0.1-0.6-0.3-0.9-0.4c-0.9-0.4-1.8-0.9-2.8-1.1c-4.8-1.1-9.7-1.5-14.7-1.4c-6,0.1-11.9,0.4-17.3,3.2
			c-1.6,0.8-3.3,1.5-4.8,2.3c-7.6,4.1-13.5,10.1-18.9,16.7c-0.4,0.4-0.6,1-0.9,1.5c-1.6,3-3.1,6-4.8,8.8c-1.7,2.8-2.7,5.9-3.5,9
			c-1.2,4.6-2.5,9.2-3.7,13.8c-0.3,1-0.6,2.1-0.7,3.1C1171.1,794.3,1170.4,802.6,1170.5,810.9z"/>
		<path class="st0" d="M818.8,786.3c-0.2-0.4-0.5-0.7-0.7-1.1c-2.9-4.9-6-9.7-9.7-14.1c-2.9-3.4-5.9-6.6-8.9-10
			c-2.3-2.5-4.6-5-7.3-6.9c-0.6-0.4-1.1-1.1-1.7-1.6c-1.2-1-2.5-2-3.7-3c-0.7-0.5-1.4-0.9-2-1.4c-3.8-3.2-8.1-5.8-12.5-8
			c-2.3-1.2-4.7-2.3-7-3.5c-4.2-2.1-8.8-3-13.4-3.9c-5.3-1.1-10.7-2.1-16.2-1.8c-6.6,0.4-13,1.3-19.1,3.9c-5.1,2.2-9,6.1-12,10.9
			c-2.6,4.3-2.9,9-2.8,13.7c0,0.6,0.1,1.1,0.1,1.7c-0.1,4.7,1.4,8.9,3.7,13c2.8,4.9,5.9,9.6,10,13.4c3.5,3.2,7.3,6.2,11.2,8.9
			c5,3.6,10.2,6.9,15.5,10.2c3,1.9,6.2,3.5,9.4,5.2c4.4,2.3,8.8,4.6,13.2,6.9c4.6,2.4,9.3,4.8,13.8,7.5c3.4,2,6.9,3.7,10.2,6
			c7.9,5.5,15.6,11.2,22.5,18c4.7,4.6,8.5,9.6,11.9,15.1c1.1,1.8,1.8,3.8,2.6,5.7c0.8,1.9,1.5,3.8,2,5.7c0.7,2.9,1.2,5.8,1.6,8.8
			c0.8,6.8,0.5,13.6-1.2,20.2c-1.6,6.2-3.6,12.2-7,17.8c-5.3,8.6-11.8,16-20,22c-2.7,2-5.5,3.9-8.6,5.3c-4,1.7-7.8,3.9-11.8,5.5
			c-3.5,1.4-7.2,2.2-10.7,3.5c-5.5,2.1-11.2,3.2-17,3.7c-6,0.5-12.1,0.7-18.2,0.9c-5.5,0.2-11-0.5-16.4-1
			c-5.3-0.5-10.6-1.2-15.7-2.4c-3.8-1-7.6-2.2-11.4-3.3c-0.6-0.2-1.2-0.4-1.9-0.4c-5.1-0.2-9.7-1.7-14.4-3.7
			c-3.4-1.5-7.1-2.5-10.7-3.6c-3.7-1.1-7.1-2.8-10.6-4.5c-1-0.5-1.9-1.1-2.9-1.4c-5.1-1.7-9.6-4.4-14.2-7.1c-0.8-0.5-1.6-1-2.5-1.4
			c-2.7-1.2-4.7-3.2-6.8-5.2c-0.5-0.5-0.8-1.2-1.2-2c3.3-2.3,4.2-6,6.4-8.9c1.6-2.1,2.7-4.4,4.2-6.6c3.4-5,6.8-9.9,10.2-14.9
			c1.5-2.3,3-4.6,4.4-6.9c2.9-4.7,5.9-9.3,8.8-14c0.7-1.1,1.1-2.3,1.7-3.5c1,0.9,1.2,2,1.4,3c1.1,5.3,2.1,10.7,3.3,16
			c0.5,2.4,1.4,4.8,2.4,7c1.5,3.4,3.2,6.8,5,10.1c2.5,4.6,6,8.5,9.6,12.3c2.9,3,6,5.8,9.4,8.1c2.5,1.7,5.1,3.5,7.8,4.8
			c4,2,8.1,3.9,12.3,5.4c3,1,6.2,1.4,9.4,1.9c4.7,0.8,9.3,1.7,14.1,1.7c1.3,0,2.7,0.1,4,0.1c1.7,0,3.3-0.1,5-0.3
			c12-1.4,22.4-5.6,29.6-15.8c2.6-3.7,3.7-7.9,4.4-12.2c0.7-4.4,0.4-8.8-0.6-13c-1.3-6-3.7-11.5-8.1-16.1
			c-4.9-5.1-10.1-9.7-15.9-13.7c-7.7-5.2-15.4-10.4-23.8-14.5c-0.8-0.4-1.6-0.9-2.3-1.4c-2.5-1.6-5-3-7.9-3.9
			c-2.8-0.9-5.3-2.2-7.7-3.8c-1.4-0.9-2.9-1.7-4.3-2.5c-1.9-1.1-3.8-2.1-5.7-3.2c-8.1-4.8-16.1-9.8-23.7-15.4
			c-6.1-4.5-11.7-9.7-16.7-15.4c-4.9-5.6-8.6-11.9-11.3-18.9c-2.9-7.8-3.4-15.7-2.6-23.8c0.5-4.4,2.1-8.6,3.7-12.7
			c2.6-6.5,6.7-12.1,11.3-17.3c3-3.4,6.4-6.2,10.1-8.7c0.6-0.4,1.2-0.9,1.9-1.3c1.6-1.1,3-2.3,4.7-3.3c3.7-2.1,7.4-4,11.1-6
			c1-0.5,2-0.9,3-1.3c5-1.7,10-3.4,15.1-5c4.5-1.4,9.1-2.1,13.7-2.5c2-0.1,3.9-0.7,5.8-1c2.8-0.3,5.6-0.6,8.4-0.6
			c9.2-0.2,18.3,0,27.4,0.7c3.4,0.3,6.9,0.8,10.3,1.1c4.7,0.5,9.4,0.9,14.1,1.5c2.2,0.3,4.4,0.8,6.6,1.3c5.9,1.3,11.7,3,17.8,3.8
			c1.2,0.2,2.4,0.2,3.6,0.3c1.4,0.1,1.7,0.4,1.7,1.8c0,1.7,0,3.4,0,5.1c0,18.4,0,36.9,0,55.3c0,0.8,0.1,1.6,0.1,2.5
			c0,0.7-0.1,1.5-0.1,2.2C819.1,786.3,818.9,786.3,818.8,786.3z"/>
		<path class="st0" d="M864.1,786.4c-0.1-1.1-0.2-2.1-0.2-3.2c0.1-8.6,0.3-17.2,0.3-25.9c0-12.2,0-24.3-0.1-36.5
			c0-1.4-0.2-2.8-0.2-4.2c0-0.7,0.1-1.5,0.2-2.3c0.9-0.1,1.6-0.2,2.4-0.2c10.6,0,21.1-0.1,31.7-0.1c30.4,0,60.9,0,91.3,0
			c32.5,0,65,0,97.5,0c0.1,0,0.3,0,0.4,0c2.8,0.1,3,0.3,2.9,3.1c-0.1,2.3-0.1,4.6-0.1,6.8c0,19.7,0,39.4,0,59.1c0,1.3,0,2.5-1,3.5
			c-1.7-2.3-3.4-4.5-5.1-6.7c-0.9-1.1-1.9-2.2-2.9-3.3c-0.6-0.7-1.3-1.3-1.8-2c-5.6-7.8-12.3-14.6-18.4-21.9
			c-4.6-5.6-9.3-11.1-14-16.6c-0.6-0.7-1.2-1-2.1-1c-1,0-2,0-3.1,0c-12.3,0-24.7,0-37,0c-1,0-2,0.1-3.2,0.2c-0.1,1-0.2,1.8-0.2,2.7
			c0,20.2,0,40.4,0,60.7c0,40,0,80,0,120c0,3.7,0,7.4-0.1,11c0,1.6,0.4,2.8,1.5,4c4.3,4.5,7.8,9.7,11.7,14.5c2.2,2.7,4.4,5.3,6.5,8
			c1,1.3,2.3,2.6,2.5,4.6c-0.5,0.1-1,0.3-1.4,0.2c-7.2-0.1-14.4-0.2-21.7-0.3c-21,0-42.1,0-63.1,0c-2.1,0-4.2,0.3-6.3,0.4
			c-0.4,0-0.7-0.1-1.1-0.1c-0.2-1.6,0.5-2.8,1.4-3.9c3.2-4,6.5-8,9.7-12.1c3.2-4,6.3-8,9.4-12c0.9-1.2,1.2-2.4,1.2-3.9
			c0-20.2,0-40.3,0-60.5c0-43.7,0-87.5,0-131.2c0-0.3,0-0.6,0-1c-0.1-1.3-0.2-1.4-1.5-1.5c-0.4,0-0.9-0.1-1.3-0.1
			c-12.9,0-25.8,0.1-38.8,0.1c-0.5,0-1,0-1.5,0.1c-0.7,0.1-1.2,0.3-1.7,1c-0.9,1.4-2.1,2.7-3.1,4.1c-1.4,1.8-2.9,3.6-4.4,5.3
			c-2.2,2.6-4.6,5.1-6.8,7.8c-3.7,4.4-7.3,9-11,13.4c-4.3,5.1-8.7,10.2-13,15.3c-0.9,1-1.7,2.1-2.6,3.1c-0.4,0.5-0.8,1.1-1.3,1.6
			C864.5,786.6,864.3,786.5,864.1,786.4z"/>
		<path class="st0" d="M1820.4,714.2c20.4,0.3,40.4-0.7,60.6,0.2c-0.3,1.6-1,2.6-1.8,3.5c-2.9,3.5-5.8,7.1-8.7,10.6
			c0,0-0.1,0.1-0.1,0.1c-4.5,7-10.6,12.9-14.8,20c-0.7,1.1-1.3,2.3-2,3.5c-0.3,0.6-0.6,1.1-0.9,1.7c-2.7,4.1-5.5,8.2-8.2,12.4
			c-1.9,2.9-3.5,5.9-5.4,8.8c-1.8,2.9-3.7,5.8-5.6,8.6c-2.3,3.6-4.6,7.3-7,10.9c-2.2,3.5-4.5,6.9-6.7,10.4c-2.1,3.3-4,6.8-6.1,10.1
			c-2.1,3.4-4.4,6.7-6.5,10.1c-2.5,4-5,8.1-7.5,12.2c-1.7,2.8-3.6,5.5-5.4,8.3c-0.7,1.2-1.4,2.4-2.1,3.6c-0.9,1.5-1.8,2.9-2.8,4.3
			c-0.6,0.9-1.4,1.8-2.1,2.7c-0.9,1.1-1.2,2.3-1.2,3.7c0.1,21.8,0.1,43.6,0.1,65.4c0,1.4,0,2.8-0.1,4.2c-0.1,1.6,0.3,2.9,1.5,3.9
			c2.1,1.9,3.6,4.3,5.2,6.5c1.8,2.5,3.8,4.7,5.7,7.1c2.9,3.7,5.8,7.4,8.6,11.2c0.5,0.6,0.8,1.4,1.4,2.4c-1,0.1-1.8,0.3-2.6,0.3
			c-1.9,0-3.7-0.2-5.5-0.2c-26.7,0-53.4,0-80,0c-1.3,0-2.5,0.2-3.8,0.3c-0.7,0.1-1.5,0.1-2.3,0.1c-0.1-1.5,0.5-2.6,1.2-3.6
			c2.6-3.4,5.4-6.8,8-10.2c3.7-4.7,7.3-9.4,11-14.2c1-1.3,1.5-2.8,1.6-4.4c0.1-2.3,0.3-4.6,0.3-6.8c0-17.1-0.1-34.1-0.1-51.2
			c0-2.7-0.1-5.3-0.2-8c-0.1-1.5-0.7-2.8-1.7-4c-0.4-0.4-0.7-0.9-1-1.4c-2.4-4-4.9-8-7.3-12c-4.5-7.4-9-14.7-13.6-22
			c-2.8-4.4-5.7-8.7-8.5-13.1c-2.2-3.5-4.3-7.2-6.5-10.8c-4.9-7.8-10-15.6-14.9-23.5c-2.1-3.4-4.1-6.9-6.2-10.3
			c-0.2-0.4-0.4-0.8-0.7-1.1c-4.2-6.4-8.3-12.9-12.6-19.3c-2.7-3.9-5.7-7.5-8.6-11.2c-3.6-4.7-7.3-9.3-10.9-14c-0.8-1-1.8-2-2.6-3
			c-0.6-0.7-1.2-1.5-2-2.5c1.2-0.1,2-0.3,2.9-0.3c4.5-0.1,9.1-0.2,13.6-0.2c23.2-0.1,46.3-0.1,69.5-0.1c2,0,4,0.2,5.9,0.3
			c0.6,0,1.1,0.2,2,0.4c-0.7,1.2-1.3,2.3-2,3.2c-3.5,4.5-7,9-10.6,13.5c-0.9,1.1-1.8,2.1-2.8,3.1c-2.4,2.6-2.6,4.5-0.5,7.5
			c1.7,2.5,3.4,4.9,5,7.4c5.3,8.4,10.6,16.9,15.9,25.3c3.6,5.7,7.3,11.4,10.9,17.2c3.5,5.7,6.9,11.4,10.4,17.1
			c3.1,5,6.4,9.8,9.5,14.7c1,1.5,1.8,3.2,2.7,4.8c0.6,1,1.1,2,1.9,2.8c1.2,1.3,2.3,1.1,3.3-0.3c0-0.1,0.1-0.1,0.1-0.2
			c2-3.2,4-6.3,6-9.5c3.7-6,7.4-12.1,11.2-18.2c4-6.5,8.2-12.9,12.3-19.3c2.6-4.1,5.1-8.3,7.8-12.4c2.8-4.2,5.8-8.4,8.7-12.5
			c0.2-0.3,0.5-0.6,0.6-1c2.7-6,6.9-11.1,10.1-16.8c0.5-0.8,1-1.6,1.4-2.5c0.6-1.2,0.4-1.9-0.5-2.9c-0.6-0.6-1-1.3-1.5-2
			c-1.7-2.6-3.4-5.2-5.1-7.8c-2.2-3.4-4.5-6.8-6.8-10.1C1820.9,715.7,1820.8,715.2,1820.4,714.2z"/>
		<path class="st0" d="M502.7,714.5c1.4-0.1,2.4-0.3,3.4-0.3c9.7,0,19.3,0,29,0c18.3,0,36.6,0,54.9,0c2.4,0,4.7,0.2,7.1,0.4
			c0.3,0,0.6,0.2,1,0.3c-2.8,3.7-5.6,7.2-8.3,10.8c-3.7,4.7-7.5,9.3-11.2,14c-0.3,0.3-0.5,0.7-0.8,1c-2,1.9-2.4,4.1-2.3,6.8
			c0.3,4.4,0.3,8.9,0.3,13.3c0,54,0,108,0,162c0,1.7-0.2,3.4-0.3,5.1c-0.1,2.5,0.5,4.7,2.2,6.7c3.9,4.6,7.6,9.3,11.3,13.9
			c2.7,3.4,5.4,6.9,8.1,10.4c0.5,0.6,0.8,1.3,0.4,2.3c-10.4-0.8-20.9-0.3-31.3-0.4c-10.4-0.1-20.9,0-31.3,0
			c-10.5,0-20.9-0.2-31.5,0.4c0.2-1.6,1-2.6,1.9-3.7c4.9-6.3,9.8-12.5,14.7-18.8c1.1-1.4,2-2.8,3.2-4.1c1.7-2,2.3-4.2,2.3-6.8
			c-0.1-31-0.1-62-0.1-93c0-28.7,0-57.3,0-86c0-1.7-0.1-3.4-0.4-5.1c-0.1-0.7-0.5-1.5-0.9-2c-3.1-4-6-8.1-9.4-11.7
			c-3.8-4.1-6.7-8.8-10.3-13C503.7,716.3,503.3,715.6,502.7,714.5z"/>
		<path class="st0" d="M205.2,961c0.6-1.1,0.9-2,1.4-2.7c3.7-4.9,7.4-9.9,11.1-14.8c1.8-2.3,3.6-4.6,5.4-6.9
			c0.9-1.1,1.8-2.3,2.8-3.4c1.1-1.1,1.6-2.3,1.5-3.7c0-1.9,0.1-3.8,0.1-5.7c0-57,0-114.1,0-171.1c0-2.2,0-4.4,0.1-6.7
			c0-1.6-0.5-2.9-1.6-4.1c-1.9-2.2-3.6-4.6-5.4-6.9c-4.7-6-9.4-12-14.2-18c-0.5-0.7-1-1.5-1.6-2.5c1.1-0.1,1.9-0.3,2.7-0.3
			c21.8-0.1,43.6-0.2,65.4-0.2c1.1,0,2.3,0.2,3.4,0.3c0.7,0.1,1.1,0.5,1.1,1.3c0,6.3,0,12.7,0,19c0,20.2,0,40.3,0,60.5
			c0,3.4-0.1,6.7-0.2,10.1c-0.1,1.5,0.3,2.8,1.1,3.9c1.1,1.5,2.2,3.1,3.4,4.6c3.1,3.9,6.3,7.8,9.4,11.8c1.6,2,3,4.1,4.5,6.2
			c1.1,1.4,2.2,2.8,3.4,4.1c1,1.1,1.1,1.7,0.4,2.9c-0.5,0.8-1.1,1.5-1.7,2.3c-2,2.6-3.9,5.2-5.9,7.7c-2.7,3.4-5.4,6.8-8,10.2
			c-1.8,2.3-3.6,4.6-5.4,6.9c-1,1.3-1.3,2.8-1.2,4.5c0.7,20.3,0.3,40.6,0.4,60.8c0,9.1,0,18.3,0,27.4c0,1.6-0.2,1.9-1.8,2.1
			c-1.3,0.2-2.7,0.2-4,0.2c-20.1,0-40.3,0-60.4,0c-1.4,0-2.8,0.2-4.2,0.3C206.6,961,206.1,961,205.2,961z"/>
		<path class="st0" d="M376.3,961.2c0-0.7-0.1-1.2-0.1-1.8c0-3.5,0-7,0-10.5c0-22.9,0-45.9,0-68.8c0-3.5,0.1-7,0.2-10.5
			c0.1-1.7-0.4-3-1.5-4.3c-4.6-5.8-9.1-11.6-13.6-17.4c-2.2-2.8-4.4-5.5-6.5-8.2c-0.3-0.4-0.7-0.8-1-1.2c-0.6-0.8-0.5-1.4,0.1-2.2
			c5.1-6.4,10.2-12.8,15.3-19.2c1.8-2.3,3.6-4.6,5.4-6.9c1.3-1.6,2-3.3,1.7-5.4c-0.3-2.1-0.2-4.2-0.2-6.3c0-22.6,0-45.1,0-67.7
			c0-5.3-0.1-10.5-0.2-15.8c0-0.2,0.1-0.3,0.2-0.7c2.3-0.1,4.5-0.3,6.8-0.3c14.3,0,28.7,0,43,0c4.6,0,9.2,0,13.8,0
			c2.2,0,4.5,0.2,6.7,0.3c0.6,0,1.1,0.2,1.9,0.4c-0.4,0.8-0.7,1.5-1.1,2.1c-2.5,3.1-5.1,6.2-7.4,9.5c-2.5,3.5-5.5,6.7-8.2,10
			c-1.5,1.9-3.1,3.7-4.7,5.5c-1.2,1.4-1.3,3-1.4,4.6c0,3.7,0,7.5,0,11.2c0,54.1,0,108.1,0,162.2c0,3.2,0.2,6.3,0.3,9.5
			c0,1.6,0.7,2.9,1.7,4.1c1.4,1.7,2.7,3.4,4.1,5c1.5,1.8,3,3.6,4.4,5.5c2.7,3.5,5.4,7.1,8,10.6c0.8,1,1.6,2,2.4,3
			c0.6,0.9,1.1,1.8,1.7,2.8c-1.1,0.8-2.2,0.6-3.3,0.5c-2.9-0.1-5.7-0.3-8.6-0.3c-18.1,0-36.2,0-54.3,0c-1.3,0-2.5,0.2-3.8,0.3
			C377.7,961.1,377.1,961.1,376.3,961.2z"/>
	</g>
	<g>
		<path class="st0" d="M798,615.1c1.1-2.2,1.8-4,2.9-5.5c7.4-10,14.9-20,22.5-29.9c3.6-4.7,7.2-9.3,10.9-14c1.8-2.3,3.6-4.7,5.7-6.8
			c2.2-2.2,3.2-4.6,3.1-7.6c0-3.8,0.2-7.7,0.2-11.5c0-115.4,0-230.8,0-346.2c0-4.5,0-9,0.1-13.5c0.1-3.2-1-5.8-3.2-8.3
			c-3.9-4.4-7.4-9.2-11-13.9c-9.5-12.1-19.1-24.2-28.6-36.4c-1.1-1.4-2-3-3.3-5c2.2-0.2,3.8-0.6,5.4-0.6
			c44.1-0.2,88.3-0.3,132.4-0.4c2.3,0,4.6,0.4,6.9,0.7c1.5,0.2,2.2,1,2.2,2.6c0,12.8,0.1,25.6,0.1,38.4c0,40.8,0,81.6,0,122.3
			c0,6.8-0.2,13.6-0.5,20.4c-0.1,2.9,0.5,5.6,2.3,8c2.3,3.1,4.5,6.3,6.9,9.3c6.3,8,12.8,15.8,19,23.8c3.2,4,6,8.4,9.1,12.5
			c2.2,2.9,4.5,5.6,6.9,8.3c1.9,2.2,2.3,3.4,0.8,5.8c-1,1.6-2.3,3.1-3.5,4.6c-4,5.2-7.9,10.5-11.9,15.6
			c-5.4,6.9-10.9,13.7-16.3,20.6c-3.7,4.6-7.3,9.3-10.9,14c-2,2.7-2.6,5.8-2.4,9.1c1.5,41,0.6,82.1,0.8,123.1
			c0.1,18.5-0.1,36.9-0.1,55.4c0,3.2-0.5,3.9-3.6,4.3c-2.7,0.3-5.4,0.3-8.1,0.3c-40.8,0-81.5,0-122.3,0c-2.8,0-5.7,0.4-8.5,0.5
			C800.7,615.2,799.7,615.1,798,615.1z"/>
		<path class="st0" d="M1144.2,615.5c-0.1-1.4-0.2-2.5-0.2-3.6c0-7.1,0-14.1,0-21.2c0-46.4,0-92.8,0-139.3c0-7,0.3-14.1,0.5-21.1
			c0.1-3.4-0.9-6.1-3.1-8.8c-9.3-11.6-18.4-23.5-27.6-35.2c-4.4-5.6-8.8-11.1-13.2-16.6c-0.6-0.8-1.3-1.6-1.9-2.4
			c-1.1-1.5-1-2.9,0.2-4.5c10.4-12.9,20.7-25.9,31.1-38.9c3.7-4.6,7.3-9.3,11-13.9c2.5-3.2,4.1-6.6,3.5-11
			c-0.5-4.2-0.5-8.4-0.5-12.7c0-45.7,0-91.3,0-137c0-10.6-0.2-21.3-0.3-31.9c0-0.4,0.2-0.7,0.5-1.3c4.6-0.2,9.2-0.5,13.8-0.5
			c29-0.1,58-0.1,87-0.1c9.3,0,18.6-0.1,28,0c4.5,0,9,0.3,13.6,0.6c1.1,0.1,2.2,0.5,3.9,0.8c-0.9,1.7-1.4,3.1-2.3,4.3
			c-5.1,6.3-10.2,12.5-14.9,19.2c-5,7.1-11.1,13.5-16.7,20.3c-3.1,3.8-6.2,7.5-9.5,11.2c-2.4,2.7-2.7,6-2.7,9.4
			c-0.1,7.6-0.1,15.1-0.1,22.7c0,109.4,0,218.8,0.1,328.2c0,6.4,0.4,12.8,0.6,19.2c0.1,3.2,1.4,5.9,3.4,8.4
			c2.8,3.4,5.5,6.8,8.2,10.2c3,3.7,6,7.4,8.9,11.1c5.5,7.1,10.8,14.4,16.3,21.5c1.6,2,3.3,4,4.8,6.1c1.3,1.8,2.3,3.7,3.5,5.7
			c-2.3,1.5-4.5,1.1-6.6,1.1c-5.8-0.2-11.6-0.7-17.4-0.7c-36.6-0.1-73.2,0-109.9,0c-2.6,0-5.1,0.4-7.7,0.6
			C1147,615.3,1145.8,615.3,1144.2,615.5z"/>
	</g>
</g>
</svg>
