<?xml version="1.0" encoding="utf-8"?>
<!-- Generator: Adobe Illustrator 27.5.0, SVG Export Plug-In . SVG Version: 6.00 Build 0)  -->
<svg version="1.1" id="Layer_1" xmlns="http://www.w3.org/2000/svg" xmlns:xlink="http://www.w3.org/1999/xlink" x="0px" y="0px"
	 viewBox="0 0 726.8 183.8" style="enable-background:new 0 0 726.8 183.8;" xml:space="preserve">
<style type="text/css">
	.st0{fill:#AA272F;}
	.st1{fill:#595959;}
	.st2{fill:#FFFFFF;}
</style>
<g>
	<path class="st0" d="M183.8,122.3l25.8,44.7l-20.4,11.8l-26.3-45.6C170.2,130.3,177.2,126.7,183.8,122.3z"/>
	<path class="st0" d="M75.7,102.5l48.4-83.8l47.8,82.9c-6.5,4.5-13.6,8.1-21,10.6l-26.8-46.3l-27,46.9l-12.1,20.9l-26,45l-20.4-11.8
		l25.2-43.7L75.7,102.5z"/>
	<path class="st1" d="M71.4,72.6c-18.7,0-33.8-15.1-33.8-33.8c0-18.7,15.1-33.8,33.8-33.8c18.7,0,33.8,15.1,33.8,33.8
		c0,0,0,0.1,0,0.1C105,57.5,90,72.6,71.4,72.6z M71.4,22.9c-8.9,0-16.1,7.2-16.1,16.1S62.5,55,71.4,55S87.4,47.8,87.4,39l0,0
		C87.4,30.1,80.2,22.9,71.4,22.9z"/>
	<path class="st2" d="M191.8,116.4c-2.6,2.1-5.2,4.1-8,5.9c-6.6,4.4-13.6,8-20.9,10.9c-22.3,8.7-47,9.9-70,3.2
		c-2.8-0.8-5.4-1.7-8-2.8l12.1-21c0.8,0.3,1.6,0.5,2.4,0.7c16.8,4.9,34.8,4.4,51.4-1.3c7.5-2.5,14.6-6.1,21-10.6
		c1.7-1.2,3.4-2.4,5-3.7L191.8,116.4L191.8,116.4z M63.8,123.2c-20.2-13.1-35.6-32.4-43.8-55l22.4-8.1c6.2,17.3,17.8,32.2,33.1,42.4
		l-11.9,20.7H63.8z"/>
	<path class="st2" d="M247.9,89.2c-1.6,0.6-3.4,0.9-5.1,0.8c-7.2,0-10.9-5.2-10.9-12.2s3.7-12.2,10.8-12.2c1.8,0,3.6,0.3,5.3,1
		l-0.2,3.9c-1.4-0.8-2.9-1.2-4.5-1.3c-3.6,0-6.7,2.4-6.7,8.6s3.1,8.6,6.7,8.6c1.6,0.1,3.2-0.3,4.5-1.2L247.9,89.2z"/>
	<path class="st2" d="M259.7,65.8c4.9,0,9.4,3.6,9.4,12.2s-4.5,12.2-9.4,12.2c-4.9,0-9.4-3.7-9.4-12.2S254.8,65.8,259.7,65.8z
		 M259.7,86.8c2.8,0,4.9-2.3,4.9-8.9s-2.2-8.9-4.9-8.9s-5,2.3-5,8.9C254.7,84.5,256.9,86.8,259.7,86.8z"/>
	<path class="st2" d="M273.4,66.1h5.2l8,18.6l0,0V66.1h3.9v23.7h-5.2l-7.8-18.5l0,0v18.5h-4V66.1z"/>
	<path class="st2" d="M295.2,85.2c1.5,0.9,3.2,1.5,5,1.5c1.8,0.2,3.4-1.1,3.6-2.9c0-0.2,0-0.3,0-0.5c0-1.7-1-2.5-3.1-3.6l-2.2-1.2
		c-2.4-1.1-3.9-3.6-3.9-6.2c0-4.3,3.5-6.4,7.5-6.4c1.7,0,3.4,0.3,4.9,0.8l-0.2,3.6c-1.4-0.6-2.9-1-4.4-1c-2.2,0-3.3,1.2-3.3,2.8
		c0,1.6,1.2,2.4,2.5,3.2l2.6,1.4c2.6,1,4.3,3.6,4.1,6.4c0,4.8-3.5,7.1-8,7.1c-1.9,0.1-3.8-0.2-5.5-1L295.2,85.2z"/>
	<path class="st2" d="M312.5,66.1h12.5v3.5h-8v6.3h7.7v3.5h-7.7v7.1h8.3v3.5h-12.8L312.5,66.1z"/>
	<path class="st2" d="M329.6,66.1h4.3v23.7h-4.3V66.1z"/>
	<path class="st2" d="M339,66.1h4.3v20.3h7.8v3.5H339V66.1z"/>
	<path class="st2" d="M363.4,66.1h6.2c7.4,0,11.3,4,11.3,11.8s-4.8,11.8-11.3,11.8h-6.2L363.4,66.1z M367.8,86.4h1.5
		c4.9,0,7.1-3.3,7.1-8.5s-2.2-8.5-7.1-8.5h-1.5L367.8,86.4z"/>
	<path class="st2" d="M385.1,66.1h12.5v3.5h-8.1v6.3h7.7v3.5h-7.7v7.1h8.5v3.5h-12.8V66.1z"/>
	<path class="st2" d="M401.7,85.2c1.5,0.9,3.2,1.5,5,1.5c1.8,0.2,3.4-1.2,3.6-3c0-0.2,0-0.3,0-0.5c0-1.7-1-2.5-3.1-3.6l-2.2-1.2
		c-3.3-1.5-4.8-5.5-3.2-8.8c1.2-2.6,4-4.2,6.8-3.8c1.7,0,3.4,0.3,5,0.8l-0.2,3.6c-1.4-0.6-2.9-1-4.4-1c-2.2,0-3.3,1.2-3.3,2.8
		c0,1.6,1.2,2.4,2.5,3.2l2.5,1.4c2.6,1,4.3,3.6,4.1,6.4c0,4.8-3.4,7.1-7.9,7.1c-1.9,0.1-3.8-0.2-5.5-1L401.7,85.2z"/>
	<path class="st2" d="M440.1,84.1h-8.3l-1.7,5.7h-4.3l7.9-23.7h4.8l7.7,23.7h-4.5L440.1,84.1z M439.2,80.9l-3-11l0,0l-3.3,11H439.2z
		"/>
	<path class="st2" d="M449.2,66.1h7.4c4.2,0,7,1.9,7,6.2c0.1,2.7-1.9,5.1-4.6,5.5l0,0c0.9,0.1,1.9,0.6,2.6,2.8l3.1,9h-4.6l-2.3-7.7
		c-0.3-1.6-1.7-2.6-3.3-2.5h-1v10.2h-4.4V66.1z M455.4,76.4c1.9,0.2,3.6-1.1,3.8-2.9c0-0.2,0-0.4,0-0.7c0-2.8-1.4-3.4-3.9-3.4h-1.8
		v7L455.4,76.4z"/>
	<path class="st2" d="M472,69.5h-5.3v-3.5h14.9v3.5h-5.3v20.2H472L472,69.5z"/>
	<path class="st2" d="M484.9,85.2c1.5,0.9,3.2,1.5,5,1.5c1.8,0.2,3.4-1.1,3.6-2.9c0-0.2,0-0.3,0-0.5c0-1.7-1-2.5-3.1-3.6l-2.2-1.2
		c-2.4-1.1-3.9-3.6-3.9-6.2c0-4.3,3.5-6.4,7.5-6.4c1.7,0,3.4,0.3,4.9,0.8l-0.2,3.6c-1.4-0.6-2.9-1-4.4-1c-2.2,0-3.3,1.2-3.3,2.8
		c0,1.6,1.2,2.4,2.5,3.2l2.5,1.4c2.6,1,4.3,3.6,4.1,6.4c0,4.8-3.4,7.1-7.9,7.1c-1.9,0.1-3.8-0.2-5.5-1L484.9,85.2z"/>
	<path class="st2" d="M511.2,66.1h6.2c7.4,0,11.4,4,11.4,11.8s-4.8,11.8-11.4,11.8h-6.2V66.1z M515.6,86.4h1.4
		c4.9,0,7.1-3.3,7.1-8.5s-2.2-8.5-7.1-8.5h-1.4V86.4z"/>
	<path class="st2" d="M532.9,66.1h12.5v3.5h-8.1v6.3h7.7v3.5h-7.7v7.1h8.5v3.5h-12.8V66.1z"/>
	<path class="st2" d="M559,66.1h4.3v20.3h7.8v3.5H559L559,66.1z"/>
	<path class="st2" d="M576.5,64.3l-2.8,8.4h-3.2l1.9-8.4H576.5z"/>
	<path class="st2" d="M588.3,65.8c4.9,0,9.4,3.6,9.4,12.2s-4.5,12.2-9.4,12.2c-4.9,0-9.4-3.6-9.4-12.2S583.4,65.8,588.3,65.8z
		 M588.3,86.8c2.8,0,4.9-2.3,4.9-8.9s-2.2-8.9-4.9-8.9c-2.8,0-5,2.3-5,8.9C583.3,84.5,585.5,86.8,588.3,86.8z"/>
	<path class="st2" d="M601.9,66.1h5.2l7.9,18.6l0,0V66.1h3.9v23.7h-5.1L606,71.3l0,0v18.5H602L601.9,66.1z"/>
	<path class="st2" d="M627.6,69.5h-5.3v-3.5h14.9v3.5H632v20.2h-4.4V69.5z"/>
	<path class="st2" d="M651.1,84.1h-8.3l-1.7,5.7h-4.3l8-23.7h4.8l7.6,23.7h-4.5L651.1,84.1z M650.1,80.9l-3-11l0,0l-3.3,11H650.1z"
		/>
	<path class="st2" d="M660.1,66.1h7.6c4.2,0,7.1,1.9,7.1,6.2c0.1,2.8-1.9,5.1-4.6,5.5l0,0c0.9,0.1,1.9,0.6,2.6,2.8l3.1,9h-4.6
		l-2.3-7.7c-0.3-1.6-1.7-2.6-3.3-2.5h-1v10.2h-4.4L660.1,66.1z M666.2,76.4c1.9,0.3,3.6-1,3.9-2.9c0-0.2,0-0.5,0-0.7
		c0-2.8-1.4-3.4-3.9-3.4h-1.7v7L666.2,76.4z"/>
	<path class="st2" d="M679.3,66.1h4.3v23.7h-4.3V66.1z"/>
	<path class="st2" d="M697.4,65.8c4.9,0,9.4,3.6,9.4,12.2s-4.5,12.2-9.4,12.2s-9.4-3.6-9.4-12.2S692.5,65.8,697.4,65.8z M697.4,86.8
		c2.8,0,4.9-2.3,4.9-8.9s-2.2-8.9-4.9-8.9s-5,2.3-5,8.9C692.4,84.5,694.6,86.8,697.4,86.8z"/>
	<path class="st2" d="M241.3,20.7c4.9,0,9.4,3.7,9.4,12.2S246.2,45,241.3,45c-4.9,0-9.4-3.7-9.4-12.2S236.3,20.7,241.3,20.7z
		 M241.3,41.8c2.8,0,5-2.3,5-8.9s-2.2-8.9-5-8.9c-2.8,0-4.9,2.3-4.9,8.9S238.5,41.8,241.3,41.8z"/>
	<path class="st2" d="M255,21h5.2l7.9,18.6l0,0V21h3.9v23.7h-5.1l-7.9-18.5l0,0v18.5H255V21z"/>
	<path class="st2" d="M280.6,24.5h-5.1V21h14.9v3.5h-5.2v20.2h-4.5V24.5z"/>
	<path class="st2" d="M304,39.1h-8.1l-1.7,5.7h-4.3l8-23.7h4.7l7.7,23.7h-4.5L304,39.1z M303.1,35.7l-3-11l0,0l-3.3,11H303.1z"/>
	<path class="st2" d="M313.1,21h7.4c4.2,0,7.1,1.9,7.1,6.2c0.1,2.8-1.9,5.2-4.6,5.5l0,0c0.9,0,1.9,0.5,2.8,2.8l3.1,9h-4.8l-2.3-7.7
		c-0.3-1.6-1.7-2.6-3.3-2.5h-1v10.2h-4.4L313.1,21z M319.2,31.4c1.9,0.2,3.6-1.1,3.8-2.9c0-0.2,0-0.4,0-0.7c0-2.8-1.4-3.4-3.9-3.4
		h-1.8v7L319.2,31.4z"/>
	<path class="st2" d="M332.3,21h4.3v23.7h-4.3V21z"/>
	<path class="st2" d="M350.4,20.7c4.9,0,9.4,3.7,9.4,12.2S355.3,45,350.4,45s-9.4-3.7-9.4-12.2S345.4,20.7,350.4,20.7z M350.4,41.8
		c2.8,0,4.9-2.3,4.9-8.9s-2.2-8.9-4.9-8.9s-5,2.3-5,8.9S347.6,41.8,350.4,41.8z"/>
	<path class="st2" d="M385,39.1h-8.1l-1.7,5.7h-4.3l8-23.7h4.8l7.6,23.7h-4.5L385,39.1z M384.1,35.7l-3-11l0,0l-3.3,11H384.1z"/>
	<path class="st2" d="M394.2,21h7.4c4.2,0,7.1,1.9,7.1,6.2c0.1,2.7-1.9,5.1-4.6,5.5l0,0c0.9,0,1.9,0.5,2.6,2.8l3.1,9h-4.6l-2.3-7.7
		c-0.3-1.6-1.7-2.6-3.3-2.5h-1v10.2h-4.3V21z M400.3,31.4c1.9,0.2,3.6-1.1,3.9-3c0-0.2,0-0.4,0-0.6c0-2.8-1.4-3.4-3.9-3.4h-1.8v7
		L400.3,31.4z"/>
	<path class="st2" d="M416.9,24.5h-5.3V21h14.9v3.5h-5.3v20.2h-4.3L416.9,24.5z"/>
	<path class="st2" d="M429.8,40.2c1.5,0.9,3.2,1.5,5,1.5c1.8,0.2,3.4-1.1,3.6-2.9c0-0.2,0-0.3,0-0.5c0-1.7-1-2.4-3.1-3.6l-2.2-1.2
		c-3.3-1.6-4.7-5.6-3.2-8.9c1.2-2.6,3.9-4.1,6.8-3.8c1.7,0,3.4,0.3,4.9,0.9l-0.2,3.6c-1.4-0.6-2.9-1-4.4-1c-2.2,0-3.3,1.2-3.3,2.8
		s1.2,2.4,2.5,3.2l2.6,1.4c2.6,1,4.3,3.6,4.1,6.4c0,4.8-3.5,7.2-8,7.2c-1.9,0.1-3.8-0.2-5.5-1L429.8,40.2z"/>
	<path class="st2" d="M471.4,44.2c-1.6,0.6-3.4,0.9-5.1,0.9c-7.2,0-10.9-5.3-10.9-12.2s3.7-12.2,10.8-12.2c1.8,0,3.6,0.4,5.2,1
		l-0.2,4c-1.4-0.8-2.9-1.3-4.5-1.3c-3.6,0-6.7,2.4-6.7,8.6s3.1,8.6,6.7,8.6c1.6,0.1,3.2-0.3,4.5-1.2L471.4,44.2z"/>
	<path class="st2" d="M483.2,20.7c4.9,0,9.4,3.7,9.4,12.2S488.1,45,483.2,45c-4.9,0-9.4-3.7-9.4-12.2S478.3,20.7,483.2,20.7z
		 M483.2,41.8c2.8,0,5-2.3,5-8.9s-2.2-8.9-5-8.9s-5,2.3-5,8.9S480.5,41.8,483.2,41.8z"/>
	<path class="st2" d="M501.1,21v15.4c0,3.9,1.2,5.2,3.7,5.2c2.5,0,3.7-1.3,3.7-5.2V21h4.5v15.4c0,6.2-3.6,8.7-8.1,8.7
		s-8.1-2.5-8.1-8.7V21H501.1z"/>
	<path class="st2" d="M517.9,21h5.2l7.9,18.6l0,0V21h4.1v23.7h-5.2L522,26.3l0,0v18.5h-3.9L517.9,21z"/>
	<path class="st2" d="M555.1,44.2c-1.6,0.6-3.4,0.9-5.1,0.9c-7.2,0-10.9-5.3-10.9-12.2s3.7-12.2,10.8-12.2c1.8,0,3.6,0.4,5.3,1
		l-0.2,4c-1.4-0.8-2.9-1.3-4.5-1.3c-3.6,0-6.7,2.4-6.7,8.6s3.1,8.6,6.7,8.6c1.6,0.1,3.2-0.3,4.5-1.2L555.1,44.2z"/>
	<path class="st2" d="M559.1,21h4.3v23.7h-4.3V21z"/>
	<path class="st2" d="M568.6,21h4.4v20.2h7.8v3.5h-12.2V21z"/>
	<path class="st0" d="M706.8,110.1H232.7v-3.3h474.1V110.1z M234.4,108.5L234.4,108.5z"/>
	<path class="st2" d="M233.8,129c1.1-0.7,2.3-1,3.6-1c1.2-0.1,2.5,0.4,3.4,1.2c0.8,0.8,1.2,1.9,1.1,3.1v6.6c0,0.6,0,1.3,0,1.9H240
		v-1.7l0,0c-0.7,1.2-2.1,2-3.6,1.9c-1.9,0.2-3.5-1.2-3.6-3.1c0-0.2,0-0.4,0-0.6c0-2.5,1.6-4.3,6-4.3h1.2v-0.6c0.1-0.7-0.1-1.4-0.5-2
		c-0.5-0.6-1.3-0.9-2.1-0.8c-1.2,0-2.4,0.5-3.3,1.3L233.8,129z M239.9,134.6c-0.5,0-1,0-1.5,0c-2.5,0-3.6,1.2-3.6,2.8
		c-0.1,1.1,0.6,2.1,1.7,2.2c0.1,0,0.3,0,0.4,0c1.7,0,3-1.4,3-3c0-0.1,0-0.3,0-0.4V134.6z"/>
	<path class="st2" d="M246.2,130.9c0-0.9,0-1.9,0-2.8h2v1.9l0,0c0.5-1.3,1.8-2.1,3.2-2.1c2.2,0,3.7,1.3,3.7,4.1v8.8h-2v-8.3
		c0-2-0.7-2.8-2.1-2.8s-2.8,1.2-2.8,3.5v7.6h-2.1L246.2,130.9z"/>
	<path class="st2" d="M273.2,123.3c3.8,0,6.3,3.3,6.3,8.7c0,6-2.4,9-6.5,9s-6.3-3.3-6.3-8.7C266.7,126.4,269.1,123.3,273.2,123.3z
		 M273,139.2c2.3,0,4.2-1.9,4.2-7.2c0-3.5-1.1-6.9-4-6.9c-2.3,0-4.2,1.9-4.2,7.2C269,135.9,270,139.2,273,139.2z"/>
	<path class="st2" d="M283.8,130.9c0-0.9,0-1.9,0-2.8h2v1.9l0,0c0.5-1.3,1.8-2.1,3.2-2.1c2.2,0,3.7,1.3,3.7,4.1v8.8h-2.1v-8.3
		c0-2-0.7-2.8-2.1-2.8c-1.3,0-2.8,1.2-2.8,3.5v7.6h-2V130.9z"/>
	<path class="st2" d="M302.7,140.7c-0.6,0.2-1.2,0.3-1.8,0.3c-1.9,0-3-0.8-3-3v-8.3h-2V128h2v-2.6l2.1-0.6v3.2h2.8v1.7H300v7.5
		c0,1.4,0.4,2,1.3,2c0.5,0,0.9-0.1,1.3-0.3V140.7z"/>
	<path class="st2" d="M306.3,129c1.1-0.7,2.3-1,3.6-1c1.2-0.1,2.5,0.4,3.4,1.2c0.8,0.8,1.2,2,1.1,3.1v6.6c0,0.6,0,1.3,0,1.9h-1.9
		v-1.7l0,0c-0.7,1.3-2.1,2-3.6,1.9c-1.9,0.2-3.5-1.2-3.6-3.1c0-0.2,0-0.4,0-0.6c0-2.5,1.6-4.3,6-4.3h1.2v-0.6c0.1-0.7-0.1-1.4-0.5-2
		c-0.5-0.6-1.3-0.9-2.1-0.8c-1.2,0-2.4,0.4-3.3,1.3L306.3,129z M312.4,134.6c-0.5,0-1,0-1.5,0c-2.5,0-3.6,1.2-3.6,2.8
		c-0.1,1.1,0.6,2.1,1.7,2.2c0.1,0,0.3,0,0.4,0c1.7,0,3-1.4,3-3c0-0.1,0-0.3,0-0.4V134.6z"/>
	<path class="st2" d="M318.8,130.9c0-0.9,0-1.9,0-2.8h2v2l0,0c0.6-1.5,2.1-2.4,3.6-2.2v2.1c-0.3,0-0.5,0-0.8,0
		c-1.6,0-2.8,1.4-2.8,4.2v6.7h-2.1V130.9z"/>
	<path class="st2" d="M329.9,123v2.5h-2.3V123H329.9z M327.7,128.2h2.1v12.7h-2.1V128.2z"/>
	<path class="st2" d="M339,128c3.3,0,5.1,2.5,5.1,6.5c0,4-1.7,6.5-5.1,6.5c-3.3,0-5.1-2.5-5.1-6.5C333.9,130.5,335.6,128,339,128z
		 M339,139.3c2,0,2.8-1.6,2.8-4.8c0-3.2-0.9-4.8-2.8-4.8c-1.8,0-2.9,1.6-2.9,4.8C336.1,137.7,336.9,139.3,339,139.3z"/>
	<path class="st2" d="M364.4,141.4c0.1,2.7-2,4.9-4.7,5c-0.3,0-0.5,0-0.8,0c-1.3-0.1-2.5-0.3-3.7-0.8v-2.1c1,0.7,2.2,1.1,3.5,1.1
		c1.8,0.2,3.4-1.1,3.6-2.8c0-0.3,0-0.6,0-0.9v-2l0,0c-0.6,1.3-1.9,2.1-3.3,2.1c-2.6,0-4.4-2.1-4.4-6.5s1.8-6.5,4.6-6.5
		c1.3,0.1,2.5,0.8,3.1,2l0,0v-1.8h2c0,0.7,0,1.5,0,2.3L364.4,141.4z M359.5,139.3c1.9,0,2.8-1.6,2.8-4.8c0-3.2-0.9-4.8-2.8-4.8
		s-2.8,1.6-2.8,4.8C356.7,137.7,357.6,139.3,359.5,139.3z"/>
	<path class="st2" d="M373.1,128c3.4,0,5.1,2.5,5.1,6.5c0,4-1.7,6.5-5.1,6.5s-5.1-2.5-5.1-6.5C368,130.5,369.7,128,373.1,128z
		 M373.1,139.3c2,0,2.8-1.6,2.8-4.8c0-3.2-0.9-4.8-2.8-4.8s-2.9,1.6-2.9,4.8C370.2,137.7,371.1,139.3,373.1,139.3z"/>
	<path class="st2" d="M380.7,128.2h2.3l2.8,10.6l0,0l2.8-10.6h2.2l-3.8,12.7h-2.5L380.7,128.2z"/>
	<path class="st2" d="M395.6,135.1c0,2.9,1.2,4.3,3.5,4.3c1-0.1,2-0.4,2.8-1v1.9c-1.1,0.5-2.3,0.8-3.6,0.7c-3.4,0-5.1-2.5-5.1-6.5
		c0-4,1.7-6.5,4.9-6.5s4.4,2.3,4.4,6v1.1H395.6z M400.6,133.5c0-2.8-0.8-3.9-2.5-3.9c-1.7,0-2.5,1-2.6,3.9H400.6z"/>
	<path class="st2" d="M406.5,130.9c0-0.9,0-1.9,0-2.8h2v2l0,0c0.5-1.5,2-2.4,3.6-2.2v2.1c-0.3,0-0.5,0-0.8,0c-1.6,0-2.8,1.4-2.8,4.2
		v6.7h-2.1L406.5,130.9z"/>
	<path class="st2" d="M415.2,130.9c0-0.9,0-1.9,0-2.8h2v1.9l0,0c0.5-1.3,1.8-2.1,3.2-2.1c2.2,0,3.7,1.3,3.7,4.1v8.8h-2.1v-8.3
		c0-2-0.7-2.8-2.1-2.8c-1.4,0-2.8,1.2-2.8,3.5v7.6h-2.1L415.2,130.9z"/>
	<path class="st2" d="M428.6,130.9c0-0.9,0-1.9,0-2.8h2v1.9l0,0c0.7-1.7,2.7-2.5,4.4-1.7c0.8,0.3,1.4,1,1.7,1.7c0.5-1.2,1.7-2,3.1-2
		c2.2,0,3.7,1.3,3.7,4.1v8.8h-2.1v-8.8c0-1.6-0.7-2.4-1.9-2.4c-1.2,0-2.4,0.9-2.4,3.2v7.8h-2.1v-8.7c0-1.6-0.7-2.4-1.9-2.4
		c-1.2,0-2.4,0.9-2.4,3.2v7.8h-2.1L428.6,130.9z"/>
	<path class="st2" d="M449.5,135.1c0,2.9,1.2,4.3,3.5,4.3c1-0.1,2.1-0.4,2.9-1v1.9c-1.1,0.5-2.3,0.8-3.6,0.7c-3.4,0-5.1-2.5-5.1-6.5
		c0-4,1.7-6.5,4.9-6.5c3.2,0,4.4,2.3,4.4,6v1.1H449.5z M454.6,133.5c0-2.8-0.8-3.9-2.5-3.9c-1.7,0-2.5,1-2.6,3.9H454.6z"/>
	<path class="st2" d="M460.5,130.9c0-0.9,0-1.9,0-2.8h2v1.9l0,0c0.5-1.3,1.8-2.1,3.2-2.1c2.2,0,3.7,1.3,3.7,4.1v8.8h-2.1v-8.3
		c0-2-0.7-2.8-2.1-2.8c-1.4,0-2.8,1.2-2.8,3.5v7.6h-2V130.9z"/>
	<path class="st2" d="M479.4,140.7c-0.6,0.2-1.2,0.3-1.8,0.3c-1.9,0-2.9-0.8-2.9-3v-8.3h-2V128h2v-2.6l2.1-0.6v3.2h2.6v1.7h-2.6v7.5
		c0,1.4,0.4,2,1.3,2c0.5,0,0.9-0.1,1.3-0.3V140.7z"/>
	<path class="st2" d="M490.5,129c1.1-0.7,2.3-1,3.6-1c1.2-0.1,2.5,0.4,3.4,1.2c0.8,0.8,1.2,2,1.1,3.1v6.6c0,0.6,0,1.3,0,1.9h-1.9
		v-1.7l0,0c-0.7,1.2-2.1,2-3.5,1.9c-1.9,0.2-3.5-1.2-3.7-3.1c0-0.2,0-0.4,0-0.5c0-2.5,1.6-4.3,6-4.3h1.2v-0.6c0.1-0.7-0.1-1.4-0.5-2
		c-0.5-0.6-1.3-0.9-2.1-0.8c-1.2,0-2.4,0.4-3.3,1.3L490.5,129z M496.6,134.6c-0.5,0-1,0-1.5,0c-2.5,0-3.6,1.2-3.6,2.8
		c-0.1,1.1,0.6,2.1,1.7,2.2c0.1,0,0.3,0,0.4,0c1.7,0,3-1.4,3-3c0-0.1,0-0.3,0-0.4V134.6z"/>
	<path class="st2" d="M512.1,141.4c0.1,2.7-2,4.9-4.7,5c-0.3,0-0.5,0-0.8,0c-1.3-0.1-2.5-0.3-3.7-0.8v-2.1c1,0.7,2.2,1.1,3.5,1.1
		c1.8,0.2,3.4-1.1,3.6-2.8c0-0.3,0-0.6,0-0.9v-2l0,0c-0.6,1.3-1.9,2.1-3.3,2.1c-2.6,0-4.4-2.1-4.4-6.5s1.8-6.5,4.6-6.5
		c1.3,0.1,2.5,0.8,3.1,2l0,0v-1.8h2c0,0.7,0,1.5,0,2.3L512.1,141.4z M507.2,139.3c1.9,0,2.8-1.6,2.8-4.8c0-3.2-0.9-4.8-2.8-4.8
		c-1.9,0-2.8,1.6-2.8,4.8C504.4,137.7,505.3,139.3,507.2,139.3L507.2,139.3z"/>
	<path class="st2" d="M517.9,135.1c0,2.9,1.1,4.3,3.5,4.3c1-0.1,2-0.5,2.8-1v1.9c-1.1,0.5-2.3,0.8-3.6,0.7c-3.4,0-5.1-2.5-5.1-6.5
		c0-4,1.7-6.5,4.9-6.5c3.2,0,4.4,2.3,4.4,6v1.1H517.9z M522.9,133.5c0-2.8-0.8-3.9-2.5-3.9c-1.7,0-2.5,1-2.6,3.9H522.9z"/>
	<path class="st2" d="M528.8,130.9c0-0.9,0-1.9,0-2.8h2v1.9l0,0c0.5-1.3,1.8-2.1,3.2-2.1c2.2,0,3.7,1.3,3.7,4.1v8.8h-2.1v-8.3
		c0-2-0.7-2.8-2.1-2.8c-1.3,0-2.8,1.2-2.8,3.5v7.6h-2.1L528.8,130.9z"/>
	<path class="st2" d="M549.6,130.4c-0.7-0.4-1.6-0.6-2.4-0.6c-2,0-3.5,1.4-3.5,4.9c0,2.9,1.4,4.6,3.4,4.6c0.9,0,1.8-0.2,2.5-0.7v1.9
		c-0.9,0.4-1.8,0.5-2.8,0.6c-3.1,0-5.6-2.4-5.6-5.5c0-0.3,0-0.6,0.1-0.9c0-4.1,2.2-6.7,5.7-6.7c0.9,0,1.7,0.2,2.5,0.5L549.6,130.4z"
		/>
	<path class="st2" d="M557.2,143.4c-0.6,2.2-1.5,2.9-3.1,2.9c-0.5,0-0.9,0-1.4-0.2v-1.9c0.4,0.2,0.7,0.2,1.1,0.2
		c0.6,0,1-0.3,1.4-1.6l0.5-1.9l-4-12.9h2.2l2.8,10.3l0,0l2.8-10.3h2.1L557.2,143.4z"/>
	<path class="st2" d="M242.3,166.9c0,0.9,0,1.9,0,2.8h-2v-1.9l0,0c-0.5,1.3-1.8,2.1-3.2,2.1c-2.2,0-3.7-1.3-3.7-4.1V157h2.1v8.3
		c0,2,0.7,2.9,2.1,2.9c1.4,0,2.8-1.1,2.8-3.4V157h2V166.9z"/>
	<path class="st2" d="M246.7,159.7c0-0.9,0-1.8,0-2.8h2v1.9l0,0c0.5-1.3,1.8-2.2,3.2-2.1c2.2,0,3.7,1.3,3.7,4.1v8.8h-2.1v-8.3
		c0-2-0.7-2.8-2.1-2.8s-2.8,1.1-2.8,3.4v7.6h-2.1L246.7,159.7z"/>
	<path class="st2" d="M272,156.8c3.3,0,5.1,2.5,5.1,6.5c0,4-1.7,6.5-5.1,6.5c-3.3,0-5.1-2.5-5.1-6.5
		C266.9,159.4,268.6,156.8,272,156.8z M272,168.2c2,0,2.8-1.7,2.8-4.8s-0.9-4.8-2.8-4.8c-1.9,0-2.8,1.7-2.8,4.8S270,168.2,272,168.2
		z"/>
	<path class="st2" d="M281,159.7c0-0.9,0-1.8,0-2.8h2v2l0,0c0.6-1.5,2-2.4,3.6-2.2v2.1c-0.3,0-0.5,0-0.8,0c-1.6,0-2.8,1.4-2.8,4.1
		v6.7h-2V159.7z"/>
	<path class="st2" d="M298.8,170.2c0.1,2.7-2,4.9-4.7,5c-0.3,0-0.5,0-0.8,0c-1.3-0.1-2.5-0.3-3.7-0.8v-2.1c1,0.7,2.2,1,3.5,1.1
		c1.8,0.2,3.4-1.1,3.6-2.9c0-0.3,0-0.6,0-0.8v-2l0,0c-0.6,1.3-1.9,2.1-3.3,2.2c-2.8,0-4.4-2.2-4.4-6.5c0-4.4,1.8-6.5,4.6-6.5
		c1.3,0.1,2.5,0.8,3.1,2l0,0V157h2c0,0.7,0,1.5,0,2.3L298.8,170.2z M293.9,168.2c1.9,0,2.8-1.7,2.8-4.8s-0.9-4.8-2.8-4.8
		s-2.8,1.7-2.8,4.8S292.1,168.2,293.9,168.2z"/>
	<path class="st2" d="M303.5,157.9c1.1-0.7,2.3-1,3.6-1c1.2,0,2.5,0.4,3.4,1.2c0.8,0.8,1.2,2,1.1,3.1v6.6c0,0.6,0,1.3,0,1.9h-1.9
		l-0.1-1.7l0,0c-0.7,1.3-2.1,2-3.5,1.9c-1.9,0.2-3.5-1.2-3.7-3.1c0-0.2,0-0.4,0-0.6c0-2.5,1.6-4.3,6-4.3h1.2v-0.6
		c0.1-0.7-0.1-1.4-0.5-2c-0.5-0.6-1.3-0.9-2.1-0.8c-1.2,0-2.4,0.5-3.3,1.3L303.5,157.9z M309.6,163.4h-1.5c-2.5,0-3.6,1.2-3.6,2.6
		c-0.1,1.1,0.6,2.1,1.7,2.2c0.1,0,0.3,0,0.4,0c1.6,0,3-1.4,3-3c0-0.1,0-0.1,0-0.2V163.4z"/>
	<path class="st2" d="M316,159.7c0-0.9,0-1.8,0-2.8h2v1.9l0,0c0.5-1.3,1.8-2.2,3.2-2.1c2.2,0,3.7,1.3,3.7,4.1v8.8h-2.1v-8.3
		c0-2-0.7-2.8-2.1-2.8s-2.8,1.1-2.8,3.4v7.6h-2.1L316,159.7z"/>
	<path class="st2" d="M331.7,151.8v2.5h-2.3v-2.5H331.7z M329.6,157h2.1v12.7h-2.1V157z"/>
	<path class="st2" d="M335.7,167.2c0.9,0.6,1.9,0.9,3,1c1.6,0,2.4-0.8,2.4-1.8s-0.5-1.5-1.6-2l-1.4-0.6c-1.8-0.8-2.5-1.6-2.5-3.3
		c0-2.1,1.7-3.7,3.8-3.7c0.1,0,0.2,0,0.3,0c0.9,0,1.9,0.1,2.8,0.4v1.8c-0.8-0.4-1.6-0.5-2.5-0.6c-1.4,0-2.1,0.7-2.1,1.7
		s0.7,1.6,2.2,2.2l0.7,0.3c1.5,0.4,2.5,1.7,2.5,3.2c0.2,2-1.3,3.8-3.3,4c-0.3,0-0.7,0-1,0c-1.2,0-2.4-0.2-3.4-0.7L335.7,167.2z"/>
	<path class="st2" d="M346.9,159.7c0-0.9,0-1.8,0-2.8h2v1.9l0,0c0.7-1.7,2.7-2.5,4.4-1.7c0.8,0.3,1.4,1,1.7,1.7c0.5-1.2,1.7-2,3.1-2
		c2.2,0,3.7,1.3,3.7,4.1v8.8h-2.1V161c0-1.6-0.7-2.3-1.9-2.3c-1.2,0-2.4,0.9-2.4,3.2v7.8h-2.1V161c0-1.6-0.7-2.3-2-2.3
		c-1.2,0-2.4,0.9-2.4,3.2v7.8h-2.1L346.9,159.7z"/>
	<path class="st2" d="M367.8,163.9c0,3,1.2,4.3,3.5,4.3c1.1-0.1,2.1-0.4,2.9-1v1.9c-1.1,0.5-2.3,0.8-3.6,0.7c-3.3,0-5.1-2.5-5.1-6.5
		c0-4,1.7-6.5,4.9-6.5c3.1,0,4.4,2.3,4.4,6v1.1H367.8z M372.9,162.4c0-2.8-0.8-3.9-2.5-3.9c-1.7,0-2.5,1-2.6,3.9H372.9z"/>
	<path class="st2" d="M395.2,167.3c0,0.8,0,1.6,0,2.3h-2v-1.9l0,0c-0.6,1.3-1.9,2.1-3.3,2c-2.6,0-4.4-2.2-4.4-6.5
		c0-4.4,1.8-6.5,4.4-6.5c1.4,0,2.6,0.7,3.2,1.9l0,0V151h2.1V167.3z M390.4,158.5c-1.9,0-2.8,1.7-2.8,4.8c0,3.2,0.9,4.8,2.8,4.8
		c1.9,0,2.8-1.7,2.8-4.8C393.1,160.2,392.3,158.5,390.4,158.5z"/>
	<path class="st2" d="M408.4,166.9c0,0.9,0,1.9,0,2.8h-2v-1.9l0,0c-0.5,1.3-1.8,2.1-3.2,2.1c-2.2,0-3.7-1.3-3.7-4.1V157h2.1v8.3
		c0,2,0.7,2.9,2.1,2.9s2.8-1.1,2.8-3.4V157h2.1L408.4,166.9z"/>
	<path class="st2" d="M429.4,170.2c0.1,2.7-2.1,4.9-4.8,5c-0.3,0-0.5,0-0.8,0c-1.3-0.1-2.5-0.3-3.7-0.8v-2.1c1,0.7,2.2,1,3.5,1.1
		c1.8,0.3,3.4-0.9,3.7-2.7c0.1-0.3,0.1-0.7,0-1v-2l0,0c-0.6,1.3-1.9,2.1-3.3,2.2c-2.6,0-4.4-2.2-4.4-6.5c0-4.4,1.8-6.5,4.6-6.5
		c1.3,0.1,2.5,0.8,3.1,2l0,0V157h2c0,0.7,0,1.5,0,2.3V170.2z M424.6,168.2c1.9,0,2.8-1.7,2.8-4.8c0-3.2-0.9-4.8-2.8-4.8
		s-2.8,1.7-2.8,4.8C421.9,166.5,422.6,168.2,424.6,168.2z"/>
	<path class="st2" d="M438.1,156.8c3.4,0,5.1,2.5,5.1,6.5c0,4-1.7,6.5-5.1,6.5c-3.4,0-5.2-2.5-5.2-6.5
		C432.9,159.4,434.8,156.8,438.1,156.8z M438.1,168.2c2,0,2.9-1.7,2.9-4.8s-0.9-4.8-2.9-4.8c-2,0-2.8,1.7-2.8,4.8
		S436.1,168.2,438.1,168.2z"/>
	<path class="st2" d="M456,166.9c0,0.9,0,1.9,0,2.8h-2v-1.9l0,0c-0.5,1.3-1.8,2.1-3.2,2.1c-2.2,0-3.7-1.3-3.7-4.1V157h2.1v8.3
		c0,2,0.7,2.9,2.1,2.9s2.8-1.1,2.8-3.4V157h2.1L456,166.9z"/>
	<path class="st2" d="M459.1,157h2.3l2.8,10.6l0,0L467,157h2.2l-3.8,12.7h-2.5L459.1,157z"/>
	<path class="st2" d="M474,163.9c0,3,1.1,4.3,3.5,4.3c1.1-0.1,2.1-0.4,2.9-1v1.9c-1.1,0.5-2.3,0.8-3.6,0.7c-3.3,0-5.1-2.5-5.1-6.5
		c0-4,1.7-6.5,4.9-6.5c3.1,0,4.4,2.3,4.4,6v1.1H474z M479.1,162.4c0-2.8-0.8-3.9-2.5-3.9c-1.7,0-2.5,1-2.6,3.9H479.1z"/>
	<path class="st2" d="M484.9,159.7c0-0.9,0-1.8,0-2.8h2v2l0,0c0.6-1.5,2.1-2.4,3.6-2.2v2.1c-0.3,0-0.5,0-0.8,0
		c-1.6,0-2.8,1.4-2.8,4.1v6.7h-2.1L484.9,159.7z"/>
	<path class="st2" d="M493.7,159.7c0-0.9,0-1.8,0-2.8h2v1.9l0,0c0.5-1.3,1.8-2.2,3.2-2.1c2.2,0,3.7,1.3,3.7,4.1v8.8h-2.1v-8.3
		c0-2-0.7-2.8-2.1-2.8s-2.8,1.1-2.8,3.4v7.6h-2V159.7z"/>
	<path class="st2" d="M508.6,163.9c0,3,1.1,4.3,3.5,4.3c1-0.1,2.1-0.4,2.9-1v1.9c-1.1,0.5-2.3,0.8-3.6,0.7c-3.3,0-5.1-2.5-5.1-6.5
		c0-4,1.7-6.5,4.9-6.5s4.4,2.3,4.4,6v1.1H508.6z M513.7,162.4c0-2.8-0.8-3.9-2.5-3.9s-2.5,1-2.6,3.9H513.7z"/>
	<path class="st2" d="M519.5,159.7c0-0.9,0-1.8,0-2.8h2v1.9l0,0c0.7-1.7,2.7-2.5,4.3-1.8c0.8,0.3,1.4,1,1.8,1.8c0.5-1.2,1.8-2,3.1-2
		c2.2,0,3.7,1.3,3.7,4.1v8.8h-2.1V161c0-1.6-0.7-2.3-1.9-2.3c-1.2,0-2.4,0.9-2.4,3.2v7.8h-2.1V161c0-1.6-0.7-2.3-1.9-2.3
		s-2.4,0.9-2.4,3.2v7.8h-2.1V159.7z"/>
	<path class="st2" d="M540.4,163.9c0,3,1.1,4.3,3.5,4.3c1-0.1,2.1-0.4,2.9-1v1.9c-1.1,0.5-2.3,0.8-3.6,0.7c-3.3,0-5.1-2.5-5.1-6.5
		c0-4,1.7-6.5,4.9-6.5c3.1,0,4.4,2.3,4.4,6v1.1H540.4z M545.5,162.4c0-2.8-0.8-3.9-2.5-3.9s-2.5,1-2.6,3.9H545.5z"/>
	<path class="st2" d="M551.3,159.7c0-0.9,0-1.8,0-2.8h2v1.9l0,0c0.5-1.3,1.8-2.2,3.2-2.1c2.2,0,3.7,1.3,3.7,4.1v8.8h-2.1v-8.3
		c0-2-0.8-2.8-2.1-2.8s-2.8,1.1-2.8,3.4v7.6h-2.1L551.3,159.7z"/>
	<path class="st2" d="M570.3,169.5c-0.6,0.2-1.2,0.3-1.8,0.3c-1.9,0-3-0.8-3-3v-8.3h-2v-1.7h2v-2.6l2.1-0.6v3.2h2.6v1.7h-2.6v7.5
		c0,1.4,0.4,2,1.3,2c0.5,0,0.9-0.1,1.3-0.3L570.3,169.5z"/>
	<path class="st2" d="M590,167.3c0,0.8,0,1.6,0,2.3h-2v-1.9l0,0c-0.6,1.3-1.9,2.1-3.3,2c-2.6,0-4.4-2.2-4.4-6.5
		c0-4.4,1.7-6.5,4.4-6.5c1.4,0,2.6,0.7,3.2,1.9l0,0V151h2.1L590,167.3z M585.1,158.5c-1.9,0-2.8,1.7-2.8,4.8c0,3.2,0.9,4.8,2.8,4.8
		c1.9,0,2.8-1.7,2.8-4.8C587.9,160.2,587,158.5,585.1,158.5L585.1,158.5z"/>
	<path class="st2" d="M595.8,163.9c0,3,1.1,4.3,3.5,4.3c1-0.1,2-0.4,2.8-1v1.9c-1.1,0.5-2.3,0.8-3.6,0.7c-3.3,0-5.1-2.5-5.1-6.5
		c0-4,1.7-6.5,4.9-6.5c3.1,0,4.4,2.3,4.4,6v1.1H595.8z M600.9,162.4c0-2.8-0.8-3.9-2.5-3.9c-1.7,0-2.5,1-2.6,3.9H600.9z"/>
	<path class="st2" d="M614.3,151h2.1v18.6h-2.1V151z"/>
	<path class="st2" d="M622,151h2.3l-1.7,5.8h-1.9L622,151z"/>
	<path class="st2" d="M634.5,152.1c3.9,0,6.3,3.3,6.3,8.7c0,6-2.4,9-6.5,9c-4.1,0-6.3-3.3-6.3-8.7
		C628.1,155.2,630.5,152.1,634.5,152.1z M634.5,168.1c2.3,0,4.2-1.9,4.2-7.2c0-3.5-1.1-6.9-4-6.9c-2.3,0-4.2,1.9-4.2,7.2
		C630.4,164.7,631.5,168.1,634.5,168.1z"/>
	<path class="st2" d="M645,159.7c0-0.9,0-1.8,0-2.8h2v1.9l0,0c0.5-1.3,1.8-2.2,3.2-2.1c2.2,0,3.7,1.3,3.7,4.1v8.8h-2.1v-8.3
		c0-2-0.7-2.8-2.1-2.8s-2.8,1.1-2.8,3.4v7.6h-2.1L645,159.7z"/>
	<path class="st2" d="M664,169.5c-0.6,0.2-1.2,0.3-1.8,0.3c-1.9,0-3-0.8-3-3v-8.3h-2v-1.7h2v-2.6l2.1-0.6v3.2h2.6v1.7h-2.6v7.5
		c0,1.4,0.4,2,1.3,2c0.5,0,0.9-0.1,1.3-0.3L664,169.5z"/>
	<path class="st2" d="M667.6,157.9c1.1-0.7,2.3-1,3.6-1c1.2,0,2.5,0.4,3.4,1.2c0.8,0.8,1.2,2,1.1,3.1v6.6c0,0.6,0,1.3,0,1.9h-1.9
		v-1.7l0,0c-0.7,1.3-2.1,2-3.5,1.9c-1.9,0.2-3.5-1.2-3.7-3.1c0-0.2,0-0.4,0-0.6c0-2.5,1.6-4.3,6-4.3h1.2v-0.6c0.1-0.7-0.1-1.4-0.5-2
		c-0.5-0.6-1.3-0.9-2.1-0.8c-1.2,0-2.4,0.5-3.3,1.3L667.6,157.9z M673.7,163.4h-1.5c-2.5,0-3.6,1.2-3.6,2.6
		c-0.1,1.1,0.6,2.1,1.7,2.2c0.1,0,0.3,0,0.4,0c1.6,0,3-1.4,3-3c0-0.1,0-0.1,0-0.2L673.7,163.4z"/>
	<path class="st2" d="M680.1,159.7c0-0.9,0-1.8,0-2.8h2v2l0,0c0.6-1.5,2-2.4,3.6-2.2v2.1c-0.3,0-0.5,0-0.8,0c-1.6,0-2.8,1.4-2.8,4.1
		v6.7h-2.1L680.1,159.7z"/>
	<path class="st2" d="M691.3,151.8v2.5H689v-2.5H691.3z M689.1,157h2.1v12.7h-2.1V157z"/>
	<path class="st2" d="M700.3,156.8c3.3,0,5.1,2.5,5.1,6.5c0,4-1.7,6.5-5.1,6.5c-3.3,0-5.1-2.5-5.1-6.5
		C695.3,159.4,697,156.8,700.3,156.8z M700.3,168.2c2,0,2.8-1.7,2.8-4.8s-0.9-4.8-2.8-4.8c-1.9,0-2.9,1.7-2.9,4.8
		S698.3,168.2,700.3,168.2z"/>
</g>
</svg>
