<?xml version="1.0" encoding="UTF-8"?><svg id="Layer_1" xmlns="http://www.w3.org/2000/svg" viewBox="0 0 575.67 299.67"><defs><style>.cls-1{fill:#fff;}</style></defs><path class="cls-1" d="m277.17,106.69s5.77-5.7,6.25-11.46c0,0,2.6,14.28,13.01,19.98,0,0-15.64-3.37-23.83.2,0,0,6.43-5.61,14.14-4.7,0,0-2.74-2.09-3.79-6.92,0,0-1.18,1.57-5.78,2.91Z"/><path class="cls-1" d="m262.68,136.04c-1.82,2.64-4.63,9.01-18.68,8.85-14.05-.16-17.3.47-19.82,3.7,0,0,2.4-27.02,20.72-29.64,0,0,11.6,5.31,22.34,3.77,0,0-2.74,10.68-4.56,13.32Z"/><path class="cls-1" d="m321.63,114.44c3.18.42,10.13.02,16.38,12.61,6.25,12.59,8.29,15.2,12.31,15.97,0,0-25.16,10.15-35.82-4.97,0,0-.55-12.74-6.81-21.62,0,0,10.75-2.42,13.94-1.99Z"/><path class="cls-1" d="m255.52,117.08s-17.16-.61-27.03-22.29c-9.88-21.67-13.18-26.21-19.94-27.74,0,0,41.58-15.8,58.79,10.42,0,0-26.29-15.59-46.28-7.91,0,0,4.74,5.25,12.46,22.67,3.7,8.34,11.71,20,22,24.86Z"/><path class="cls-1" d="m286.59,82.93s6.2-16.01,29.91-18.25c23.71-2.24,29.07-3.87,32.74-9.76,0,0,4.98,45.3-37.1,55.75,0,0,32.21-19.44,32.5-44.69,0,0-10.4,2.86-26.08,4.01-8.86.65-24.02,4.8-31.98,12.94Z"/><path class="cls-1" d="m305.73,124.26s9.27,14.45-2.92,34.91c-12.19,20.46-14.03,25.75-11.45,32.19,0,0-36.67-25.18-24.92-54.25,0,0,1.83,30.34,19.52,42.41,0,0,3.99-10.3,11.1-21.42,5.09-7.96,10.54-22.61,8.67-33.84Z"/><path class="cls-1" d="m279.13,34.33s22.14,15.67,15.19,32.82c0,0-10.42,7.35-14.51,17.41,0,0-7.85-7.74-9.21-10.64-1.36-2.91-5.46-8.54,1.75-20.6,7.21-12.06,8.3-15.19,6.78-18.99"/><path class="cls-1" d="m86.05,77.46c-6.03,0-11.99-4.43-11.99-11.77s5.96-11.74,11.99-11.74,11.99,4.47,11.99,11.74-5.96,11.77-11.99,11.77Zm0-20.53c-4.18,0-8.51,3.16-8.51,8.76s4.33,8.8,8.51,8.8,8.51-3.19,8.51-8.8-4.4-8.76-8.51-8.76Z"/><path class="cls-1" d="m112.37,77.03v-10.32c0-1.67-1.03-3.37-3.72-3.37s-3.87,1.7-3.87,3.37v10.32h-3.23v-16.07h2.84l.14,1.6c1.24-1.35,2.45-1.99,4.96-1.99,3.51,0,6.1,2.23,6.1,5.82v10.64h-3.23Z"/><path class="cls-1" d="m129.27,63.55h-5.11v8.94c0,1.31,1.06,2.02,2.38,2.02.67,0,1.28-.07,1.77-.25l-.64,2.87c-.36.11-.82.14-1.45.14-2.91,0-5.25-1.7-5.25-4.89v-8.83h-3.16v-2.59h3.16v-3.26l3.19-1.67v4.93h5.67l-.57,2.59Z"/><path class="cls-1" d="m143.8,77.42c-1.1-.25-1.99-1.06-2.34-2.06-1.13,1.49-2.77,2.06-4.5,2.06-3.19,0-5.18-2.34-5.18-4.93,0-3.12,2.55-4.89,5.29-5.14l3.76-.36v-1.03c0-1.45-.85-2.63-3.12-2.63-1.6,0-3.26.5-4.43,1.28l-.64-2.66c1.45-.96,3.3-1.38,5.25-1.38,3.58,0,6.17,2.02,6.17,5.82v6.49c0,1.45.78,2.3,1.81,2.48l-2.06,2.06Zm-2.98-7.77l-3.19.28c-1.92.18-2.77,1.42-2.77,2.59s.96,2.16,2.23,2.16c1.7,0,3.72-1.6,3.72-3.62v-1.42Z"/><path class="cls-1" d="m157.57,63.48c-2.59,0-5.71,1.38-5.71,5.96v7.59h-3.23v-16.07h3.05l.14,2.52c.85-1.99,3.05-2.73,5.46-2.73l.6,2.73h-.32Z"/><path class="cls-1" d="m162.36,57.88c-.64,0-1.95-1.31-1.95-1.95,0-.67,1.31-1.99,1.95-1.99.67,0,1.99,1.31,1.99,1.99,0,.64-1.31,1.95-1.99,1.95Zm-1.63,19.15v-16.07h3.26v16.07h-3.26Z"/><path class="cls-1" d="m176.2,77.42c-4.79,0-8.55-3.44-8.55-8.4s3.76-8.44,8.55-8.44,8.51,3.44,8.51,8.44-3.72,8.4-8.51,8.4Zm0-14.01c-2.84,0-5.28,2.23-5.28,5.6s2.45,5.57,5.28,5.57,5.25-2.23,5.25-5.57-2.45-5.6-5.25-5.6Z"/><path class="cls-1" d="m88.38,99.9v19.68h-3.44v-19.68h-7.27v-2.94h17.98v2.94h-7.27Z"/><path class="cls-1" d="m105.3,106.04c-2.59,0-5.71,1.38-5.71,5.96v7.59h-3.23v-16.06h3.05l.14,2.52c.85-1.99,3.05-2.73,5.46-2.73l.6,2.73h-.32Z"/><path class="cls-1" d="m110.1,100.44c-.64,0-1.95-1.31-1.95-1.95,0-.67,1.31-1.99,1.95-1.99.67,0,1.99,1.31,1.99,1.99,0,.64-1.31,1.95-1.99,1.95Zm-1.63,19.15v-16.06h3.26v16.06h-3.26Z"/><path class="cls-1" d="m120.28,120.23c-1.06-.28-3.19-1.35-3.19-4.43v-21.46h3.23v21.03c0,1.49,1.17,2.48,2.16,2.66l-2.2,2.2Z"/><path class="cls-1" d="m128.69,120.23c-1.06-.28-3.19-1.35-3.19-4.43v-21.46h3.23v21.03c0,1.49,1.17,2.48,2.16,2.66l-2.2,2.2Z"/><path class="cls-1" d="m135.61,100.44c-.64,0-1.95-1.31-1.95-1.95,0-.67,1.31-1.99,1.95-1.99.67,0,1.99,1.31,1.99,1.99,0,.64-1.31,1.95-1.99,1.95Zm-1.63,19.15v-16.06h3.26v16.06h-3.26Z"/><path class="cls-1" d="m153.42,119.59l-.14-1.6c-1.24,1.35-2.45,1.99-4.97,1.99-3.51,0-6.1-2.23-6.1-5.82v-10.64h3.23v10.32c0,1.66,1.03,3.37,3.72,3.37s3.87-1.7,3.87-3.37v-10.32h3.23v16.06h-2.84Z"/><path class="cls-1" d="m181.08,119.59v-10.99c0-1.6-1.21-2.66-3.51-2.66s-3.55,1.21-3.55,2.66v10.99h-3.23v-10.99c0-1.6-1.21-2.66-3.55-2.66s-3.55,1.21-3.55,2.66v10.99h-3.23v-16.06h2.84l.14,1.6c1.24-1.35,2.38-1.99,4.89-1.99,1.99,0,3.69,1.06,4.5,2.27,1.1-1.24,2.84-2.27,5.78-2.27,3.26,0,5.67,2.2,5.67,5.18v11.28h-3.23Z"/><path class="cls-1" d="m28.68,142.46v6.85h7.66v2.94h-7.66v9.89h-3.44v-22.62h12.52v2.94h-9.08Z"/><path class="cls-1" d="m47.25,162.53c-4.79,0-8.55-3.44-8.55-8.4s3.76-8.44,8.55-8.44,8.51,3.44,8.51,8.44-3.72,8.4-8.51,8.4Zm0-14.01c-2.84,0-5.28,2.24-5.28,5.6s2.45,5.57,5.28,5.57,5.25-2.23,5.25-5.57-2.45-5.6-5.25-5.6Z"/><path class="cls-1" d="m69.96,162.14l-.14-1.6c-1.24,1.35-2.45,1.99-4.97,1.99-3.51,0-6.1-2.23-6.1-5.82v-10.64h3.23v10.32c0,1.67,1.03,3.37,3.72,3.37s3.87-1.7,3.87-3.37v-10.32h3.23v16.07h-2.84Z"/><path class="cls-1" d="m87.83,162.14v-10.32c0-1.67-1.03-3.37-3.72-3.37s-3.87,1.7-3.87,3.37v10.32h-3.23v-16.07h2.84l.14,1.6c1.24-1.35,2.45-1.98,4.97-1.98,3.51,0,6.1,2.23,6.1,5.82v10.64h-3.23Z"/><path class="cls-1" d="m107.35,162.14l-.11-1.28c-.99,1.06-2.77,1.67-4.96,1.67-3.44,0-7.87-2.84-7.87-8.4,0-4.97,3.69-8.44,8.48-8.44,1.74,0,3.19.53,4.01,1.06v-9.86h3.23v25.25h-2.77Zm-.46-12.13c-.85-.81-2.3-1.49-4.01-1.49-2.87,0-5.21,2.24-5.21,5.6s2.34,5.57,5.21,5.57c1.74,0,3.16-.67,4.01-1.63v-8.05Z"/><path class="cls-1" d="m125.42,162.53c-1.1-.25-1.99-1.06-2.34-2.06-1.13,1.49-2.77,2.06-4.5,2.06-3.19,0-5.18-2.34-5.18-4.93,0-3.12,2.55-4.89,5.28-5.14l3.76-.36v-1.03c0-1.45-.85-2.62-3.12-2.62-1.6,0-3.26.5-4.43,1.28l-.64-2.66c1.45-.96,3.3-1.38,5.25-1.38,3.58,0,6.17,2.02,6.17,5.82v6.49c0,1.45.78,2.3,1.81,2.48l-2.06,2.06Zm-2.98-7.77l-3.19.28c-1.91.18-2.77,1.42-2.77,2.59s.96,2.16,2.23,2.16c1.7,0,3.72-1.6,3.72-3.62v-1.42Z"/><path class="cls-1" d="m139.51,148.67h-5.11v8.94c0,1.31,1.06,2.02,2.38,2.02.67,0,1.28-.07,1.77-.25l-.64,2.87c-.36.1-.82.14-1.45.14-2.91,0-5.25-1.7-5.25-4.89v-8.83h-3.16v-2.59h3.16v-3.26l3.19-1.67v4.93h5.67l-.57,2.59Z"/><path class="cls-1" d="m144.81,142.99c-.64,0-1.95-1.31-1.95-1.95,0-.68,1.31-1.99,1.95-1.99.67,0,1.99,1.31,1.99,1.99,0,.64-1.31,1.95-1.99,1.95Zm-1.63,19.15v-16.07h3.26v16.07h-3.26Z"/><path class="cls-1" d="m158.82,162.53c-4.79,0-8.55-3.44-8.55-8.4s3.76-8.44,8.55-8.44,8.51,3.44,8.51,8.44-3.72,8.4-8.51,8.4Zm0-14.01c-2.84,0-5.28,2.24-5.28,5.6s2.45,5.57,5.28,5.57,5.25-2.23,5.25-5.57-2.45-5.6-5.25-5.6Z"/><path class="cls-1" d="m181.14,162.14v-10.32c0-1.67-1.03-3.37-3.72-3.37s-3.87,1.7-3.87,3.37v10.32h-3.23v-16.07h2.84l.14,1.6c1.24-1.35,2.45-1.98,4.96-1.98,3.51,0,6.1,2.23,6.1,5.82v10.64h-3.23Z"/><path class="cls-1" d="m382.41,57.35v6.84h7.66v2.94h-7.66v9.89h-3.44v-22.62h12.52v2.94h-9.08Z"/><path class="cls-1" d="m401.86,77.42c-4.79,0-8.55-3.44-8.55-8.4s3.76-8.44,8.55-8.44,8.51,3.44,8.51,8.44-3.72,8.4-8.51,8.4Zm0-14.01c-2.84,0-5.28,2.23-5.28,5.6s2.45,5.57,5.28,5.57,5.25-2.23,5.25-5.57-2.45-5.6-5.25-5.6Z"/><path class="cls-1" d="m424.54,77.03v-10.32c0-1.67-1.03-3.37-3.72-3.37s-3.87,1.7-3.87,3.37v10.32h-3.23v-16.07h2.84l.14,1.6c1.24-1.35,2.45-1.99,4.97-1.99,3.51,0,6.1,2.23,6.1,5.82v10.64h-3.23Z"/><path class="cls-1" d="m444.06,77.03l-.11-1.28c-.99,1.06-2.76,1.67-4.96,1.67-3.44,0-7.87-2.84-7.87-8.4,0-4.96,3.69-8.44,8.48-8.44,1.74,0,3.19.53,4.01,1.06v-9.86h3.23v25.25h-2.77Zm-.46-12.13c-.85-.81-2.31-1.49-4.01-1.49-2.87,0-5.21,2.23-5.21,5.6s2.34,5.57,5.21,5.57c1.74,0,3.16-.67,4.01-1.63v-8.05Z"/><path class="cls-1" d="m462.13,77.42c-1.1-.25-1.99-1.06-2.34-2.06-1.13,1.49-2.77,2.06-4.5,2.06-3.19,0-5.18-2.34-5.18-4.93,0-3.12,2.55-4.89,5.28-5.14l3.76-.36v-1.03c0-1.45-.85-2.63-3.12-2.63-1.6,0-3.26.5-4.43,1.28l-.64-2.66c1.45-.96,3.3-1.38,5.25-1.38,3.58,0,6.17,2.02,6.17,5.82v6.49c0,1.45.78,2.3,1.81,2.48l-2.06,2.06Zm-2.98-7.77l-3.19.28c-1.91.18-2.77,1.42-2.77,2.59s.96,2.16,2.24,2.16c1.7,0,3.72-1.6,3.72-3.62v-1.42Z"/><path class="cls-1" d="m476.21,63.55h-5.11v8.94c0,1.31,1.06,2.02,2.38,2.02.67,0,1.28-.07,1.77-.25l-.64,2.87c-.35.11-.81.14-1.45.14-2.91,0-5.25-1.7-5.25-4.89v-8.83h-3.16v-2.59h3.16v-3.26l3.19-1.67v4.93h5.68l-.57,2.59Z"/><path class="cls-1" d="m481.52,57.88c-.64,0-1.95-1.31-1.95-1.95,0-.67,1.31-1.99,1.95-1.99.67,0,1.98,1.31,1.98,1.99,0,.64-1.31,1.95-1.98,1.95Zm-1.63,19.15v-16.07h3.26v16.07h-3.26Z"/><path class="cls-1" d="m495.86,77.42c-4.79,0-8.55-3.44-8.55-8.4s3.76-8.44,8.55-8.44,8.51,3.44,8.51,8.44-3.72,8.4-8.51,8.4Zm0-14.01c-2.84,0-5.28,2.23-5.28,5.6s2.45,5.57,5.28,5.57,5.25-2.23,5.25-5.57-2.45-5.6-5.25-5.6Z"/><path class="cls-1" d="m518.36,77.03v-10.32c0-1.67-1.03-3.37-3.72-3.37s-3.86,1.7-3.86,3.37v10.32h-3.23v-16.07h2.84l.14,1.6c1.24-1.35,2.45-1.99,4.96-1.99,3.51,0,6.1,2.23,6.1,5.82v10.64h-3.23Z"/><path class="cls-1" d="m387.55,99.9v19.68h-3.44v-19.68h-7.27v-2.94h17.98v2.94h-7.27Z"/><path class="cls-1" d="m404.48,106.04c-2.59,0-5.71,1.38-5.71,5.96v7.59h-3.23v-16.06h3.05l.14,2.52c.85-1.99,3.05-2.73,5.46-2.73l.6,2.73h-.32Z"/><path class="cls-1" d="m409.27,100.44c-.64,0-1.95-1.31-1.95-1.95,0-.67,1.31-1.99,1.95-1.99.67,0,1.98,1.31,1.98,1.99,0,.64-1.31,1.95-1.98,1.95Zm-1.63,19.15v-16.06h3.26v16.06h-3.26Z"/><path class="cls-1" d="m419.45,120.23c-1.06-.28-3.19-1.35-3.19-4.43v-21.46h3.23v21.03c0,1.49,1.17,2.48,2.16,2.66l-2.2,2.2Z"/><path class="cls-1" d="m427.86,120.23c-1.06-.28-3.19-1.35-3.19-4.43v-21.46h3.23v21.03c0,1.49,1.17,2.48,2.16,2.66l-2.2,2.2Z"/><path class="cls-1" d="m434.78,100.44c-.64,0-1.95-1.31-1.95-1.95,0-.67,1.31-1.99,1.95-1.99.67,0,1.99,1.31,1.99,1.99,0,.64-1.31,1.95-1.99,1.95Zm-1.63,19.15v-16.06h3.26v16.06h-3.26Z"/><path class="cls-1" d="m452.59,119.59l-.14-1.6c-1.24,1.35-2.45,1.99-4.96,1.99-3.51,0-6.1-2.23-6.1-5.82v-10.64h3.23v10.32c0,1.66,1.03,3.37,3.72,3.37s3.86-1.7,3.86-3.37v-10.32h3.23v16.06h-2.84Z"/><path class="cls-1" d="m480.25,119.59v-10.99c0-1.6-1.21-2.66-3.51-2.66s-3.55,1.21-3.55,2.66v10.99h-3.23v-10.99c0-1.6-1.21-2.66-3.55-2.66s-3.55,1.21-3.55,2.66v10.99h-3.23v-16.06h2.84l.14,1.6c1.24-1.35,2.38-1.99,4.89-1.99,1.99,0,3.69,1.06,4.5,2.27,1.1-1.24,2.84-2.27,5.78-2.27,3.26,0,5.67,2.2,5.67,5.18v11.28h-3.23Z"/><path class="cls-1" d="m390.85,162.14l-.11-1.28c-.99,1.06-2.77,1.67-4.97,1.67-3.44,0-7.87-2.84-7.87-8.4,0-4.97,3.69-8.44,8.48-8.44,1.74,0,3.19.53,4.01,1.06v-9.86h3.23v25.25h-2.77Zm-.46-12.13c-.85-.81-2.31-1.49-4.01-1.49-2.87,0-5.21,2.24-5.21,5.6s2.34,5.57,5.21,5.57c1.74,0,3.16-.67,4.01-1.63v-8.05Z"/><path class="cls-1" d="m411.78,153.1l-1.81,1.81h-9.68c.11,1.99,1.95,4.79,5.71,4.79,2.06,0,3.65-.57,5.14-1.63l-.82,3.44c-1.13.6-2.59,1.03-4.75,1.03-4.57,0-8.62-3.4-8.62-8.4,0-5.46,4.26-8.44,7.98-8.44,4.43,0,6.95,3.12,6.95,6.1,0,.5-.03.96-.11,1.31Zm-6.67-4.65c-2.02,0-4.19,1.6-4.61,3.83h8.09c.03-.14.03-.28.03-.43,0-1.6-1.38-3.4-3.51-3.4Z"/><path class="cls-1" d="m428.24,162.78c-1.06-.28-3.19-1.35-3.19-4.43v-21.46h3.23v21.03c0,1.49,1.17,2.48,2.16,2.66l-2.2,2.2Z"/><path class="cls-1" d="m432.89,145.26l-1.24-.21c1.28-1.63,2.13-3.41,2.31-4.5-.64-.11-1.74-1.14-1.74-1.7,0-.78,1.49-2.13,2.16-2.13.6,0,2.16,1.31,2.16,2.13,0,1.45-1.99,4.86-3.65,6.42Z"/><path class="cls-1" d="m450.44,162.57c-6.03,0-11.99-4.43-11.99-11.77s5.96-11.74,11.99-11.74,11.99,4.47,11.99,11.74-5.96,11.77-11.99,11.77Zm0-20.53c-4.18,0-8.51,3.16-8.51,8.76s4.33,8.8,8.51,8.8,8.51-3.19,8.51-8.8-4.4-8.76-8.51-8.76Z"/><path class="cls-1" d="m476.58,162.14v-10.32c0-1.67-1.03-3.37-3.72-3.37s-3.87,1.7-3.87,3.37v10.32h-3.23v-16.07h2.84l.14,1.6c1.24-1.35,2.45-1.98,4.96-1.98,3.51,0,6.1,2.23,6.1,5.82v10.64h-3.23Z"/><path class="cls-1" d="m493.48,148.67h-5.11v8.94c0,1.31,1.06,2.02,2.38,2.02.67,0,1.28-.07,1.77-.25l-.64,2.87c-.35.1-.81.14-1.45.14-2.91,0-5.25-1.7-5.25-4.89v-8.83h-3.16v-2.59h3.16v-3.26l3.19-1.67v4.93h5.67l-.57,2.59Z"/><path class="cls-1" d="m508.01,162.53c-1.1-.25-1.99-1.06-2.34-2.06-1.13,1.49-2.77,2.06-4.5,2.06-3.19,0-5.18-2.34-5.18-4.93,0-3.12,2.55-4.89,5.28-5.14l3.76-.36v-1.03c0-1.45-.85-2.62-3.12-2.62-1.6,0-3.26.5-4.43,1.28l-.64-2.66c1.45-.96,3.3-1.38,5.25-1.38,3.58,0,6.17,2.02,6.17,5.82v6.49c0,1.45.78,2.3,1.81,2.48l-2.06,2.06Zm-2.98-7.77l-3.19.28c-1.91.18-2.77,1.42-2.77,2.59s.96,2.16,2.24,2.16c1.7,0,3.72-1.6,3.72-3.62v-1.42Z"/><path class="cls-1" d="m521.78,148.59c-2.59,0-5.71,1.38-5.71,5.96v7.59h-3.23v-16.07h3.05l.14,2.52c.85-1.99,3.05-2.73,5.46-2.73l.6,2.73h-.32Z"/><path class="cls-1" d="m526.57,142.99c-.64,0-1.95-1.31-1.95-1.95,0-.68,1.31-1.99,1.95-1.99.67,0,1.99,1.31,1.99,1.99,0,.64-1.31,1.95-1.99,1.95Zm-1.63,19.15v-16.07h3.26v16.07h-3.26Z"/><path class="cls-1" d="m540.58,162.53c-4.79,0-8.55-3.44-8.55-8.4s3.76-8.44,8.55-8.44,8.51,3.44,8.51,8.44-3.72,8.4-8.51,8.4Zm0-14.01c-2.84,0-5.28,2.24-5.28,5.6s2.45,5.57,5.28,5.57,5.25-2.23,5.25-5.57-2.45-5.6-5.25-5.6Z"/><path class="cls-1" d="m145.88,236.25l4.33-11.26h1.61l4.61,11.26h-1.7l-1.31-3.41h-4.71l-1.24,3.41h-1.58Zm3.25-4.63h3.82l-1.18-3.12c-.36-.95-.62-1.73-.8-2.34-.14.72-.35,1.44-.61,2.15l-1.24,3.31Z"/><path class="cls-1" d="m157.44,236.25v-8.16h1.24v1.16c.6-.9,1.47-1.34,2.6-1.34.49,0,.94.09,1.36.27.41.18.72.41.93.69.2.29.35.63.43,1.02.05.25.08.7.08,1.34v5.02h-1.38v-4.96c0-.56-.05-.98-.16-1.26s-.3-.5-.57-.67c-.27-.17-.6-.25-.96-.25-.59,0-1.1.19-1.53.56s-.64,1.08-.64,2.13v4.46h-1.38Z"/><path class="cls-1" d="m175.89,235.24c-.51.44-1.01.74-1.48.92-.47.18-.98.27-1.53.27-.9,0-1.59-.22-2.07-.66s-.72-1-.72-1.68c0-.4.09-.76.27-1.09s.42-.6.71-.8c.29-.2.63-.35.99-.45.27-.07.68-.14,1.23-.21,1.12-.13,1.94-.29,2.47-.48,0-.19,0-.31,0-.36,0-.56-.13-.96-.39-1.19-.35-.31-.88-.47-1.58-.47-.65,0-1.13.11-1.44.34-.31.23-.54.63-.69,1.21l-1.35-.19c.12-.58.32-1.05.61-1.4s.69-.63,1.22-.82c.53-.19,1.15-.29,1.85-.29s1.26.08,1.7.25.76.37.96.62.35.56.43.94c.05.24.07.66.07,1.28v1.84c0,1.29.03,2.1.09,2.44.06.34.18.67.35.98h-1.44c-.14-.29-.24-.62-.28-1.01Zm-.12-3.09c-.5.21-1.26.38-2.26.52-.57.08-.97.17-1.21.28-.24.1-.42.25-.55.45-.13.2-.19.42-.19.66,0,.37.14.68.42.92.28.24.69.37,1.23.37s1.01-.12,1.42-.35c.41-.23.72-.55.91-.96.15-.31.22-.77.22-1.38v-.51Z"/><path class="cls-1" d="m179.06,236.93l1.34.2c.06.42.21.72.47.91.34.26.81.39,1.41.39.64,0,1.13-.13,1.48-.39.35-.25.58-.61.71-1.08.07-.28.1-.87.1-1.78-.6.71-1.36,1.07-2.26,1.07-1.12,0-1.99-.4-2.6-1.21-.62-.81-.92-1.78-.92-2.91,0-.78.14-1.5.42-2.16.28-.66.69-1.17,1.23-1.53.53-.36,1.16-.54,1.89-.54.96,0,1.76.39,2.38,1.17v-.98h1.28v7.05c0,1.27-.13,2.17-.39,2.7-.26.53-.67.95-1.23,1.25-.56.31-1.25.46-2.07.46-.97,0-1.76-.22-2.36-.66s-.89-1.1-.87-1.98Zm1.14-4.9c0,1.07.21,1.85.64,2.34.42.49.96.74,1.6.74s1.17-.24,1.6-.73c.43-.49.65-1.26.65-2.3s-.22-1.75-.66-2.26c-.44-.51-.98-.76-1.6-.76s-1.14.25-1.57.75-.65,1.24-.65,2.23Z"/><path class="cls-1" d="m193.65,233.62l1.43.18c-.23.83-.64,1.48-1.25,1.94-.61.46-1.39.69-2.34.69-1.19,0-2.14-.37-2.84-1.1-.7-.73-1.05-1.77-1.05-3.09s.35-2.44,1.06-3.2c.71-.76,1.62-1.14,2.75-1.14s1.98.37,2.67,1.11c.69.74,1.04,1.79,1.04,3.13,0,.08,0,.21,0,.37h-6.09c.05.9.3,1.58.76,2.06.46.48,1.02.71,1.71.71.51,0,.94-.13,1.3-.4.36-.27.64-.69.85-1.28Zm-4.54-2.24h4.56c-.06-.69-.24-1.2-.52-1.54-.44-.53-1.01-.8-1.71-.8-.63,0-1.17.21-1.6.64-.43.42-.67.99-.72,1.71Z"/><path class="cls-1" d="m196.82,236.25v-8.16h1.24v1.16c.6-.9,1.47-1.34,2.6-1.34.49,0,.94.09,1.36.27.41.18.72.41.93.69.2.29.35.63.43,1.02.05.25.08.7.08,1.34v5.02h-1.38v-4.96c0-.56-.05-.98-.16-1.26s-.3-.5-.57-.67c-.27-.17-.6-.25-.96-.25-.59,0-1.1.19-1.53.56s-.64,1.08-.64,2.13v4.46h-1.38Z"/><path class="cls-1" d="m210.9,233.26l1.36.18c-.15.94-.53,1.67-1.14,2.2-.61.53-1.36.8-2.26.8-1.12,0-2.01-.36-2.69-1.1-.68-.73-1.02-1.78-1.02-3.14,0-.88.15-1.65.44-2.31.29-.66.74-1.16,1.33-1.49.6-.33,1.25-.5,1.95-.5.89,0,1.61.22,2.17.67s.93,1.08,1.08,1.91l-1.34.21c-.13-.55-.36-.96-.68-1.24-.32-.28-.72-.42-1.18-.42-.7,0-1.26.25-1.7.75-.44.5-.65,1.29-.65,2.37s.21,1.89.63,2.39c.42.5.97.75,1.64.75.54,0,1-.17,1.36-.5s.59-.84.69-1.54Z"/><path class="cls-1" d="m213.38,239.39l-.15-1.3c.3.08.57.12.79.12.31,0,.55-.05.74-.15.19-.1.34-.25.45-.43.09-.14.23-.48.42-1.03.03-.08.07-.19.12-.34l-3.1-8.18h1.49l1.7,4.73c.22.6.42,1.23.59,1.89.16-.64.35-1.25.57-1.86l1.74-4.76h1.38l-3.1,8.3c-.33.9-.59,1.51-.78,1.85-.25.46-.53.79-.84,1s-.7.32-1.14.32c-.27,0-.56-.06-.89-.17Z"/><path class="cls-1" d="m225.17,232.17c0-1.51.42-2.63,1.26-3.36.7-.6,1.56-.91,2.57-.91,1.12,0,2.04.37,2.75,1.1.71.74,1.07,1.75,1.07,3.05,0,1.05-.16,1.88-.47,2.48s-.77,1.07-1.38,1.4c-.6.33-1.26.5-1.97.5-1.14,0-2.07-.37-2.77-1.1-.71-.73-1.06-1.79-1.06-3.17Zm1.42,0c0,1.05.23,1.83.68,2.35.46.52,1.03.78,1.72.78s1.26-.26,1.71-.78c.46-.52.68-1.32.68-2.39,0-1.01-.23-1.78-.69-2.29-.46-.52-1.03-.78-1.71-.78s-1.27.26-1.72.77c-.46.52-.68,1.3-.68,2.34Z"/><path class="cls-1" d="m234.76,236.25v-7.08h-1.22v-1.08h1.22v-.87c0-.55.05-.96.15-1.22.13-.36.37-.65.7-.87.34-.22.81-.33,1.41-.33.39,0,.82.05,1.29.14l-.21,1.21c-.29-.05-.56-.08-.82-.08-.42,0-.72.09-.89.27-.17.18-.26.51-.26,1.01v.75h1.59v1.08h-1.59v7.08h-1.38Z"/><path class="cls-1" d="m246.2,235.01l.2,1.22c-.39.08-.74.12-1.04.12-.5,0-.89-.08-1.17-.24s-.47-.37-.58-.63c-.11-.26-.17-.8-.17-1.63v-4.69h-1.01v-1.08h1.01v-2.02l1.38-.83v2.85h1.39v1.08h-1.39v4.77c0,.39.02.65.07.76.05.11.13.2.24.27s.27.1.47.1c.15,0,.36-.02.61-.05Z"/><path class="cls-1" d="m247.55,236.25v-11.26h1.38v4.04c.64-.75,1.46-1.12,2.44-1.12.6,0,1.13.12,1.58.36.45.24.76.57.96.99.19.42.29,1.03.29,1.83v5.17h-1.38v-5.17c0-.69-.15-1.2-.45-1.51-.3-.32-.72-.47-1.27-.47-.41,0-.8.11-1.16.32s-.62.5-.77.86c-.15.36-.23.87-.23,1.51v4.46h-1.38Z"/><path class="cls-1" d="m261.89,233.62l1.43.18c-.23.83-.64,1.48-1.25,1.94-.61.46-1.39.69-2.34.69-1.19,0-2.14-.37-2.84-1.1-.7-.73-1.05-1.77-1.05-3.09s.35-2.44,1.06-3.2c.71-.76,1.62-1.14,2.75-1.14s1.98.37,2.67,1.11c.69.74,1.04,1.79,1.04,3.13,0,.08,0,.21,0,.37h-6.09c.05.9.3,1.58.76,2.06.46.48,1.02.71,1.71.71.51,0,.94-.13,1.3-.4.36-.27.64-.69.85-1.28Zm-4.54-2.24h4.56c-.06-.69-.24-1.2-.52-1.54-.44-.53-1.01-.8-1.71-.8-.63,0-1.17.21-1.6.64-.43.42-.67.99-.72,1.71Z"/><path class="cls-1" d="m274.87,231.83v-1.32h4.77s0,4.17,0,4.17c-.73.58-1.49,1.02-2.27,1.32-.78.29-1.58.44-2.4.44-1.11,0-2.11-.24-3.02-.71-.9-.47-1.59-1.16-2.05-2.06-.46-.9-.69-1.9-.69-3s.23-2.12.69-3.07c.46-.95,1.12-1.66,1.98-2.12s1.85-.69,2.97-.69c.81,0,1.55.13,2.21.39.66.27,1.17.63,1.55,1.1.37.47.66,1.09.85,1.84l-1.34.37c-.17-.57-.38-1.02-.63-1.35s-.61-.59-1.08-.79c-.47-.2-.98-.3-1.55-.3-.68,0-1.27.1-1.77.31-.5.21-.9.48-1.2.82-.3.34-.54.71-.71,1.11-.29.7-.43,1.45-.43,2.27,0,1,.17,1.84.52,2.52.35.68.85,1.18,1.51,1.51.66.33,1.36.49,2.11.49.65,0,1.28-.13,1.89-.37.62-.25,1.08-.51,1.4-.8v-2.1h-3.31Z"/><path class="cls-1" d="m281.15,232.17c0-1.51.42-2.63,1.26-3.36.7-.6,1.56-.91,2.57-.91,1.12,0,2.04.37,2.75,1.1.71.74,1.07,1.75,1.07,3.05,0,1.05-.16,1.88-.47,2.48s-.77,1.07-1.38,1.4c-.6.33-1.26.5-1.97.5-1.14,0-2.07-.37-2.77-1.1-.71-.73-1.06-1.79-1.06-3.17Zm1.42,0c0,1.05.23,1.83.68,2.35.46.52,1.03.78,1.72.78s1.26-.26,1.71-.78c.46-.52.68-1.32.68-2.39,0-1.01-.23-1.78-.69-2.29-.46-.52-1.03-.78-1.71-.78s-1.27.26-1.72.77c-.46.52-.68,1.3-.68,2.34Z"/><path class="cls-1" d="m292.69,236.25l-3.1-8.16h1.46l1.75,4.89c.19.53.36,1.08.52,1.65.12-.43.29-.95.51-1.55l1.81-4.98h1.42l-3.09,8.16h-1.29Z"/><path class="cls-1" d="m303.88,233.62l1.43.18c-.23.83-.64,1.48-1.25,1.94-.61.46-1.39.69-2.34.69-1.19,0-2.14-.37-2.84-1.1-.7-.73-1.05-1.77-1.05-3.09s.35-2.44,1.06-3.2c.71-.76,1.62-1.14,2.75-1.14s1.98.37,2.67,1.11c.69.74,1.04,1.79,1.04,3.13,0,.08,0,.21,0,.37h-6.09c.05.9.31,1.58.76,2.06s1.02.71,1.71.71c.51,0,.94-.13,1.3-.4.36-.27.64-.69.85-1.28Zm-4.54-2.24h4.56c-.06-.69-.24-1.2-.52-1.54-.44-.53-1.01-.8-1.71-.8-.64,0-1.17.21-1.6.64-.43.42-.67.99-.72,1.71Z"/><path class="cls-1" d="m307.03,236.25v-8.16h1.24v1.24c.32-.58.61-.96.88-1.14.27-.18.56-.28.89-.28.47,0,.94.15,1.42.45l-.48,1.28c-.34-.2-.68-.3-1.01-.3-.3,0-.57.09-.82.27s-.41.43-.51.76c-.15.49-.23,1.03-.23,1.61v4.27h-1.38Z"/><path class="cls-1" d="m312.28,236.25v-8.16h1.25v1.16c.6-.9,1.46-1.34,2.6-1.34.49,0,.94.09,1.36.27.41.18.72.41.93.69.21.29.35.63.43,1.02.05.25.08.7.08,1.34v5.02h-1.38v-4.96c0-.56-.05-.98-.16-1.26s-.3-.5-.57-.67c-.27-.17-.6-.25-.97-.25-.59,0-1.1.19-1.53.56-.43.37-.64,1.08-.64,2.13v4.46h-1.38Z"/><path class="cls-1" d="m321.03,236.25v-8.16h1.24v1.14c.26-.4.6-.72,1.02-.96.42-.24.91-.36,1.45-.36.6,0,1.1.13,1.49.38.39.25.66.6.82,1.05.64-.95,1.49-1.43,2.52-1.43.81,0,1.43.22,1.87.67.43.45.65,1.14.65,2.07v5.6h-1.38v-5.14c0-.55-.05-.95-.13-1.2-.09-.24-.25-.44-.49-.59s-.51-.22-.83-.22c-.57,0-1.05.19-1.43.57-.38.38-.57.99-.57,1.83v4.74h-1.38v-5.3c0-.61-.11-1.08-.34-1.38s-.6-.46-1.11-.46c-.39,0-.75.1-1.08.31-.33.2-.57.5-.72.9-.15.39-.22.96-.22,1.71v4.23h-1.38Z"/><path class="cls-1" d="m339.73,233.62l1.43.18c-.23.83-.64,1.48-1.25,1.94-.61.46-1.39.69-2.34.69-1.19,0-2.14-.37-2.84-1.1-.7-.73-1.05-1.77-1.05-3.09s.35-2.44,1.06-3.2c.71-.76,1.62-1.14,2.75-1.14s1.98.37,2.67,1.11c.69.74,1.04,1.79,1.04,3.13,0,.08,0,.21,0,.37h-6.09c.05.9.31,1.58.76,2.06s1.02.71,1.71.71c.51,0,.94-.13,1.3-.4.36-.27.64-.69.85-1.28Zm-4.54-2.24h4.56c-.06-.69-.24-1.2-.52-1.54-.44-.53-1.01-.8-1.71-.8-.64,0-1.17.21-1.6.64-.43.42-.67.99-.72,1.71Z"/><path class="cls-1" d="m342.89,236.25v-8.16h1.25v1.16c.6-.9,1.46-1.34,2.6-1.34.49,0,.94.09,1.36.27.41.18.72.41.93.69.21.29.35.63.43,1.02.05.25.08.7.08,1.34v5.02h-1.38v-4.96c0-.56-.05-.98-.16-1.26s-.3-.5-.57-.67c-.27-.17-.6-.25-.97-.25-.59,0-1.1.19-1.53.56-.43.37-.64,1.08-.64,2.13v4.46h-1.38Z"/><path class="cls-1" d="m354.67,235.01l.2,1.22c-.39.08-.74.12-1.05.12-.5,0-.89-.08-1.17-.24-.28-.16-.47-.37-.58-.63-.11-.26-.17-.8-.17-1.63v-4.69h-1.02v-1.08h1.02v-2.02l1.38-.83v2.85h1.39v1.08h-1.39v4.77c0,.39.02.65.07.76.05.11.13.2.24.27s.27.1.47.1c.15,0,.36-.02.61-.05Z"/><path class="cls-1" d="m359.88,232.17c0-1.51.42-2.63,1.26-3.36.7-.6,1.56-.91,2.57-.91,1.12,0,2.04.37,2.75,1.1.71.74,1.07,1.75,1.07,3.05,0,1.05-.16,1.88-.47,2.48-.31.6-.77,1.07-1.38,1.4-.6.33-1.26.5-1.97.5-1.14,0-2.07-.37-2.77-1.1-.71-.73-1.06-1.79-1.06-3.17Zm1.42,0c0,1.05.23,1.83.68,2.35.46.52,1.03.78,1.72.78s1.26-.26,1.71-.78c.46-.52.68-1.32.68-2.39,0-1.01-.23-1.78-.69-2.29-.46-.52-1.03-.78-1.71-.78s-1.27.26-1.72.77c-.46.52-.68,1.3-.68,2.34Z"/><path class="cls-1" d="m369.48,236.25v-7.08h-1.22v-1.08h1.22v-.87c0-.55.05-.96.14-1.22.13-.36.37-.65.7-.87s.81-.33,1.41-.33c.39,0,.82.05,1.29.14l-.21,1.21c-.29-.05-.56-.08-.82-.08-.42,0-.72.09-.89.27-.17.18-.26.51-.26,1.01v.75h1.59v1.08h-1.59v7.08h-1.38Z"/><path class="cls-1" d="m377.61,230.76c0-1.87.5-3.33,1.51-4.39,1-1.06,2.3-1.59,3.89-1.59,1.04,0,1.98.25,2.81.75.83.5,1.47,1.19,1.91,2.08s.66,1.9.66,3.02-.23,2.16-.69,3.06c-.46.9-1.11,1.58-1.96,2.05-.85.46-1.76.69-2.74.69-1.06,0-2.01-.26-2.84-.77-.83-.51-1.47-1.21-1.9-2.1-.43-.89-.65-1.82-.65-2.81Zm1.54.02c0,1.36.37,2.43,1.1,3.21.73.78,1.65,1.17,2.75,1.17s2.05-.39,2.77-1.18,1.09-1.91,1.09-3.36c0-.92-.16-1.72-.46-2.4-.31-.68-.76-1.21-1.36-1.59s-1.27-.57-2.01-.57c-1.06,0-1.96.36-2.72,1.09-.76.73-1.14,1.94-1.14,3.63Z"/><path class="cls-1" d="m390.13,236.25v-8.16h1.25v1.16c.6-.9,1.46-1.34,2.6-1.34.49,0,.94.09,1.36.27.41.18.72.41.93.69.21.29.35.63.43,1.02.05.25.08.7.08,1.34v5.02h-1.38v-4.96c0-.56-.05-.98-.16-1.26s-.3-.5-.57-.67c-.27-.17-.6-.25-.97-.25-.59,0-1.1.19-1.53.56-.43.37-.64,1.08-.64,2.13v4.46h-1.38Z"/><path class="cls-1" d="m401.9,235.01l.2,1.22c-.39.08-.74.12-1.05.12-.5,0-.89-.08-1.17-.24-.28-.16-.47-.37-.58-.63-.11-.26-.17-.8-.17-1.63v-4.69h-1.02v-1.08h1.02v-2.02l1.38-.83v2.85h1.39v1.08h-1.39v4.77c0,.39.02.65.07.76.05.11.13.2.24.27s.27.1.47.1c.15,0,.36-.02.61-.05Z"/><path class="cls-1" d="m408.58,235.24c-.51.44-1.01.74-1.48.92-.47.18-.98.27-1.53.27-.9,0-1.58-.22-2.07-.66s-.72-1-.72-1.68c0-.4.09-.76.27-1.09s.42-.6.72-.8c.29-.2.62-.35.99-.45.27-.07.68-.14,1.23-.21,1.12-.13,1.94-.29,2.47-.48,0-.19,0-.31,0-.36,0-.56-.13-.96-.39-1.19-.35-.31-.88-.47-1.57-.47-.65,0-1.13.11-1.44.34-.31.23-.54.63-.69,1.21l-1.35-.19c.12-.58.33-1.05.61-1.4s.69-.63,1.22-.82,1.15-.29,1.85-.29,1.26.08,1.7.25c.44.16.76.37.96.62.2.25.35.56.43.94.05.24.07.66.07,1.28v1.84c0,1.29.03,2.1.09,2.44.06.34.18.67.35.98h-1.45c-.14-.29-.24-.62-.28-1.01Zm-.12-3.09c-.5.21-1.25.38-2.26.52-.57.08-.97.17-1.21.28-.24.1-.42.25-.55.45-.13.2-.19.42-.19.66,0,.37.14.68.42.92.28.24.69.37,1.23.37s1.01-.12,1.42-.35c.42-.23.72-.55.91-.96.15-.31.22-.77.22-1.38v-.51Z"/><path class="cls-1" d="m411.99,236.25v-8.16h1.24v1.24c.32-.58.61-.96.88-1.14.27-.18.56-.28.89-.28.47,0,.94.15,1.42.45l-.48,1.28c-.34-.2-.68-.3-1.01-.3-.3,0-.57.09-.82.27s-.41.43-.51.76c-.15.49-.23,1.03-.23,1.61v4.27h-1.38Z"/><path class="cls-1" d="m417.26,226.58v-1.59h1.38v1.59h-1.38Zm0,9.67v-8.16h1.38v8.16h-1.38Z"/><path class="cls-1" d="m420.23,232.17c0-1.51.42-2.63,1.26-3.36.7-.6,1.56-.91,2.57-.91,1.12,0,2.04.37,2.75,1.1.71.74,1.07,1.75,1.07,3.05,0,1.05-.16,1.88-.47,2.48-.31.6-.77,1.07-1.38,1.4-.6.33-1.26.5-1.97.5-1.14,0-2.07-.37-2.77-1.1-.71-.73-1.06-1.79-1.06-3.17Zm1.42,0c0,1.05.23,1.83.68,2.35.46.52,1.03.78,1.72.78s1.26-.26,1.71-.78c.46-.52.68-1.32.68-2.39,0-1.01-.23-1.78-.69-2.29-.46-.52-1.03-.78-1.71-.78s-1.27.26-1.72.77c-.46.52-.68,1.3-.68,2.34Z"/><path class="cls-1" d="m140.95,250.01h1.49v6.51c0,1.13-.13,2.03-.38,2.7-.26.67-.72,1.21-1.39,1.62-.67.42-1.55.63-2.63.63s-1.92-.18-2.59-.55c-.67-.36-1.15-.89-1.44-1.58-.29-.69-.43-1.63-.43-2.82v-6.51h1.49v6.5c0,.98.09,1.7.27,2.16.18.46.49.82.94,1.07.44.25.98.38,1.62.38,1.1,0,1.88-.25,2.34-.75.47-.5.7-1.45.7-2.87v-6.5Z"/><path class="cls-1" d="m144.75,261.27v-8.16h1.24v1.16c.6-.9,1.47-1.34,2.6-1.34.49,0,.94.09,1.36.27.41.18.72.41.93.69.2.29.35.63.43,1.02.05.25.08.7.08,1.34v5.02h-1.38v-4.96c0-.56-.05-.98-.16-1.26s-.3-.5-.57-.67c-.27-.17-.6-.25-.96-.25-.59,0-1.1.19-1.53.56s-.64,1.08-.64,2.13v4.46h-1.38Z"/><path class="cls-1" d="m157.36,257.19c0-1.51.42-2.63,1.26-3.36.7-.6,1.56-.91,2.57-.91,1.12,0,2.04.37,2.75,1.1.71.74,1.07,1.75,1.07,3.05,0,1.05-.16,1.88-.47,2.48s-.77,1.07-1.38,1.4c-.6.33-1.26.5-1.97.5-1.14,0-2.07-.37-2.77-1.1-.71-.73-1.06-1.79-1.06-3.17Zm1.42,0c0,1.05.23,1.83.68,2.35.46.52,1.03.78,1.72.78s1.26-.26,1.71-.78c.46-.52.68-1.32.68-2.39,0-1.01-.23-1.78-.69-2.29-.46-.52-1.03-.78-1.71-.78s-1.27.26-1.72.77c-.46.52-.68,1.3-.68,2.34Z"/><path class="cls-1" d="m166.61,261.27v-8.16h1.25v1.24c.32-.58.61-.96.88-1.14.27-.18.56-.28.89-.28.47,0,.94.15,1.42.45l-.48,1.28c-.34-.2-.68-.3-1.01-.3-.3,0-.57.09-.82.27s-.41.43-.51.76c-.15.49-.23,1.03-.23,1.61v4.27h-1.38Z"/><path class="cls-1" d="m171.61,261.95l1.34.2c.06.42.21.72.47.91.34.26.81.39,1.41.39.64,0,1.13-.13,1.48-.39.35-.25.58-.61.71-1.08.07-.28.1-.87.1-1.78-.6.71-1.36,1.07-2.26,1.07-1.12,0-1.99-.4-2.6-1.21-.62-.81-.92-1.78-.92-2.91,0-.78.14-1.5.42-2.16.28-.66.69-1.17,1.23-1.53.53-.36,1.16-.54,1.89-.54.96,0,1.76.39,2.38,1.17v-.98h1.28v7.05c0,1.27-.13,2.17-.39,2.7-.26.53-.67.95-1.23,1.25-.56.31-1.25.46-2.07.46-.97,0-1.76-.22-2.36-.66s-.89-1.1-.87-1.98Zm1.14-4.9c0,1.07.21,1.85.64,2.34.42.49.96.74,1.6.74s1.17-.24,1.6-.73c.43-.49.65-1.26.65-2.3s-.22-1.75-.66-2.26c-.44-.51-.98-.76-1.6-.76s-1.14.25-1.57.75-.65,1.24-.65,2.23Z"/><path class="cls-1" d="m185.94,260.26c-.51.44-1.01.74-1.48.92-.47.18-.98.27-1.53.27-.9,0-1.59-.22-2.07-.66s-.72-1-.72-1.68c0-.4.09-.76.27-1.09s.42-.6.71-.8c.29-.2.63-.35.99-.45.27-.07.68-.14,1.23-.21,1.12-.13,1.94-.29,2.47-.48,0-.19,0-.31,0-.36,0-.56-.13-.96-.39-1.19-.35-.31-.88-.47-1.58-.47-.65,0-1.13.11-1.44.34-.31.23-.54.63-.69,1.21l-1.35-.19c.12-.58.32-1.05.61-1.4s.69-.63,1.22-.82c.53-.19,1.15-.29,1.85-.29s1.26.08,1.7.25.76.37.96.62.35.56.43.94c.05.24.07.66.07,1.28v1.84c0,1.29.03,2.1.09,2.44.06.34.18.67.35.98h-1.44c-.14-.29-.24-.62-.28-1.01Zm-.12-3.09c-.5.21-1.26.38-2.26.52-.57.08-.97.17-1.21.28-.24.1-.42.25-.55.45-.13.2-.19.42-.19.66,0,.37.14.68.42.92.28.24.69.37,1.23.37s1.01-.12,1.42-.35c.41-.23.72-.55.91-.96.15-.31.22-.77.22-1.38v-.51Z"/><path class="cls-1" d="m189.37,261.27v-8.16h1.24v1.16c.6-.9,1.47-1.34,2.6-1.34.49,0,.94.09,1.36.27.41.18.72.41.93.69.2.29.35.63.43,1.02.05.25.08.7.08,1.34v5.02h-1.38v-4.96c0-.56-.05-.98-.16-1.26s-.3-.5-.57-.67c-.27-.17-.6-.25-.96-.25-.59,0-1.1.19-1.53.56s-.64,1.08-.64,2.13v4.46h-1.38Z"/><path class="cls-1" d="m198.13,251.6v-1.59h1.38v1.59h-1.38Zm0,9.67v-8.16h1.38v8.16h-1.38Z"/><path class="cls-1" d="m201.06,258.83l1.37-.21c.08.55.29.97.64,1.26s.84.44,1.47.44,1.11-.13,1.41-.39.46-.56.46-.91c0-.31-.14-.56-.41-.74-.19-.12-.66-.28-1.41-.47-1.01-.26-1.72-.48-2.11-.66s-.69-.45-.89-.78c-.2-.33-.3-.69-.3-1.09,0-.36.08-.7.25-1.01s.39-.57.68-.77c.22-.16.51-.29.88-.4.37-.11.77-.16,1.19-.16.64,0,1.2.09,1.69.28.48.19.84.43,1.07.75.23.32.39.74.48,1.27l-1.35.18c-.06-.42-.24-.75-.53-.98-.29-.24-.71-.35-1.25-.35-.64,0-1.09.1-1.36.32-.27.21-.41.46-.41.74,0,.18.06.34.17.49.11.15.29.27.53.37.14.05.55.17,1.22.35.98.26,1.66.47,2.05.64.39.17.69.41.91.73.22.32.33.71.33,1.18s-.13.9-.4,1.3c-.27.41-.66.72-1.16.94s-1.08.34-1.72.34c-1.06,0-1.87-.22-2.42-.66s-.91-1.09-1.06-1.96Z"/><path class="cls-1" d="m209.49,261.27v-8.16h1.24v1.14c.26-.4.6-.72,1.02-.96.42-.24.91-.36,1.45-.36.6,0,1.1.13,1.49.38.39.25.66.6.82,1.05.65-.95,1.49-1.43,2.52-1.43.81,0,1.43.22,1.87.67s.65,1.14.65,2.07v5.6h-1.38v-5.14c0-.55-.05-.95-.14-1.2-.09-.24-.25-.44-.49-.59s-.51-.22-.83-.22c-.57,0-1.05.19-1.43.57-.38.38-.57.99-.57,1.83v4.74h-1.38v-5.3c0-.61-.11-1.08-.34-1.38-.23-.31-.59-.46-1.11-.46-.39,0-.75.1-1.08.31-.33.2-.57.5-.72.9s-.22.96-.22,1.71v4.23h-1.38Z"/><path class="cls-1" d="m228.18,258.64l1.43.18c-.23.83-.64,1.48-1.25,1.94-.61.46-1.39.69-2.34.69-1.19,0-2.14-.37-2.84-1.1-.7-.73-1.05-1.77-1.05-3.09s.35-2.44,1.06-3.2c.71-.76,1.62-1.14,2.75-1.14s1.98.37,2.67,1.11c.69.74,1.04,1.79,1.04,3.13,0,.08,0,.21,0,.37h-6.09c.05.9.3,1.58.76,2.06.46.48,1.02.71,1.71.71.51,0,.94-.13,1.3-.4.36-.27.64-.69.85-1.28Zm-4.54-2.24h4.56c-.06-.69-.24-1.2-.52-1.54-.44-.53-1.01-.8-1.71-.8-.63,0-1.17.21-1.6.64-.43.42-.67.99-.72,1.71Z"/><path class="cls-1" d="m241.01,261.27v-1.03c-.52.81-1.28,1.21-2.28,1.21-.65,0-1.25-.18-1.79-.54-.55-.36-.97-.86-1.27-1.5-.3-.64-.45-1.38-.45-2.22s.14-1.55.41-2.22c.27-.66.68-1.17,1.22-1.53.54-.35,1.15-.53,1.82-.53.49,0,.93.1,1.31.31.38.21.7.48.94.81v-4.04h1.38v11.26h-1.28Zm-4.37-4.07c0,1.04.22,1.83.66,2.34.44.52.96.78,1.56.78s1.12-.25,1.54-.74c.42-.49.63-1.25.63-2.26,0-1.12-.22-1.94-.65-2.46-.43-.52-.96-.78-1.59-.78s-1.13.25-1.54.75c-.41.5-.62,1.29-.62,2.38Z"/><path class="cls-1" d="m249.82,261.27v-1.2c-.64.92-1.5,1.38-2.59,1.38-.48,0-.93-.09-1.35-.28-.42-.18-.73-.42-.93-.69s-.34-.62-.43-1.03c-.06-.27-.08-.7-.08-1.29v-5.06h1.38v4.53c0,.72.03,1.21.08,1.46.09.36.27.65.55.86s.63.31,1.05.31.8-.11,1.17-.32c.36-.21.62-.5.77-.87s.23-.9.23-1.6v-4.37h1.38v8.16h-1.24Z"/><path class="cls-1" d="m257.34,261.95l1.34.2c.06.42.21.72.47.91.34.26.81.39,1.41.39.64,0,1.13-.13,1.48-.39.35-.25.58-.61.71-1.08.07-.28.1-.87.1-1.78-.6.71-1.36,1.07-2.26,1.07-1.12,0-1.99-.4-2.6-1.21-.62-.81-.92-1.78-.92-2.91,0-.78.14-1.5.42-2.16.28-.66.69-1.17,1.23-1.53.53-.36,1.16-.54,1.89-.54.96,0,1.76.39,2.38,1.17v-.98h1.28v7.05c0,1.27-.13,2.17-.39,2.7-.26.53-.67.95-1.23,1.25-.56.31-1.25.46-2.07.46-.97,0-1.76-.22-2.36-.66s-.89-1.1-.87-1.98Zm1.14-4.9c0,1.07.21,1.85.64,2.34.42.49.96.74,1.6.74s1.17-.24,1.6-.73c.43-.49.65-1.26.65-2.3s-.22-1.75-.66-2.26c-.44-.51-.98-.76-1.6-.76s-1.14.25-1.57.75-.65,1.24-.65,2.23Z"/><path class="cls-1" d="m265.83,257.19c0-1.51.42-2.63,1.26-3.36.7-.6,1.56-.91,2.57-.91,1.12,0,2.04.37,2.75,1.1.71.74,1.07,1.75,1.07,3.05,0,1.05-.16,1.88-.47,2.48s-.77,1.07-1.38,1.4c-.6.33-1.26.5-1.97.5-1.14,0-2.07-.37-2.77-1.1-.71-.73-1.06-1.79-1.06-3.17Zm1.42,0c0,1.05.23,1.83.68,2.35.46.52,1.03.78,1.72.78s1.26-.26,1.71-.78c.46-.52.68-1.32.68-2.39,0-1.01-.23-1.78-.69-2.29-.46-.52-1.03-.78-1.71-.78s-1.27.26-1.72.77c-.46.52-.68,1.3-.68,2.34Z"/><path class="cls-1" d="m280.45,261.27v-1.2c-.64.92-1.5,1.38-2.59,1.38-.48,0-.93-.09-1.35-.28-.42-.18-.73-.42-.93-.69s-.34-.62-.43-1.03c-.06-.27-.08-.7-.08-1.29v-5.06h1.38v4.53c0,.72.03,1.21.08,1.46.09.36.27.65.55.86s.63.31,1.05.31.8-.11,1.17-.32c.36-.21.62-.5.77-.87s.23-.9.23-1.6v-4.37h1.38v8.16h-1.24Z"/><path class="cls-1" d="m286.12,261.27l-3.1-8.16h1.46l1.75,4.89c.19.53.36,1.08.52,1.65.12-.43.29-.95.51-1.55l1.81-4.98h1.43l-3.09,8.16h-1.29Z"/><path class="cls-1" d="m297.31,258.64l1.43.18c-.23.83-.64,1.48-1.25,1.94-.61.46-1.39.69-2.34.69-1.19,0-2.14-.37-2.84-1.1-.7-.73-1.05-1.77-1.05-3.09s.35-2.44,1.06-3.2c.71-.76,1.62-1.14,2.75-1.14s1.98.37,2.67,1.11c.69.74,1.04,1.79,1.04,3.13,0,.08,0,.21,0,.37h-6.09c.05.9.31,1.58.76,2.06s1.02.71,1.71.71c.51,0,.94-.13,1.3-.4.36-.27.64-.69.85-1.28Zm-4.54-2.24h4.56c-.06-.69-.24-1.2-.52-1.54-.44-.53-1.01-.8-1.71-.8-.64,0-1.17.21-1.6.64-.43.42-.67.99-.72,1.71Z"/><path class="cls-1" d="m300.46,261.27v-8.16h1.24v1.24c.32-.58.61-.96.88-1.14.27-.18.56-.28.89-.28.47,0,.94.15,1.42.45l-.48,1.28c-.34-.2-.68-.3-1.01-.3-.3,0-.57.09-.82.27s-.41.43-.51.76c-.15.49-.23,1.03-.23,1.61v4.27h-1.38Z"/><path class="cls-1" d="m305.71,261.27v-8.16h1.25v1.16c.6-.9,1.46-1.34,2.6-1.34.49,0,.94.09,1.36.27.41.18.72.41.93.69.21.29.35.63.43,1.02.05.25.08.7.08,1.34v5.02h-1.38v-4.96c0-.56-.05-.98-.16-1.26s-.3-.5-.57-.67c-.27-.17-.6-.25-.97-.25-.59,0-1.1.19-1.53.56-.43.37-.64,1.08-.64,2.13v4.46h-1.38Z"/><path class="cls-1" d="m320.05,258.64l1.43.18c-.23.83-.64,1.48-1.25,1.94-.61.46-1.39.69-2.34.69-1.19,0-2.14-.37-2.84-1.1-.7-.73-1.05-1.77-1.05-3.09s.35-2.44,1.06-3.2c.71-.76,1.62-1.14,2.75-1.14s1.98.37,2.67,1.11c.69.74,1.04,1.79,1.04,3.13,0,.08,0,.21,0,.37h-6.09c.05.9.31,1.58.76,2.06s1.02.71,1.71.71c.51,0,.94-.13,1.3-.4.36-.27.64-.69.85-1.28Zm-4.54-2.24h4.56c-.06-.69-.24-1.2-.52-1.54-.44-.53-1.01-.8-1.71-.8-.64,0-1.17.21-1.6.64-.43.42-.67.99-.72,1.71Z"/><path class="cls-1" d="m323.22,261.27v-8.16h1.24v1.14c.26-.4.6-.72,1.02-.96.42-.24.91-.36,1.45-.36.6,0,1.1.13,1.49.38.39.25.66.6.82,1.05.64-.95,1.49-1.43,2.52-1.43.81,0,1.43.22,1.87.67.43.45.65,1.14.65,2.07v5.6h-1.38v-5.14c0-.55-.05-.95-.13-1.2-.09-.24-.25-.44-.49-.59s-.51-.22-.83-.22c-.57,0-1.05.19-1.43.57-.38.38-.57.99-.57,1.83v4.74h-1.38v-5.3c0-.61-.11-1.08-.34-1.38s-.6-.46-1.11-.46c-.39,0-.75.1-1.08.31-.33.2-.57.5-.72.9-.15.39-.22.96-.22,1.71v4.23h-1.38Z"/><path class="cls-1" d="m341.91,258.64l1.43.18c-.23.83-.64,1.48-1.25,1.94-.61.46-1.39.69-2.34.69-1.19,0-2.14-.37-2.84-1.1-.7-.73-1.05-1.77-1.05-3.09s.35-2.44,1.06-3.2c.71-.76,1.62-1.14,2.75-1.14s1.98.37,2.67,1.11c.69.74,1.04,1.79,1.04,3.13,0,.08,0,.21,0,.37h-6.09c.05.9.31,1.58.76,2.06s1.02.71,1.71.71c.51,0,.94-.13,1.3-.4.36-.27.64-.69.85-1.28Zm-4.54-2.24h4.56c-.06-.69-.24-1.2-.52-1.54-.44-.53-1.01-.8-1.71-.8-.64,0-1.17.21-1.6.64-.43.42-.67.99-.72,1.71Z"/><path class="cls-1" d="m345.08,261.27v-8.16h1.25v1.16c.6-.9,1.46-1.34,2.6-1.34.49,0,.94.09,1.36.27.41.18.72.41.93.69.21.29.35.63.43,1.02.05.25.08.7.08,1.34v5.02h-1.38v-4.96c0-.56-.05-.98-.16-1.26s-.3-.5-.57-.67c-.27-.17-.6-.25-.97-.25-.59,0-1.1.19-1.53.56-.43.37-.64,1.08-.64,2.13v4.46h-1.38Z"/><path class="cls-1" d="m356.86,260.03l.2,1.22c-.39.08-.74.12-1.05.12-.5,0-.89-.08-1.17-.24-.28-.16-.47-.37-.58-.63-.11-.26-.17-.8-.17-1.63v-4.69h-1.02v-1.08h1.02v-2.02l1.38-.83v2.85h1.39v1.08h-1.39v4.77c0,.39.02.65.07.76.05.11.13.2.24.27s.27.1.47.1c.15,0,.36-.02.61-.05Z"/><path class="cls-1" d="m367.87,261.27v-1.03c-.52.81-1.28,1.21-2.28,1.21-.65,0-1.25-.18-1.79-.54-.54-.36-.97-.86-1.27-1.5-.3-.64-.45-1.38-.45-2.22s.14-1.55.41-2.22c.27-.66.68-1.17,1.22-1.53.54-.35,1.15-.53,1.82-.53.49,0,.93.1,1.31.31s.7.48.94.81v-4.04h1.38v11.26h-1.28Zm-4.37-4.07c0,1.04.22,1.83.66,2.34.44.52.96.78,1.56.78s1.12-.25,1.54-.74.63-1.25.63-2.26c0-1.12-.21-1.94-.65-2.46-.43-.52-.96-.78-1.59-.78s-1.13.25-1.54.75c-.41.5-.62,1.29-.62,2.38Z"/><path class="cls-1" d="m376.92,258.64l1.43.18c-.23.83-.64,1.48-1.25,1.94-.61.46-1.39.69-2.34.69-1.19,0-2.14-.37-2.84-1.1-.7-.73-1.05-1.77-1.05-3.09s.35-2.44,1.06-3.2c.71-.76,1.62-1.14,2.75-1.14s1.98.37,2.67,1.11c.69.74,1.04,1.79,1.04,3.13,0,.08,0,.21,0,.37h-6.09c.05.9.31,1.58.76,2.06s1.02.71,1.71.71c.51,0,.94-.13,1.3-.4.36-.27.64-.69.85-1.28Zm-4.54-2.24h4.56c-.06-.69-.24-1.2-.52-1.54-.44-.53-1.01-.8-1.71-.8-.64,0-1.17.21-1.6.64-.43.42-.67.99-.72,1.71Z"/><path class="cls-1" d="m384.42,261.27v-11.26h1.38v11.26h-1.38Z"/><path class="cls-1" d="m387.87,251.5v-1.61h1.48v1.27c0,.69-.08,1.18-.24,1.48-.22.42-.56.73-1.03.94l-.34-.55c.28-.11.48-.29.62-.53.14-.24.21-.58.23-1h-.72Z"/><path class="cls-1" d="m391.17,255.78c0-1.87.5-3.33,1.51-4.39,1-1.06,2.3-1.59,3.89-1.59,1.04,0,1.98.25,2.81.75.83.5,1.47,1.19,1.91,2.08s.66,1.9.66,3.02-.23,2.16-.69,3.06c-.46.9-1.11,1.58-1.96,2.05-.85.46-1.76.69-2.74.69-1.06,0-2.01-.26-2.84-.77-.83-.51-1.47-1.21-1.9-2.1-.43-.89-.65-1.82-.65-2.81Zm1.54.02c0,1.36.37,2.43,1.1,3.21.73.78,1.65,1.17,2.75,1.17s2.05-.39,2.77-1.18,1.09-1.91,1.09-3.36c0-.92-.16-1.72-.46-2.4-.31-.68-.76-1.21-1.36-1.59s-1.27-.57-2.01-.57c-1.06,0-1.96.36-2.72,1.09-.76.73-1.14,1.94-1.14,3.63Z"/><path class="cls-1" d="m403.69,261.27v-8.16h1.25v1.16c.6-.9,1.46-1.34,2.6-1.34.49,0,.94.09,1.36.27.41.18.72.41.93.69.21.29.35.63.43,1.02.05.25.08.7.08,1.34v5.02h-1.38v-4.96c0-.56-.05-.98-.16-1.26s-.3-.5-.57-.67c-.27-.17-.6-.25-.97-.25-.59,0-1.1.19-1.53.56-.43.37-.64,1.08-.64,2.13v4.46h-1.38Z"/><path class="cls-1" d="m415.46,260.03l.2,1.22c-.39.08-.74.12-1.05.12-.5,0-.89-.08-1.17-.24-.28-.16-.47-.37-.58-.63-.11-.26-.17-.8-.17-1.63v-4.69h-1.02v-1.08h1.02v-2.02l1.38-.83v2.85h1.39v1.08h-1.39v4.77c0,.39.02.65.07.76.05.11.13.2.24.27s.27.1.47.1c.15,0,.36-.02.61-.05Z"/><path class="cls-1" d="m422.14,260.26c-.51.44-1.01.74-1.48.92-.47.18-.98.27-1.53.27-.9,0-1.58-.22-2.07-.66s-.72-1-.72-1.68c0-.4.09-.76.27-1.09s.42-.6.72-.8c.29-.2.62-.35.99-.45.27-.07.68-.14,1.23-.21,1.12-.13,1.94-.29,2.47-.48,0-.19,0-.31,0-.36,0-.56-.13-.96-.39-1.19-.35-.31-.88-.47-1.57-.47-.65,0-1.13.11-1.44.34-.31.23-.54.63-.69,1.21l-1.35-.19c.12-.58.33-1.05.61-1.4s.69-.63,1.22-.82,1.15-.29,1.85-.29,1.26.08,1.7.25c.44.16.76.37.96.62.2.25.35.56.43.94.05.24.07.66.07,1.28v1.84c0,1.29.03,2.1.09,2.44.06.34.18.67.35.98h-1.45c-.14-.29-.24-.62-.28-1.01Zm-.12-3.09c-.5.21-1.25.38-2.26.52-.57.08-.97.17-1.21.28-.24.1-.42.25-.55.45-.13.2-.19.42-.19.66,0,.37.14.68.42.92.28.24.69.37,1.23.37s1.01-.12,1.42-.35c.42-.23.72-.55.91-.96.15-.31.22-.77.22-1.38v-.51Z"/><path class="cls-1" d="m425.55,261.27v-8.16h1.24v1.24c.32-.58.61-.96.88-1.14.27-.18.56-.28.89-.28.47,0,.94.15,1.42.45l-.48,1.28c-.34-.2-.68-.3-1.01-.3-.3,0-.57.09-.82.27s-.41.43-.51.76c-.15.49-.23,1.03-.23,1.61v4.27h-1.38Z"/><path class="cls-1" d="m430.81,251.6v-1.59h1.38v1.59h-1.38Zm0,9.67v-8.16h1.38v8.16h-1.38Z"/><path class="cls-1" d="m433.79,257.19c0-1.51.42-2.63,1.26-3.36.7-.6,1.56-.91,2.57-.91,1.12,0,2.04.37,2.75,1.1.71.74,1.07,1.75,1.07,3.05,0,1.05-.16,1.88-.47,2.48-.31.6-.77,1.07-1.38,1.4-.6.33-1.26.5-1.97.5-1.14,0-2.07-.37-2.77-1.1-.71-.73-1.06-1.79-1.06-3.17Zm1.42,0c0,1.05.23,1.83.68,2.35.46.52,1.03.78,1.72.78s1.26-.26,1.71-.78c.46-.52.68-1.32.68-2.39,0-1.01-.23-1.78-.69-2.29-.46-.52-1.03-.78-1.71-.78s-1.27.26-1.72.77c-.46.52-.68,1.3-.68,2.34Z"/></svg>