<?xml version="1.0" encoding="utf-8"?>
<!-- Generator: Adobe Illustrator 27.5.0, SVG Export Plug-In . SVG Version: 6.00 Build 0)  -->
<svg version="1.1" id="Layer_1" xmlns="http://www.w3.org/2000/svg" xmlns:xlink="http://www.w3.org/1999/xlink" x="0px" y="0px"
	 viewBox="0 0 2396 1080" style="enable-background:new 0 0 2396 1080;" xml:space="preserve">
<style type="text/css">
	.st0{fill:#FFFFFF;}
	.st1{fill:#4E738A;}
</style>
<polygon class="st0" points="99.3,216.3 59.3,216.3 59.3,189.6 168.3,189.6 168.3,216.3 128.3,216.3 128.3,321.4 99.3,321.4 "/>
<path class="st0" d="M245,323.6c-10.1,0-19.5-1.8-28-5.4c-8.5-3.6-15.9-8.4-22.1-14.5c-6.2-6.1-11.1-13.2-14.5-21.4
	c-3.4-8.2-5.2-17-5.2-26.4v-0.4c0-9.4,1.8-18.2,5.3-26.4c3.5-8.2,8.4-15.4,14.6-21.6c6.2-6.2,13.6-11.1,22.2-14.7
	c8.6-3.6,18-5.3,28.1-5.3c10.2,0,19.5,1.8,28,5.3c8.5,3.6,15.9,8.4,22.1,14.5c6.2,6.1,11,13.2,14.5,21.4c3.5,8.2,5.2,17,5.2,26.4
	v0.4c0,9.4-1.8,18.2-5.3,26.4c-3.5,8.2-8.3,15.4-14.6,21.6c-6.2,6.2-13.6,11.1-22.2,14.7C264.5,321.8,255.2,323.6,245,323.6
	 M245.4,296.9c5.9,0,11.3-1.1,16.1-3.2c4.8-2.1,9-5.1,12.4-8.9c3.5-3.8,6.1-8.1,8.1-13.1c1.9-5,2.9-10.3,2.9-15.9v-0.4
	c0-5.6-1-11-2.9-16c-2-5-4.7-9.4-8.3-13.2c-3.6-3.7-7.8-6.7-12.6-8.9c-4.8-2.2-10.1-3.3-16.1-3.3c-5.8,0-11.1,1.1-16,3.2
	c-4.9,2.1-9,5.1-12.5,8.8c-3.4,3.8-6.1,8.2-8.1,13.1c-1.9,5-2.9,10.3-2.9,15.9v0.4c0,5.7,1,11,2.9,16c2,5,4.7,9.4,8.3,13.2
	c3.5,3.7,7.8,6.7,12.7,8.9C234.3,295.8,239.6,296.9,245.4,296.9"/>
<path class="st0" d="M340.8,189.7H401c16.7,0,29.5,4.4,38.4,13.4c7.5,7.5,11.3,17.5,11.3,30.1v0.4c0,10.6-2.6,19.3-7.8,26.1
	c-5.2,6.7-12,11.6-20.4,14.7l32.2,47h-33.9l-28.2-42.1h-0.4h-22.4v42.1h-28.9V189.7z M399.1,253.6c7.2,0,12.6-1.7,16.5-5.1
	c3.8-3.4,5.7-7.9,5.7-13.5v-0.4c0-6.3-2-11-6-14.1c-4-3.1-9.6-4.7-16.7-4.7h-28.8v37.8H399.1z"/>
<path class="st0" d="M540.7,323.6c-10.1,0-19.5-1.8-28-5.4c-8.5-3.6-15.9-8.4-22.1-14.5c-6.2-6.1-11-13.2-14.5-21.4
	c-3.4-8.2-5.2-17-5.2-26.4v-0.4c0-9.4,1.8-18.2,5.3-26.4c3.5-8.2,8.4-15.4,14.6-21.6c6.2-6.2,13.6-11.1,22.2-14.7
	c8.6-3.6,18-5.3,28.1-5.3c10.2,0,19.5,1.8,28,5.3c8.5,3.6,15.9,8.4,22.1,14.5c6.2,6.1,11,13.2,14.5,21.4c3.5,8.2,5.2,17,5.2,26.4
	v0.4c0,9.4-1.7,18.2-5.3,26.4c-3.5,8.2-8.4,15.4-14.6,21.6c-6.2,6.2-13.6,11.1-22.2,14.7C560.2,321.8,550.9,323.6,540.7,323.6
	 M541.1,296.9c5.9,0,11.3-1.1,16.1-3.2c4.8-2.1,9-5.1,12.4-8.9c3.5-3.8,6.2-8.1,8.1-13.1c1.9-5,2.9-10.3,2.9-15.9v-0.4
	c0-5.6-1-11-2.9-16c-1.9-5-4.7-9.4-8.3-13.2c-3.6-3.7-7.8-6.7-12.6-8.9c-4.8-2.2-10.2-3.3-16.1-3.3c-5.8,0-11.1,1.1-16,3.2
	c-4.9,2.1-9,5.1-12.5,8.8c-3.4,3.8-6.1,8.2-8.1,13.1c-1.9,5-2.9,10.3-2.9,15.9v0.4c0,5.7,1,11,2.9,16c1.9,5,4.7,9.4,8.3,13.2
	c3.6,3.7,7.8,6.7,12.7,8.9C530,295.8,535.4,296.9,541.1,296.9"/>
<polygon class="st0" points="636.5,189.6 663.3,189.6 725,270.7 725,189.6 753.5,189.6 753.5,321.3 728.9,321.3 665.2,237.6 
	665.2,321.3 636.5,321.3 "/>
<polygon class="st0" points="815.8,216.3 775.7,216.3 775.7,189.6 884.8,189.6 884.8,216.3 844.8,216.3 844.8,321.4 815.8,321.4 "/>
<path class="st0" d="M961.5,323.6c-10.1,0-19.5-1.8-28-5.4c-8.5-3.6-15.9-8.4-22.1-14.5c-6.2-6.1-11-13.2-14.4-21.4
	c-3.5-8.2-5.2-17-5.2-26.4v-0.4c0-9.4,1.7-18.2,5.3-26.4c3.5-8.2,8.4-15.4,14.6-21.6c6.2-6.2,13.6-11.1,22.2-14.7
	c8.6-3.6,18-5.3,28.1-5.3c10.1,0,19.5,1.8,28,5.3c8.5,3.6,15.8,8.4,22,14.5c6.2,6.1,11,13.2,14.5,21.4c3.5,8.2,5.2,17,5.2,26.4v0.4
	c0,9.4-1.7,18.2-5.3,26.4c-3.5,8.2-8.4,15.4-14.6,21.6c-6.2,6.2-13.5,11.1-22.1,14.7C981,321.8,971.7,323.6,961.5,323.6
	 M961.9,296.9c5.9,0,11.2-1.1,16.1-3.2c4.8-2.1,8.9-5.1,12.4-8.9c3.5-3.8,6.2-8.1,8.1-13.1c1.9-5,2.9-10.3,2.9-15.9v-0.4
	c0-5.6-1-11-2.9-16c-1.9-5-4.7-9.4-8.3-13.2c-3.5-3.7-7.7-6.7-12.6-8.9c-4.8-2.2-10.2-3.3-16.1-3.3c-5.8,0-11.1,1.1-16,3.2
	c-4.9,2.1-9.1,5.1-12.5,8.8c-3.4,3.8-6.1,8.2-8.1,13.1c-1.9,5-2.9,10.3-2.9,15.9v0.4c0,5.7,1,11,2.9,16c1.9,5,4.7,9.4,8.3,13.2
	c3.6,3.7,7.8,6.7,12.7,8.9C950.8,295.8,956.1,296.9,961.9,296.9"/>
<path class="st0" d="M127.3,893.7c-9.6,0-18.6-1.8-26.9-5.3C92.2,884.9,85,880.1,79,874c-6-6.1-10.7-13.2-14.1-21.5
	c-3.4-8.3-5.1-17.1-5.1-26.5v-0.4c0-9.4,1.7-18.2,5.1-26.4c3.4-8.2,8.1-15.4,14.1-21.7c6-6.2,13.2-11.1,21.6-14.6
	c8.4-3.5,17.7-5.4,27.8-5.4c6.3,0,11.9,0.5,16.9,1.5c5,1,9.6,2.3,13.7,4.1c4.1,1.7,8,3.9,11.5,6.4c3.5,2.5,6.8,5.3,9.8,8.3L162,799
	c-5.1-4.7-10.4-8.3-15.7-10.9c-5.3-2.6-11.3-4-18-4c-5.5,0-10.6,1.1-15.3,3.2c-4.7,2.1-8.8,5.1-12.1,8.9c-3.4,3.7-6,8.1-7.9,13.1
	c-1.9,4.9-2.8,10.3-2.8,15.8v0.4c0,5.7,0.9,11,2.8,16.1c1.8,5,4.5,9.4,7.8,13.1c3.3,3.8,7.3,6.8,12,8.9c4.7,2.2,9.9,3.3,15.5,3.3
	c7.5,0,13.9-1.4,19.1-4.3c5.2-2.8,10.4-6.6,15.5-11.2l18.4,18.7c-3.4,3.6-6.9,6.9-10.5,9.8c-3.6,2.9-7.6,5.3-11.9,7.4
	c-4.3,2.1-9.1,3.6-14.2,4.7C139.5,893.1,133.7,893.7,127.3,893.7"/>
<path class="st0" d="M275.6,893.7c-10.1,0-19.5-1.9-28-5.4c-8.5-3.6-15.9-8.4-22.1-14.5c-6.2-6-11-13.2-14.5-21.4
	c-3.5-8.2-5.2-17-5.2-26.5v-0.4c0-9.4,1.8-18.2,5.3-26.4c3.5-8.2,8.4-15.4,14.6-21.7c6.2-6.2,13.6-11.1,22.2-14.6
	c8.6-3.5,18-5.4,28.1-5.4c10.2,0,19.5,1.8,28,5.4c8.5,3.6,15.9,8.4,22.1,14.5c6.2,6.1,11.1,13.2,14.5,21.5c3.5,8.2,5.2,17,5.2,26.5
	v0.3c0,9.4-1.7,18.3-5.2,26.5c-3.5,8.2-8.4,15.4-14.6,21.6c-6.2,6.2-13.6,11.1-22.2,14.6C295.2,891.9,285.8,893.7,275.6,893.7
	 M276,867c5.9,0,11.3-1.1,16.1-3.2c4.8-2.1,9-5.1,12.4-8.9c3.4-3.8,6.1-8.1,8.1-13c1.9-5,2.9-10.3,2.9-16v-0.4c0-5.6-1-10.9-2.9-16
	c-1.9-5-4.7-9.4-8.2-13.2c-3.6-3.7-7.8-6.7-12.6-9c-4.8-2.2-10.2-3.3-16.1-3.3c-5.8,0-11.1,1.1-16,3.2c-4.9,2.1-9,5.1-12.5,8.9
	c-3.5,3.7-6.1,8.1-8.1,13c-1.9,4.9-2.9,10.3-2.9,15.9v0.4c0,5.7,1,11,2.9,16c2,5,4.7,9.4,8.3,13.2c3.6,3.8,7.8,6.8,12.7,9
	C264.9,865.8,270.3,867,276,867"/>
<path class="st0" d="M437.5,893.4c-17.7,0-31.6-4.9-41.8-14.7c-10.1-9.9-15.3-24.5-15.3-43.8v-75.2h28.9v74.5
	c0,10.8,2.5,18.9,7.6,24.4c5,5.4,12,8.1,20.9,8.1c8.9,0,15.9-2.6,20.9-7.8c5-5.3,7.5-13.2,7.5-23.7v-75.5h28.9V834
	c0,9.9-1.3,18.6-4,26c-2.7,7.4-6.6,13.7-11.6,18.7c-5,4.9-11.1,8.6-18.2,11.1C454.4,892.2,446.4,893.4,437.5,893.4"/>
<polygon class="st0" points="539.5,759.7 566.3,759.7 627.9,840.8 627.9,759.7 656.5,759.7 656.5,891.4 631.9,891.4 568.1,807.7 
	568.1,891.4 539.5,891.4 "/>
<path class="st0" d="M764.7,893.7c-9.7,0-18.7-1.8-26.9-5.3c-8.3-3.5-15.4-8.3-21.4-14.4c-6-6.1-10.8-13.2-14.2-21.5
	c-3.4-8.3-5.1-17.1-5.1-26.5v-0.4c0-9.4,1.7-18.2,5.1-26.4c3.4-8.2,8.1-15.4,14.2-21.7c6-6.2,13.2-11.1,21.6-14.6
	c8.4-3.5,17.6-5.4,27.8-5.4c6.3,0,11.9,0.5,17,1.5c5,1,9.6,2.3,13.7,4.1c4.2,1.7,8,3.9,11.5,6.4c3.5,2.5,6.8,5.3,9.8,8.3L799.3,799
	c-5.1-4.7-10.4-8.3-15.7-10.9c-5.3-2.6-11.3-4-17.9-4c-5.6,0-10.6,1.1-15.3,3.2c-4.7,2.1-8.7,5.1-12.2,8.9c-3.3,3.7-6,8.1-7.8,13.1
	c-1.9,4.9-2.9,10.3-2.9,15.9v0.3c0,5.7,0.9,11,2.9,16.1c1.8,5,4.5,9.4,7.8,13.1c3.3,3.8,7.3,6.8,12,8.9c4.7,2.2,9.9,3.3,15.5,3.3
	c7.5,0,13.9-1.4,19.1-4.3c5.2-2.8,10.4-6.6,15.5-11.2l18.5,18.7c-3.4,3.6-6.9,6.9-10.5,9.8c-3.7,2.9-7.6,5.3-11.9,7.4
	c-4.3,2.1-9,3.6-14.2,4.7C776.9,893.1,771.1,893.7,764.7,893.7"/>
<rect x="854.2" y="759.7" class="st0" width="28.9" height="131.7"/>
<polygon class="st0" points="934.6,759.7 963.6,759.7 963.6,865.1 1029.2,865.1 1029.2,891.4 934.6,891.4 "/>
<rect x="58.7" y="958.1" class="st1" width="972.5" height="55.2"/>
<path class="st0" d="M359,401.1h124.6c34.5,0,61,9.2,79.4,27.7c15.6,15.6,23.4,36.4,23.4,62.3v0.8c0,22-5.4,40-16.1,53.9
	c-10.8,13.9-24.8,24.1-42.2,30.6l66.6,97.3h-70l-58.5-87.2h-0.8H419v87.2h-60V401.1z M479.7,533.6c14.8,0,26.2-3.5,34.1-10.5
	c7.9-7,11.9-16.3,11.9-28v-0.8c0-13-4.2-22.7-12.5-29.2c-8.3-6.5-19.9-9.7-34.7-9.7H419v78.2H479.7z"/>
<polygon class="st0" points="672.8,456.4 589.8,456.4 589.8,401.1 815.7,401.1 815.7,456.4 732.8,456.4 732.8,673.7 672.8,673.7 "/>
<path class="st0" d="M929.3,677.6c-20.8,0-41.2-3.5-61.1-10.6c-20-7.2-38.2-18.2-54.6-32.9l35.4-42.5c12.5,10.1,25.3,18.2,38.3,24.1
	c13.2,6,27.5,9,43,9c12.5,0,22.1-2.3,29-6.8c6.9-4.6,10.4-10.9,10.4-18.9v-0.8c0-3.9-0.7-7.3-2.1-10.3c-1.4-3-4.2-5.8-8.2-8.4
	c-4-2.6-9.6-5.2-16.7-7.8c-7.2-2.6-16.5-5.3-27.9-8.2c-13.8-3.6-26.2-7.5-37.4-11.5c-11.1-4-20.6-9.1-28.4-15.2
	c-7.8-6.1-13.8-13.7-18.1-22.8c-4.3-9.1-6.5-20.4-6.5-33.9v-0.8c0-12.4,2.3-23.7,7.1-33.7c4.6-10,11.2-18.6,19.6-25.9
	c8.5-7.3,18.5-12.9,30.2-16.7c11.7-3.9,24.6-5.8,38.6-5.8c20,0,38.3,3,55.1,8.9c16.8,6,32.2,14.5,46.2,25.7L990,477.1
	c-12.2-8.3-24.2-14.9-35.9-19.7c-11.6-4.8-23.3-7.2-35-7.2c-11.7,0-20.5,2.3-26.3,6.8c-5.8,4.5-8.8,10.2-8.8,16.9v0.8
	c0,4.4,0.9,8.2,2.6,11.5c1.7,3.2,4.7,6.2,9.1,8.8c4.5,2.6,10.4,5.1,18.1,7.4c7.7,2.3,17.4,5.1,29.1,8.2c13.7,3.6,26,7.7,36.8,12.3
	c10.8,4.5,19.9,10,27.3,16.4c7.4,6.4,13,13.8,16.8,22.4c3.7,8.6,5.6,18.8,5.6,30.8v0.8c0,13.5-2.5,25.5-7.4,36
	c-4.9,10.5-11.9,19.3-20.7,26.5c-8.8,7.2-19.3,12.6-31.5,16.3C957.6,675.7,944.1,677.6,929.3,677.6"/>
<polygon class="st1" points="204.4,672.7 60.3,672.7 132.4,532.9 204.4,393 276.5,532.9 348.6,672.8 "/>
<rect x="58.7" y="67.1" class="st1" width="972.5" height="55.2"/>
<rect x="1360" y="958.1" class="st1" width="972.5" height="55.2"/>
<rect x="1360" y="67.1" class="st1" width="972.5" height="55.2"/>
<g>
	<path class="st0" d="M1388.9,485.9h-34v-22.6h92.5v22.6h-33.9v88.9h-24.5V485.9z"/>
	<path class="st0" d="M1466.2,463.3h24.5v44.2h45.3v-44.2h24.5v111.6H1536v-44.8h-45.3v44.8h-24.5V463.3z"/>
	<path class="st0" d="M1587.3,463.3h84.2v21.8h-59.8v22.6h52.6v21.8h-52.6V553h60.6v21.8h-85V463.3z"/>
</g>
<g>
	<path class="st0" d="M1717.9,519.4v-0.3c0-31.7,23.9-57.7,58.2-57.7c21,0,33.6,7,44,17.2l-15.6,18c-8.6-7.8-17.4-12.6-28.5-12.6
		c-18.8,0-32.4,15.6-32.4,34.7v0.3c0,19.1,13.2,35.1,32.4,35.1c12.8,0,20.6-5.1,29.3-13.1l15.6,15.8c-11.5,12.3-24.2,19.9-45.7,19.9
		C1742.2,576.8,1717.9,551.4,1717.9,519.4z"/>
</g>
<g>
	<path class="st0" d="M1838.3,463.3h24.5v111.6h-24.5V463.3z"/>
</g>
<g>
	<path class="st0" d="M1913.6,485.9h-34v-22.6h92.5v22.6h-33.9v88.9h-24.5V485.9z"/>
	<path class="st0" d="M2022.2,530.9l-42.9-67.6h28.7l26.6,44.8l27.1-44.8h27.9l-42.9,67.1v44.5h-24.5V530.9z"/>
</g>
<g>
	<path class="st0" d="M2116,519.4v-0.3c0-31.7,25-57.7,59.5-57.7s59.1,25.7,59.1,57.4v0.3c0,31.7-25,57.7-59.5,57.7
		C2140.7,576.8,2116,551.1,2116,519.4z M2208.9,519.4v-0.3c0-19.1-14-35.1-33.8-35.1c-19.8,0-33.5,15.6-33.5,34.7v0.3
		c0,19.1,14,35.1,33.8,35.1C2195.2,554.2,2208.9,538.5,2208.9,519.4z"/>
</g>
<g>
	<path class="st0" d="M2253.2,463.3h85v22.3h-60.4v23.7h53.2v22.3h-53.2v43.2h-24.5V463.3z"/>
</g>
<g>
	<path class="st0" d="M1397.1,778.7h-41v-27.3h111.6v27.3h-41v107.4h-29.6V778.7z"/>
</g>
<g>
	<path class="st0" d="M1473.3,819.1v-0.4c0-38.3,30.2-69.6,71.8-69.6c41.6,0,71.4,31,71.4,69.3v0.4c0,38.3-30.2,69.7-71.8,69.7
		C1503.1,888.4,1473.3,857.4,1473.3,819.1z M1585.5,819.1v-0.4c0-23.1-16.9-42.3-40.8-42.3c-23.9,0-40.4,18.9-40.4,41.9v0.4
		c0,23.1,16.9,42.3,40.8,42.3C1568.9,861.1,1585.5,842.2,1585.5,819.1z"/>
</g>
<g>
	<path class="st0" d="M1639,751.4h61.6c17.1,0,30.4,4.8,39.3,13.7c7.5,7.5,11.5,18.1,11.5,30.8v0.4c0,21.7-11.7,35.4-28.9,41.7
		l32.9,48.1h-34.6l-28.9-43.1h-23.3v43.1H1639V751.4z M1698.6,816.8c14.4,0,22.7-7.7,22.7-19v-0.4c0-12.7-8.8-19.2-23.3-19.2h-29.4
		v38.7H1698.6z"/>
</g>
<g>
	<path class="st0" d="M1768.3,819.1v-0.4c0-38.3,30.2-69.6,71.8-69.6c41.6,0,71.4,31,71.4,69.3v0.4c0,38.3-30.2,69.7-71.8,69.7
		C1798.1,888.4,1768.3,857.4,1768.3,819.1z M1880.5,819.1v-0.4c0-23.1-16.9-42.3-40.8-42.3c-23.9,0-40.4,18.9-40.4,41.9v0.4
		c0,23.1,16.9,42.3,40.8,42.3C1863.9,861.1,1880.5,842.2,1880.5,819.1z"/>
</g>
<g>
	<path class="st0" d="M1930.1,751.4h27.3l63.1,82.9v-82.9h29.2v134.7h-25.2l-65.2-85.6v85.6h-29.3V751.4z"/>
</g>
<g>
	<path class="st0" d="M2113.5,778.7h-41v-27.3h111.6v27.3h-41v107.4h-29.6V778.7z"/>
</g>
<g>
	<path class="st0" d="M2185.9,819.1v-0.4c0-38.3,30.2-69.6,71.8-69.6c41.6,0,71.4,31,71.4,69.3v0.4c0,38.3-30.2,69.7-71.8,69.7
		C2215.7,888.4,2185.9,857.4,2185.9,819.1z M2298,819.1v-0.4c0-23.1-16.9-42.3-40.8-42.3c-23.9,0-40.4,18.9-40.4,41.9v0.4
		c0,23.1,16.9,42.3,40.8,42.3C2281.5,861.1,2298,842.2,2298,819.1z"/>
</g>
<rect x="1188.2" y="63.6" class="st0" width="12.5" height="953.7"/>
<g>
	<path class="st0" d="M1359.9,184.9h86.1v22.6h-61.2v24.1h54v22.6h-54V298h-24.9V184.9z"/>
	<path class="st0" d="M1464.1,249.5v-64.6h24.9v64c0,18.4,9.2,28,24.4,28c15.2,0,24.4-9.2,24.4-27.1v-64.8h24.9v63.8
		c0,34.3-19.2,51.1-49.6,51.1C1482.7,299.8,1464.1,282.8,1464.1,249.5z"/>
	<path class="st0" d="M1588,184.9h22.9l53,69.6v-69.6h24.6V298h-21.2l-54.8-71.9V298H1588V184.9z"/>
	<path class="st0" d="M1715.7,184.9h44.1c35.5,0,60.1,24.4,60.1,56.2v0.3c0,31.8-24.6,56.6-60.1,56.6h-44.1V184.9z M1759.8,275.6
		c20.4,0,34.1-13.7,34.1-33.8v-0.3c0-20-13.7-34.1-34.1-34.1h-19.2v68.2H1759.8z"/>
	<path class="st0" d="M1842,184.9h85.3V207h-60.6V230h53.3v22.1h-53.3v23.8h61.4V298H1842V184.9z"/>
	<path class="st0" d="M1950.2,184.9h44.1c35.5,0,60.1,24.4,60.1,56.2v0.3c0,31.8-24.6,56.6-60.1,56.6h-44.1V184.9z M1994.3,275.6
		c20.4,0,34.1-13.7,34.1-33.8v-0.3c0-20-13.7-34.1-34.1-34.1h-19.2v68.2H1994.3z"/>
</g>
<g>
	<path class="st0" d="M2125.1,184.9h52.5c12.9,0,23.1,3.6,29.6,10c5.2,5.2,7.8,11.5,7.8,19.2v0.3c0,12.8-6.8,19.9-14.9,24.4
		c13.1,5,21.2,12.6,21.2,27.8v0.3c0,20.7-16.8,31-42.3,31h-53.8V184.9z M2172.2,230.6c11,0,17.9-3.6,17.9-12v-0.3
		c0-7.4-5.8-11.6-16.3-11.6h-24.6v23.9H2172.2z M2178.9,276.2c11,0,17.6-3.9,17.6-12.3v-0.3c0-7.6-5.7-12.3-18.4-12.3h-28.8v24.9
		H2178.9z"/>
</g>
<g>
	<path class="st0" d="M2268.9,253.4l-43.5-68.5h29.1l27,45.4l27.5-45.4h28.3l-43.5,68V298h-24.9V253.4z"/>
</g>
</svg>
