<?xml version="1.0" encoding="UTF-8"?><svg id="Layer_1" xmlns="http://www.w3.org/2000/svg" viewBox="0 0 2085.84 1080"><defs><style>.cls-1{fill:#fff;}</style></defs><path class="cls-1" d="m1629.52,341.26c0-3.78-.48-13.7-11.97-13.54s-87.86,4.09-93.22,4.57c-5.35.47-9.45,5.81-.16,6.61,9.29.78,50.08,4.1,50.08,71.34,0,4.5.32,260.01-.16,220.6,1,81.8-30.55,110.97-65.67,110.86-55.27-.17-84.55-66.29-84.55-129.59,0-70.23,39.12-116.77,80.93-114.32,56.99,3.34,69.12,50,69.29,132.9l.23-137.62c.24,16.77.24,19.21-7.32,13.38-6.19-4.77-35.43-22.89-72.12-22.99-60-.15-133.7,42.63-133.7,132.43,0,95.11,67.4,140.31,137.32,140.31,34.01,0,58.19-15.22,66.76-20.47,9.68-5.93,8.85-5.49,10.64,3.3,1.36,6.77.55,18.9,17.72,17.17,19.51-1.97,64.4-7.56,73.85-9.44,9.02-1.81,6.88-7.7-1.26-8.67-5.56-.66-36.69,3-36.69-93.37v-303.46Z"/><path class="cls-1" d="m443.62,343.84c4.73,1.67,19.36,7.29,23.97-3.65,4.62-10.95,1.63-3.45,3.2-7.08,2.31-5.4,13.15-9.95,15.24,2.69,2.1,12.65,9.53,121.92,9.87,127.76.75,12.87-16.63,14.16-17.58,1.44-1.26-16.84-34.99-127.74-127.11-125.87-82.1,1.68-136.18,96.66-133.01,219.47,2.97,114.8,58.32,178.05,149.1,176.2,87.45-1.78,111.77-68.29,124.65-108.98,5.35-16.87,21.01-12.17,17.35,3.23-16.16,67.87-67.48,125.34-160.26,127.24-101.47,2.06-210.9-74.6-213.67-210.1-2.85-139.51,107.38-220.3,216.19-222.52,46.06-.93,75.92,14.48,92.06,20.15v.02Z"/><rect class="cls-1" x="1662.84" y="329.89" width="66.18" height="132.35"/><path class="cls-1" d="m1797.79,452.11s-.9-22.31-.9-24.53,1.88-2.98,4.09-2.5c2.23.49,23.07,4.72,23.07,4.72,0,0-1.59-4.51-2.71-7.85-1.11-3.34.35-3.94,1.12-4.64l23.29-20.17-3.69-1.81c-2.21-1.04-1.88-2.92-1.53-4.17l4.06-14.26s-9.71,2.19-11.99,2.54c-1.81.28-2.43-.56-2.99-1.81l-2.91-6.94-12.16,13.41c-2.3,2.09-4.51.49-4.11-1.95.38-2.21,6.12-28.56,6.12-28.56,0,0-6.32,3.75-8.41,5.01-2.08,1.25-3.19,1.04-4.3-.97-1.12-2.02-8.92-17.65-8.92-17.65h.02s-7.81,15.63-8.92,17.65c-1.12,2.01-2.22,2.22-4.31.97-2.09-1.26-8.4-5.01-8.4-5.01,0,0,5.73,26.34,6.11,28.56.42,2.43-1.81,4.04-4.1,1.95l-12.17-13.41-2.91,6.94c-.56,1.26-1.18,2.1-2.99,1.81-2.27-.35-12.37-2.54-12.37-2.54l4.44,14.26c.35,1.25.69,3.12-1.53,4.17l-3.68,1.81,23.28,20.17c.77.7,2.23,1.3,1.11,4.64-1.11,3.34-2.71,7.85-2.71,7.85,0,0,20.85-4.23,23.07-4.72,2.23-.49,4.1.27,4.1,2.5s-.9,24.53-.9,24.53h5.73Z"/><rect class="cls-1" x="1861.28" y="329.89" width="66.17" height="132.35"/><path class="cls-1" d="m663.54,559.82c.67,27.69-4.29,36-21.32,44.41-15.56,7.68-59.21,14.16-64.74,15.43-17.61,4.01-67.13,16.57-66.05,68.47,1.08,51.24,51.74,68.54,87.13,67.68,34.29-.83,54.39-15.57,63.35-22.83,5.31-4.3,4.84-3.23,9.26,1.7,4.91,5.47,21.96,21.83,61.35,21.66,40.01-.16,45.99-19.11,48.3-24.94,3.11-7.83-5.27-12.09-8.28-5.02-5.01,11.75-15.12,14.92-22.05,14.85-7.71-.07-30.4-1.91-30.57-60.44,0,0-.02-120.6-.05-127.62,0-39.32-30.01-71.47-109.43-71.47-85.45,0-85.88,42.11-86.45,52.55-.63,11.82,5.57,24.29,27.05,24.36,19.37.05,23.93-20.97,26.67-29.03,2.86-8.41,3.45-34.37,37.98-33.83,29.51,0,47.77,25.97,47.77,62.97l.64,111.64c0,39.05-20.16,70.2-49.84,70.2-35.72-.09-44.5-29.81-44.85-43.82-.34-14.02,7.32-43.34,42.58-63.71,0,0,16.34-10.56,47.66-22.54,2.83-.63,4.12-.13,4.12,6.49l-.23-57.16h0Z"/><path class="cls-1" d="m1251.83,559.82c.67,27.69-4.29,36-21.32,44.41-15.55,7.68-59.2,14.16-64.74,15.43-17.61,4.01-67.14,16.57-66.05,68.47,1.08,51.24,51.75,68.54,87.13,67.68,34.29-.83,54.39-15.57,63.36-22.83,5.31-4.3,4.84-3.23,9.27,1.7,4.9,5.47,21.95,21.83,61.34,21.66,40.02-.16,45.98-19.11,48.3-24.94,3.11-7.83-5.27-12.09-8.28-5.02-5.01,11.75-15.12,14.92-22.05,14.85-7.71-.07-30.41-1.91-30.57-60.44,0,0-.03-120.6-.05-127.62,0-39.32-30.01-71.47-109.43-71.47-85.46,0-85.89,42.11-86.44,52.55-.64,11.82,5.56,24.29,27.04,24.36,19.37.05,23.93-20.97,26.67-29.03,2.86-8.41,3.45-34.37,37.98-33.83,29.5,0,47.77,25.97,47.77,62.97l.64,111.64c0,39.05-20.16,70.2-49.84,70.2-35.72-.09-44.5-29.81-44.84-43.82-.34-14.02,7.32-43.34,42.58-63.71,0,0,16.34-10.56,47.66-22.54,2.83-.63,4.13-.13,4.13,6.49l-.24-57.16h-.02Z"/><path class="cls-1" d="m1832.57,559.82c.67,27.69-4.29,36-21.33,44.41-15.55,7.68-59.2,14.16-64.74,15.43-17.61,4.01-67.13,16.57-66.05,68.47,1.08,51.24,51.74,68.54,87.13,67.68,34.29-.83,54.39-15.57,63.35-22.83,5.31-4.3,4.84-3.23,9.26,1.7,4.91,5.47,21.96,21.83,61.35,21.66,40.01-.16,45.99-19.11,48.31-24.94,3.1-7.83-5.27-12.09-8.29-5.02-5.01,11.75-15.12,14.92-22.05,14.85-7.71-.07-30.4-1.91-30.56-60.44,0,0-.04-120.6-.05-127.62,0-39.32-30.01-71.47-109.43-71.47-85.46,0-85.9,42.11-86.46,52.55-.63,11.82,5.57,24.29,27.04,24.36,19.37.05,23.94-20.97,26.68-29.03,2.86-8.41,3.45-34.37,37.98-33.83,29.5,0,47.77,25.97,47.77,62.97l.64,111.64c0,39.05-20.16,70.2-49.83,70.2-35.72-.09-44.52-29.81-44.85-43.82-.34-14.02,7.32-43.34,42.57-63.71,0,0,16.36-10.56,47.68-22.54,2.83-.63,4.12-.13,4.12,6.49l-.23-57.16h0Z"/><path class="cls-1" d="m996.05,685.82c.02,43.86-12.76,58.06-27.7,61.03-13.83,2.75-10.89,9.42-4.41,9.39,2.87-.02,117.5.12,117.65.11,9.62,0,16.23-6.18-.82-10.06-10.41-2.37-27.79-14.21-27.8-69.35l-.24-101.98c-.19-24.37,2.53-85.82-93.29-85.82-48.94,0-77.6,24.82-80.44,27.03-4.4,3.42-6.3,5.04-8.25-1.44-1.49-4.96-4.11-13.24-5.57-17.52-1.48-4.29-3.27-7.91-12.57-6.61-9.31,1.3-65.14,10.13-74.42,12.43-9.28,2.31-6.81,6.23-.09,7.35s36.76,3.55,36.59,55.66c-.18,52.11-.05,109.02-.05,109.02.3,62.86-13.04,68.67-24.66,71.87-15.13,4.17-8.08,9.43-.83,9.44.17,0,112.9-.07,115.77-.11,7.74-.14,11.15-7.11-4.41-9.7-15.03-2.51-29.3-11.34-28.96-60.72.03-4.87,0-59.64-.13-69.61-.37-26.16-6.52-108.34,67.57-109.06,51.71-1.67,56.69,41.53,56.98,70.24l.11,108.43-.03-.02Z"/></svg>