<svg width="206" height="206" viewBox="0 0 206 206" fill="none" xmlns="http://www.w3.org/2000/svg">
<path d="M8.92253 4.42664L2.01865 104.292H27.9082V49.2233H29.6342V104.292H55.5238L49.1952 4.42664H8.92253Z" fill="white"/>
<path d="M94.2042 26.6823V4.42664H56.8081V104.292H82.6977V65.487H93.485V43.2313H82.6977V26.6823H94.2042Z" fill="white"/>
<path d="M95.2941 4.42664V104.292H121.184V68.6256L122.911 68.6256C122.911 68.6256 122.91 69.862 122.91 70.9082V83.748C122.91 87.6475 123.054 94.5905 123.054 94.5905L123.268 104.292H148.943V94.7332C148.847 91.4044 148.799 87.8377 148.799 84.0334V82.8921C148.799 79.0877 148.32 75.6637 147.361 72.6202C146.402 69.5767 145.203 67.0087 143.765 64.9163C142.327 62.8239 140.745 61.2071 139.019 60.0657C137.293 58.9244 135.663 58.3538 134.128 58.3538V56.6418C135.663 56.6418 137.293 56.1663 139.019 55.2152C140.745 54.169 142.327 52.5996 143.765 50.5072C145.203 48.4148 146.402 45.8469 147.361 42.8034C148.32 39.6647 148.799 36.003 148.799 31.8182V31.1049C148.799 21.9744 146.45 15.2691 141.752 10.9892C137.053 6.61416 130.389 4.42664 121.759 4.42664H95.2941ZM121.184 26.6823H121.471C122.238 26.6823 122.67 26.8249 122.766 27.1103C122.862 27.3005 122.91 27.8712 122.91 28.8222V44.0873C122.91 45.1335 122.862 45.7993 122.766 46.0846C122.67 46.2749 122.238 46.37 121.471 46.37H121.184V26.6823Z" fill="white"/>
<path d="M150.495 29.3929V79.1828C150.495 83.4627 151.07 87.2671 152.221 90.5959C153.372 93.9248 155.05 96.7305 157.255 99.0131C159.556 101.201 162.337 102.865 165.597 104.006C168.857 105.148 172.597 105.718 176.816 105.718C181.131 105.718 184.966 105.148 188.322 104.006C191.678 102.77 194.507 101.058 196.808 98.8705C199.206 96.5878 200.98 93.8297 202.13 90.5959C203.377 87.2671 204 83.4627 204 79.1828V29.3929C204 25.2081 203.377 21.4988 202.13 18.2651C200.98 14.9363 199.206 12.1781 196.808 9.99056C194.507 7.70792 191.678 5.99595 188.322 4.85464C184.966 3.61821 181.131 3 176.816 3C172.597 3 168.857 3.57066 165.597 4.71198C162.337 5.85329 159.556 7.5177 157.255 9.70522C155.05 11.8927 153.372 14.6509 152.221 17.9798C151.07 21.3086 150.495 25.113 150.495 29.3929ZM176.384 27.5383C176.384 27.0627 176.384 26.6823 176.384 26.397C176.48 26.1116 176.528 25.9214 176.528 25.8263C176.624 25.6361 176.72 25.4934 176.816 25.3983C177.008 25.3032 177.152 25.2556 177.247 25.2556C177.439 25.2556 177.583 25.3032 177.679 25.3983C177.775 25.4934 177.823 25.6361 177.823 25.8263C177.919 25.9214 177.967 26.1116 177.967 26.397C178.062 26.6823 178.11 27.0627 178.11 27.5383V81.1801C178.11 81.5605 178.062 81.8934 177.967 82.1787C177.967 82.4641 177.919 82.7018 177.823 82.8921C177.823 83.0823 177.775 83.2249 177.679 83.32C177.583 83.4151 177.439 83.4627 177.247 83.4627C177.152 83.4627 177.008 83.4151 176.816 83.32C176.72 83.2249 176.624 83.0823 176.528 82.8921C176.528 82.7018 176.48 82.4641 176.384 82.1787C176.384 81.8934 176.384 81.5605 176.384 81.1801V27.5383Z" fill="white"/>
<path d="M2 107.453L8.0549 203H35.3019V169.286H36.9533V203H64.2003L70.8056 107.453H46.0356L47.4117 160.141H45.7604L44.3843 107.453H28.4214L27.0452 160.141H25.3939L26.77 107.453H2Z" fill="white"/>
<path d="M74.0513 107.453L67.446 203H92.216V150.313H93.8673V203H118.637L112.582 107.453H74.0513Z" fill="white"/>
<path d="M115.691 107.453L121.745 203H160.277L166.882 107.453H142.112V175.564H140.461V107.453H115.691Z" fill="white"/>
<path d="M203.89 128.747V107.453H168.111V203H203.89V181.707H192.881V163.28H203.89V141.987H192.881V128.747H203.89Z" fill="white"/>
</svg>
