<?xml version="1.0" encoding="utf-8"?>
<!-- Generator: Adobe Illustrator 27.5.0, SVG Export Plug-In . SVG Version: 6.00 Build 0)  -->
<svg version="1.1" id="Layer_1" xmlns="http://www.w3.org/2000/svg" xmlns:xlink="http://www.w3.org/1999/xlink" x="0px" y="0px"
	 viewBox="0 0 512 512" style="enable-background:new 0 0 512 512;" xml:space="preserve">
<style type="text/css">
	.st0{fill:#32B24B;}
</style>
<g>
	<path d="M278.6,367.6c0.2-0.2,0-0.8,0-1.3c-5.7-2.7-9.5,3.4-15.2,3.4c-0.1-3.3,0-5.7,1.1-8.3c0.9-2-0.7-4.8,0.6-6.8
		c1.5-2.3,0.5-4.5,0.7-6.7c0.2-2.3,0.1-4.7,0.1-7v-21.5c-1.7-3.3-5.1-4.5-6.8-7c-4.3,0-7.9-2.6-11.9-1.1c-0.2,0.3-0.3,0.6-0.4,1
		c-0.1,0.6,0.2,1.4-0.1,1.9c-3.9,8.1-5.6,17-5,26c0.3,4.1-1,7.8-2.8,11c-6.9,12.5-12.1,25.8-19.7,37.8c-2.2,3.6-4.5,7.1-6.6,9.2
		c-3.4,0.3-5.3-1.3-7.7-1.6c-1-0.1-1.6,0.2-1.5,1.7c2,1.3,4.3,2.8,6.8,4.5c-5.2,5.9-9.7,12.5-13.3,19.4c1.9,2.5,1.5,6.2,4.9,7.6
		c1-0.1,2.4,0.5,2.8-0.7c0.9-2.5,3.4-3.1,5-4.9c0.7-0.8,1.2-1.6,1.6-2.5c1.9-4.1,4.3-8,6.2-12.1c1.8-3.7,4.9-6.6,8.4-7.7
		c5.8-1.8,10.8-4.8,16.3-8.1c0.4,0.8,0.9,1.8,1.9,3.5c-0.7,2.6,2.4,6.1,1.5,10.2c2.3,1.9,0.8,5,2.5,7.3c2,2.8,2.9,6.3,2.7,9.7
		c-0.1,1,0.3,1.9,0.6,2.9c1.4,4.7,4.3,8.2,7.7,11.3c3.4,0.3,5.5-2.3,8.3-3.2c-1.1-7.5-3.9-14.8-3.6-22.1c0.3-7.6-3.3-15-0.6-22.9
		c-0.1-0.1-0.5-0.5-1.1-1.2c3.2-3.2-0.2-8.1,2.1-10.2C269.6,374.4,274.1,371,278.6,367.6z M241.6,384c-4.5,1.7-7.4,9-14,4.3
		c3.6-8.2,7.2-16.2,10.8-24.2c2.6,0.6,1.7,2.9,3.3,3.4L241.6,384z"/>
	<path d="M202.3,348.3c0.3-0.4,0.7-1,1.2-1.5c-1.7-4.7-4-8.8-6.4-13c-1.4-2.5-4.4-3.6-5.1-6.2c-0.7-2.9-3.3-3.7-4.9-3.9
		c-3.8-0.4-7.4-2.8-11.5-1.1c-1.1,2.7,0.3,4.9,1.7,7.4h4.2c0.6,0.8,1.3,1.4,1.5,2.2c1.1,4.7,1.7,9.3,1.3,14.1
		c-0.1,1.8-0.2,3.7,1.2,5c0.2,1.3-1.2,1.5-1.2,2.2c-0.1,4.5-1.1,9.3,0.2,13.3c1.6,4.8,0.3,8.6-0.7,12.8c-1.9-0.9,0.2-3-2.1-3.9
		c0.3,3.8-1.7,7.1-2,10.6c-0.5,5.1-3,9.5-4.5,14.1c-2,5.9-4,12-7.5,17.3c-1.9,2.9-3,6.7-7.6,8.3c0.8-3-2.3-5-1.1-7.2
		c1-1.8,1.4-3.9,1-5.9c-0.7-4.9,2-9.3,1.3-14.2c3.1-7,3.2-14.7,5.8-21.8c1.2-3.3,2.6-6.9,1.8-10.8c-1.7-1.4-1.6-4-2.9-5.4
		c-5.2-1.5-10.1-2.9-14.7,0.3c-0.4,2.5-2.4,4.2-2.8,6.7c-0.9,7.9-3.9,15.3-6.4,22.9c-1.1,3.4-3.4,6.3-3.9,10.6c-1,0.8-2.5,2-3.6,2.9
		c0,4-2.1,6.5-3.7,9.3c-1.6,2.7-2.1,6.1-5.4,7.3c-2.2-1.2-2.5-3.4-3.8-5.4c1.1-13.6-1.3-27.5,1.3-41.4c0.7-3.7-0.1-7.6,0.2-11.5
		c0.2-3.3-0.7-6.1-3.2-8.3c-1.3,2.3-3.9,0.5-5.8,1.7v2.4c0,3.8-0.3,7.7,0.1,11.5c0.4,4.1-1.5,7.6-1.6,11.6c-0.2,2.8-0.7,5.6-1.5,8.2
		c-1,3.3-1.6,6.6-2,10c-0.3,3.7-1.2,7.3-1.7,10.9c-0.6,4.7-2.4,9.4-2.3,14.3c0,0.9-0.1,1.6-0.8,2.2c-1,0.8-0.8,2.5-0.4,2.9
		c2.4,2.4,0.5,5.3,1.4,8.1c1.9-0.2,0.4,2.1,2.7,3.4c1.1,1,3.9,1.6,5.9,0.6c2.9-1.4,5.7-0.8,8.5-1.2c0.1-0.2,0.3-0.3,0.5-0.5
		c10.6-6.2,9.9-3.2,17.3-14.7c2.9-1.3,2.7-5.6,6.2-6.6c3.9,4,3.4,9.1,3.4,13.6c0.5,0.5,0.9,0.8,1.1,1.2c5.3,5.6,10,6.3,17.4,4.5
		c0.4-1.7,3.7-0.4,3.1-3.1c3.4-2.3,4.5-6.2,6.6-9.4c3.1-4.8,6.5-9.7,8.5-15c2.1-5.9,4.7-11.5,7.9-16.9v-3.9l2.6-2
		c-0.6-3.9,2.5-6.9,1.2-10.2c1.5-1.5,2.7-2.7,3.8-3.8C204,365.6,204,356.8,202.3,348.3z M186.1,367.3c-0.9-1.8-0.9-4,0-5.8
		C187,363.3,187,365.5,186.1,367.3z M187.8,350.1c-1.4-1.9-0.9-3.9,0-5.9V350.1z M201.3,368.3c1.3,0.5,0.5,1.6,1,3.2
		C200.6,370,200.5,369.2,201.3,368.3L201.3,368.3z"/>
	<path d="M368.5,312.5c-2.2,4-4.4,7.5-6.3,11.2c-1.6,3.1-2.6,6.7-4.6,9.5c-4,5.7-6.8,12.1-10.3,18.1c-2.7,4.6-4.9,9.5-7.8,14
		c-5.7,8.9-9.4,18.6-13.7,28.2c-1.2,2.6-2.2,5.6-5.3,7c-3.5-2.8-2.8-7.3-4.3-10.7c-2.5,0.7-1.7,3.6-4.1,3.9v-9
		c1.2,1.1,2.2,1.9,3.1,2.7c0.8-0.9,1.4-1.5,2-2.3c-2.2-2.6-1.6-5.5-1.5-8.4c0.1-2.6-0.3-5-2.7-7.4v13.9c-1-0.6-1.9-1.1-2.5-1.4
		c0-3.6-0.8-7.1,0.2-9.8c1-2.5,1.3-5.2,0.9-7.8c-0.3-2.9,1.2-5.1,1.5-7.8c0.5-3.6-1.9-6.8-1.4-10.4c-1.4-1.1-2.8-2.3-4.2-3.4
		c-4.3-3.2-9.3-2.3-13.9-3.5c-3.5-0.9-7.4,0.2-10.9-1.4c-0.5-0.3-1.2,0-1.6,0.6v1.3c0.5,1.1,2.1,0.1,2.6,1.5v2.3
		c1.1,2,3.8,1.8,5,3.8c0.4,3.3,0,6.7,1.1,10.2c1,3.2,0.5,6.8,1.3,10.3c0.9,3.8,0.5,8.1,0.1,12c-0.3,4,2.1,7.5,1.4,11.6
		c-0.9,4.8,2.2,9.3,1.2,14.1c0,0.2,0,0.4,0.1,0.6c2,4.4,1.1,9.4,3.4,15.3c1.6,2.6,6.2,2.8,10.1,4.7c3.2-1.6,6.3-3.2,9.4-4.8
		c-0.1-0.8,0-1.4,0.6-1.8c1-0.3,2.1,0.4,3-0.5c0.7-2,1.1-4.4,2.3-6c8.2-11.3,14.3-23.8,20.5-36.2c2.9-5.8,5.4-11.8,8.8-17.4
		c4.1-6.8,7.2-14.1,11.6-20.7c0.8-1.2,0.3-2.6,1.2-4c4.7-7.2,8.8-14.8,10.7-23.5C371.8,310.9,371.8,310.9,368.5,312.5z M298.9,417.5
		c-0.4,0.6-1,0.5-0.9,0.1c0.5-1.8-2.7-2-0.8-4.5c0.2,0,0.7,0,1.4-0.1C299.4,414.5,299.1,416.1,298.9,417.5z M312.5,398.9
		c-0.9-1-0.9-1.7-0.2-2.5C313.7,397,313.3,397.8,312.5,398.9z"/>
	<path d="M420.8,392.4c0.8,1.8,2.5,3.1,2,5.9c-5.5,6.2-12.4,10.6-21.2,12.2c-3.5,0.6-7,1.4-10.4,2.6c-5.8,2.1-11.6,0.9-17.4,1
		c-2.8,0-5.8-1.7-7.9-3.8c-4.9-5.1-8.1-10.8-8.3-18.3c-0.2-5.1,2.1-9.4,2.9-14.2c0.2-1.4,5.3-7.1,6.5-8.2c5.1-4.6,11-8.3,15.1-13.7
		c-1-3.7-4.9-3.3-7.1-5.3s-2.5-5.1-4.5-7.2c0-2.2-0.1-4.6,0-6.9c0.1-3.8,1-7.2,4-9.8c2.6-2.2,4.5-5,7.4-6.8c7.8-5,16.3-7.7,25.6-7.6
		c3.7,0.1,7.5-0.9,11.3,1.8c0.8,2.1,1.8,4.6,2.8,7.2c0.9,2.4,1.9,4.8,2.7,6.9c-1.1,4.1-3.3,6.8-8,8.3c-2.6-0.4-6.4,1.3-9.8-1.2
		c-2.9,2.1-6.7,0.8-9.8,2.6c-2.9,1.6-6.2,2.5-9.1,4.2s-6.6,2.3-8.1,5.9c-0.1,1.4,1.3,1.7,1.9,2.7c4.6,0,9.4,0.6,13.9-0.2
		c3.6-0.7,7.3-1,11-1.1c0.4,0.1,0.8,0.2,1.1,0.3c0.7,1.2-0.1,1.9-0.8,2.6c-4.2,4.3-9.2,7.6-13.6,11.5c-5.7,5-12.8,8.7-16.5,15.9
		c-1,2-3.1,3.4-4.6,5.1c-3.8,4.3-4.6,9.5-3.6,15.2c2,1.9,4.7,2.9,7.5,2.9c7.2,0.1,14-1.6,20.8-3.6c3.8-1.1,7.7-1.9,11.7-2.5
		c3.7-0.6,6.8-2.2,10-3.8C418.9,392.4,419.8,392.5,420.8,392.4z"/>
	<path d="M394.6,89.4c-0.2-2.9-2.8-5.5-4.2-8.4c-2-4.3-5.9-7-9.2-10.1c-0.9-0.8-2-1.3-3.2-1.5c-5.8-0.2-11.2,0.6-16.2,4.1
		c-3.1,2.2-5.7,4.8-8.1,7l-7.4,2.1c-2,2.6-3.4,5.7-4.9,8.7c-2.8,5.9-4.7,12.1-6.7,18.3c-1.4,4.5-2.6,9.1-3.9,13.7
		c-2.1,7.6-4.1,15.2-3.9,23.3c0.1,2.9,1.3,5.7,1.2,8.4c-0.1,3,0.8,5.7,1.7,8.3c3,8.9,8.4,16,17.5,19.6c0.8,0.3,1.5,0.8,2.1,1.3
		c1.2,0,2.5,0,3.7,0c1.5-0.1,2.8-0.1,4,1.2c0.4,0.4,1.9,0,2.9-0.3c10.6-2.8,17.6-10,22.9-18.8c3-4.9,6.4-10,7-16.2
		c0.3-3.1,2.2-6,2.1-9.3c-0.2-3.3,1.6-6.2,1.4-9.7c-0.2-4-1.2-8.3,1.1-12.2c0.3-0.6,0.3-1.3,0-1.9c-2.6-3.3-0.1-6.6,0.3-9.8
		c0.2-1.6,0.8-3.5,1.1-5.2C396.9,97.8,395,93.7,394.6,89.4z M383.2,117c-0.8,6.9-1.5,14-3.6,20.8c-2,6.4-4.4,12.6-7.8,18.5
		c-1.4,2.4-2.8,4.9-4.9,6.9c-1.1,1.1-2,2.6-2.9,3.8c-2.9,3.7-6.2,7.2-12,7.2c-1-1.6-2.6-2.3-3.2-4.1c-2.4-7.1-5.8-13.9-7.4-21.1
		c-1.2-5.7-0.2-11.8-0.2-18.2c2.4,0,5.3-0.8,6.8,0.2c2.3,1.6,4.4,0.6,6.6,1.1c3.6-9.9,5.8-20.2,10.8-29.4c0.5-0.9,0.9-1.7,1.3-2.7
		c2.4-7.2,4.4-8.7,11.8-8.8c2.3,1.2,3.4,3.4,4.8,6.4C383.3,103.5,384,110.3,383.2,117L383.2,117z"/>
	<path d="M322.4,79.3c-2.4-1.2-4.5-2.3-6-3.1c-9,0-17.6-1-25.9,0.3c-7.8,1.2-15.6,2.8-23.1,5.5c-7.4,2.7-14.7,5.4-21.9,8.6
		c0.3,1.6-1.1,2.1-2,3.2c-4.5-0.7-8.7,2.1-13.4,1.3c-1.3-0.2-2.6,2.5-4.1,0.2c-1.3,1.1-3.2,0.5-4.4,1.1c-3,1.5-6,1.2-9.1,1.1
		c-4.6-0.1-8.9,2.1-13.5,1.3c-2.8,2.7-5.7,1.2-8.5,0c-0.5-0.2-1.2,0-1.9,0c-0.3,0.8-0.6,1.6-0.9,2.4c-1.9-0.3-3.4,1.3-5.1,1.4
		c-2,0.1-4.1,0.5-5.9-0.3c1.5-3.8,5.2-1.2,8.2-3.2h-15.8V110c3.1,1.9,3,7.4,6.9,6.9c2.1,2.1,3.8,3.7,5.5,5.3c-2.5,5-1.6,12-6.8,16.2
		c-3.2,0.2-6.1-0.7-8.4,1.4c-1.8-0.7-2.3-3-4.3-2.7c-1.1,1.1-0.8,3.2-2.8,3.5c-5.8-0.1-11.4,1.1-17.2,5.1c0.5-4.8-0.3-8.5,1.2-12.4
		c1-2.8,0.5-6.3,0.1-9.5c-0.4-3.3,1.7-5.8,1.5-9.1c-0.4-6.3-0.1-12.7-0.1-18c-1.4-4.8-4.7-6.8-6.9-9.3c-4.3-0.1-7.9-2.5-11.8-1.1
		c-5.6,11.5-5.6,23.9-7.1,35.9c-2.9,6-5.7,11.9-8.7,17.6c-4.7,8.9-8.6,18.2-14.1,26.7c-1.7,2.7-3,5.8-5.9,7.6
		c-2.5-0.9-5.1-1.8-7.7-2.7c-0.7,2.7,0.6,3.5,2.3,4c2.2,0.7,2.7,2.3,2.5,4.4c-4.9,4.7-7.4,11-11.8,16.2c1.6,3.2,1.6,7,5.1,8.8
		c4.2-2.2,7.7-5.3,9.3-8.7c2.7-5.5,5.8-10.8,8.8-16.3c7.4-3.6,15.5-5.9,21.9-10.9c3.7,3,1.3,7.7,3.7,10.9c0,6.4,3.7,11.7,5.1,17.8
		c-0.2,0.9-1.7,1.2-1.7,1.2c1.8,3.7,3,6.2,4.3,8.7c1.5,2.8,4.1,4.6,6.2,6.6c2.6-0.6,4.7-1.4,6.4-3.4c0.9-8.3-2.2-16.1-3.5-24.4
		c2.1-1.6,1.8-4.8,0.9-6.1c-1.8-2.7-0.5-5.4-1.1-7.9c-0.7-2.9,1.6-5.7,0-8.5c2.6-2.8,0.4-6.5,1.6-9.8c4.3-3.3,8.8-6.7,13.2-10
		c2.9,1.8,1.1,4.7,1.9,7c4.7,1.3,5.9,5.2,6.1,9.4c0.3,5.8-0.4,11.6-0.9,17.4c-0.5,5.5-2.4,11-1.6,16.7c0.1,0.4,0.1,1-0.2,1.2
		c-2.2,1.9-0.5,4.3-1.2,6.3c7.6,5.2,15.2,5.7,20.5,1.2c-0.8-5.2,0.5-10.5,1.8-15.6c1.8-7.3,3.8-14.6,5.9-21.8
		c1.4-4.6,2.5-9.2,3.9-13.7c0.5-1.6,1.4-3.5,3.6-4.6c8.6-4.3,17.4-8.3,26.5-11.4c6.5-2.1,10.4-5.7,12.5-11.5
		c-3.2,0.3-6.5-0.8-9.3,0.6c-1.6,0.8-3.4,0.6-5.1,1.8c-1.4,1-4.1,0.2-6.2,0.2c-1.2,0-2.5,0.7-3.4,0.8c-3.6,0.4-6.9,2.8-10.8,1.5
		c-0.9-1.3-2.8-1.9-3-4.4c2.7-3.5,0.5-10.1,8.1-11.8c2.9,0.9,6.6-1.2,10.4-1.8c3.6-0.6,8.2-0.9,10.2-4.6c2.2-0.2,4.4,0.3,5.4-0.5
		c1.5-1.4,3.5-0.5,5.1-2c1.6-1.6,3.5,1.7,5.7,1.1c0.3-0.1,0.7,0.3,1.2,0.5c-0.5,3.1,0.7,6.1,3,8.2c4.3,1.1,7.5-2.6,11.7-2.4l2.5,2.6
		c-0.7,7-4.6,12.4-6,18.9c-1.4,6.5-3.8,12.9-5.5,19.6l-8.3,4.2c2.2,0.7,4.1,2.2,5.2,4.2c-1.3,6.6-4.4,13-3.9,20.1
		c-2.9,6.6-2,13.8-4.2,21.3c9.5-1.8,15.1-9.3,23.1-11.6c0.5-7.6,3.4-14,5.4-20.6c2.1-6.8,2.8-14,6.5-20.4h4.4
		c1.2,2.9,1.9,6.3,3.7,8.6c2.5,3,4.2,6.3,5.8,9.8c1.7,3.6,5,6.3,5.3,10.6c3.4,3.8,5.7,8.5,9.5,12c1,0.9,1.7,2.5,3.4,2.3
		c1.6-1.5,3.1-3,4.6-4.5c-0.1-2.9-0.7-5.7-1-8.5c-0.7-5.5-2.3-11-1.6-16.7c0.2-1.4,0.3-3.1-0.2-4.4c-3.1-7.5-5.3-15.2-7.3-23
		c4.9-4.9,9.7-9.6,14.5-14.5c4.4-4.5,8.2-9.6,10.2-15.5c1.2-3.5,3.1-6.9,3.3-10.8C327.6,89.4,325.1,84.2,322.4,79.3z M120.4,158.1
		c-2.2,2.9-5.2,4.7-8.6,7h-5.1c-0.5-0.4-0.6-1-0.4-1.6c0.9-2.8,1.9-5.6,3-8.3c1.6-3.8,4-7.1,5.1-11.3c0.4-1.5,0.9-4.2,4.1-4.3
		C121.4,145.5,120,151.9,120.4,158.1z M304.3,120.8c-7,7-14.7,13.3-23.7,17.9c-1.7,0.9-3.1,0.9-4.7,1c-3.5-1.2-3.8-4.8-4.7-7.4
		c-0.8-2.4-1.4-4.8-2.5-7.3c-1.3-3-2.4-6.6-1.4-10.1c2-6.4,7.9-7.9,13-9.5c11.2-3.6,14.3-4.4,29.6-3.9c1.2,1.5,3.5,1.3,4.5,3.3
		C312.4,110.9,308.7,116.3,304.3,120.8L304.3,120.8z"/>
</g>
<rect x="17.7" y="218.7" transform="matrix(0.9955 -9.497707e-02 9.497707e-02 0.9955 -23.3342 25.4798)" class="st0" width="476.7" height="78.2"/>
</svg>
