<svg id="Layer_1" data-name="Layer 1" xmlns="http://www.w3.org/2000/svg" viewBox="0 0 1080 1080"><defs><style>.cls-1{fill:#231f20;}.cls-2{fill:#32b24b;}</style></defs><path class="cls-1" d="M588.59,779.61c.44-.33,0-1.76,0-2.85-12.29-5.85-20.48,7.35-32.72,7.24-.26-7,0-12.32,2.3-17.92,1.83-4.35-1.43-10.34,1.32-14.51,3.21-4.86,1.09-9.65,1.6-14.41.52-5,.11-10,.11-15.09V675.82c-3.62-7-10.93-9.76-14.66-15.06-9.14-.08-16.92-5.63-25.62-2.45a8.78,8.78,0,0,0-.81,2.12c-.14,1.35.4,3-.14,4.06a110.37,110.37,0,0,0-10.75,55.82c.58,8.7-2.16,16.75-5.93,23.62-14.73,26.76-25.95,55.31-42.37,81.19-4.82,7.65-9.76,15.29-14.18,19.71-7.28.66-11.41-2.89-16.56-3.44-2.09-.25-3.51.51-3.29,3.7,4.35,2.85,9.17,6,14.66,9.61a218.46,218.46,0,0,0-28.66,41.71c4.09,5.34,3.25,13.42,10.56,16.24,2.08-.26,5.19,1.06,6.07-1.5,1.9-5.38,7.35-6.73,10.64-10.46a20,20,0,0,0,3.36-5.45c4.06-8.84,9.14-17.22,13.42-26,3.95-8,10.42-14.19,18.09-16.56,12.51-3.84,23.29-10.28,35-17.33.95,1.75,2,3.76,4,7.46-1.57,5.59,5.23,13.19,3.29,21.82,5,4.1,1.68,10.79,5.3,15.68a31.9,31.9,0,0,1,5.71,20.92c-.11,2.15.73,4.13,1.35,6.25,3,10.05,9.25,17.58,16.52,24.27,7.39.66,11.85-4.93,17.77-6.87-2.45-16.09-8.44-31.7-7.75-47.56.7-16.24-7-32.28-1.39-49.25-.14-.14-1-1.13-2.37-2.63,6.94-6.8-.52-17.4,4.42-22C569.21,794.27,578.94,787,588.59,779.61ZM509.11,815c-9.69,3.62-15.79,19.23-30.16,9.29,7.82-17.58,15.43-34.69,23.14-52,5.56,1.28,3.69,6.22,7,7.28Z"/><path class="cls-1" d="M424.59,738.26c.58-.77,1.61-2.12,2.48-3.25-3.73-10.09-8.59-19-13.67-27.82-3-5.27-9.54-7.75-10.89-13.24-1.5-6.25-7.17-8-10.5-8.37-8.19-.88-16-6.07-24.78-2.41-2.45,5.74.69,10.56,3.58,16h8.92c1.24,1.76,2.85,3.07,3.18,4.64,2.3,10,3.62,20.07,2.89,30.38-.29,3.95-.4,8,2.63,10.72.44,2.74-2.56,3.21-2.56,4.82-.22,9.58-2.45,20,.48,28.59,3.51,10.24.66,18.39-1.5,27.42-4-1.87.51-6.47-4.57-8.45.58,8.23-3.62,15.29-4.39,22.74-1.13,11-6.36,20.4-9.76,30.35-4.31,12.68-8.63,25.73-16.09,37.18-4.13,6.32-6.43,14.44-16.34,17.8,1.79-6.36-5-10.82-2.41-15.5a19.28,19.28,0,0,0,2.23-12.76c-1.61-10.45,4.35-20.07,2.89-30.42,6.69-15,6.94-31.58,12.43-46.9,2.56-7.17,5.56-14.84,3.76-23.11-3.65-3.1-3.51-8.51-6.17-11.55-11.12-3.22-21.72-6.21-31.63.59-.8,5.44-5.26,9-5.92,14.36-2,17-8.41,32.94-13.82,49.1-2.41,7.2-7.31,13.49-8.41,22.74-2.15,1.76-5.34,4.32-7.78,6.25,0,8.63-4.61,14-8.05,19.89s-4.53,13.2-11.7,15.72c-4.75-2.67-5.41-7.35-8.08-11.51,2.34-29.18-2.7-59.08,2.89-88.81,1.5-7.93-.11-16.41.33-24.64.37-7.09-1.61-13-6.87-17.84-2.85,5-8.37,1.06-12.43,3.66v5.26c0,8.23-.7,16.53.18,24.64.92,8.71-3.18,16.38-3.4,24.94a72.27,72.27,0,0,1-3.29,17.66,106.88,106.88,0,0,0-4.2,21.46c-.62,7.93-2.6,15.64-3.59,23.43-1.31,10.16-5.11,20.14-4.86,30.71,0,1.86-.11,3.47-1.72,4.79-2.15,1.75-1.71,5.41-.87,6.21,5.26,5.12,1.09,11.41,3.1,17.48,4.06-.33.77,4.57,5.78,7.2,2.3,2.16,8.41,3.33,12.72,1.24C241,936.7,247,938,253,937.14a5.16,5.16,0,0,1,1-1c22.81-13.23,21.28-6.91,37.11-31.66,6.25-2.81,5.77-12.13,13.38-14.25,8.33,8.66,7.27,19.44,7.27,29.24,1.17,1.17,1.83,1.79,2.45,2.49,11.37,12,21.5,13.52,37.44,9.72.76-3.69,8-.84,6.72-6.58,7.28-4.9,9.76-13.31,14.26-20.14,6.76-10.31,13.93-20.77,18.21-32.17a217.58,217.58,0,0,1,16.89-36.23v-8.41l5.59-4.39c-1.28-8.33,5.27-14.84,2.49-22,3.21-3.18,5.77-5.78,8.19-8.16A128.91,128.91,0,0,0,424.59,738.26Zm-34.73,40.8a14.42,14.42,0,0,1,0-12.5A14.22,14.22,0,0,1,389.86,779.06Zm3.65-36.85c-3.1-4.13-1.9-8.48,0-12.76Zm29,39c2.89,1.06,1.17,3.51,2.09,6.77C420.9,784.87,420.68,783.16,422.5,781.25Z"/><path class="cls-1" d="M781.62,661.27c-4.83,8.52-9.4,16.16-13.53,24.06-3.51,6.72-5.63,14.33-9.91,20.47-8.55,12.32-14.55,26-22.19,38.79-5.88,9.83-10.56,20.47-16.67,30-12.32,19.09-20.21,40-29.32,60.55-2.52,5.66-4.71,12.1-11.48,15.06-7.46-6.07-5.92-15.72-9.28-23-5.3,1.46-3.66,7.75-8.78,8.41v-19.3c2.64,2.26,4.65,4,6.66,5.74,1.75-1.94,2.92-3.26,4.35-4.87-4.76-5.48-3.37-11.91-3.18-18,.14-5.67-.66-10.71-5.71-16v29.87c-2.12-1.21-4-2.27-5.37-3,0-7.64-1.79-15.18.51-21.13a34.83,34.83,0,0,0,2-16.82c-.74-6.14,2.48-11,3.21-16.67,1-7.83-4-14.55-3-22.27-3.07-2.26-5.92-5-9-7.31-9.14-6.87-20-4.93-29.83-7.49-7.46-1.94-15.87.47-23.47-3-1.17-.58-2.6.08-3.47,1.32v2.74c1.09,2.38,4.6.26,5.55,3.25v5c2.42,4.31,8.16,3.91,10.75,8.19.77,7.05.07,14.36,2.45,21.86,2.19,6.83,1,14.62,2.74,22.12,1.9,8.22,1,17.29.29,25.88s4.57,16.19,3,24.93c-1.86,10.24,4.68,20,2.67,30.35a1.87,1.87,0,0,0,.22,1.24c4.39,9.5,2.3,20.14,7.35,32.83,3.47,5.55,13.27,6,21.64,10,6.84-3.47,13.53-6.91,20.18-10.31-.18-1.68-.07-3,1.21-3.84,2.12-.66,4.53.8,6.47-1,1.61-4.35,2.34-9.36,5-12.94,17.66-24.24,30.64-51.11,44.09-77.69,6.33-12.39,11.66-25.44,18.86-37.29,8.85-14.58,15.54-30.3,25-44.45,1.76-2.63.59-5.59,2.6-8.59,10.2-15.5,18.86-31.88,23-50.42C788.75,658,788.75,658,781.62,661.27ZM632.17,886.84c-.77,1.35-2.16,1.09-1.87.14,1.1-3.8-5.88-4.28-1.64-9.72.36,0,1.57-.08,3-.19C633.19,880.47,632.53,883.8,632.17,886.84ZM661.38,847c-1.94-2.12-1.87-3.62-.48-5.33C663.9,842.75,663.06,844.5,661.38,847Z"/><path class="cls-1" d="M894,832.88c1.75,3.76,5.3,6.69,4.31,12.57-11.84,13.34-26.61,22.81-45.44,26.29a142.28,142.28,0,0,0-22.3,5.55c-12.47,4.57-25,2-37.36,2.09-6,0-12.4-3.59-17-8.23-10.63-10.86-17.33-23.25-17.91-39.26-.44-11,4.42-20.29,6.14-30.49.51-3,11.44-15.28,14-17.66C789.29,773.83,802,766,810.9,754.27c-2.23-8-10.53-7.16-15.24-11.37s-5.3-10.93-9.58-15.5c0-4.82-.11-9.87,0-14.88.22-8.11,2.12-15.53,8.67-21.09,5.48-4.64,9.61-10.67,15.83-14.62,16.82-10.64,34.95-16.64,54.91-16.38,7.9.11,16.09-1.83,24.2,3.76,1.76,4.43,3.88,9.91,6,15.43,2,5.12,4,10.27,5.71,14.77-2.45,8.74-7.1,14.62-17.19,17.88-5.55-.95-13.82,2.74-21.13-2.52-6.29,4.57-14.4,1.79-21,5.48-6.26,3.47-13.42,5.34-19.53,9s-14.25,4.86-17.33,12.58c-.18,3,2.71,3.62,4,5.81,9.83,0,20.11,1.39,29.76-.44a129.31,129.31,0,0,1,23.61-2.27,8.94,8.94,0,0,1,2.42.73c1.61,2.56-.11,4.06-1.72,5.67-9.07,9.14-19.74,16.42-29.28,24.75-12.21,10.64-27.42,18.68-35.36,34.11-2.15,4.24-6.58,7.28-9.79,11-8.08,9.32-9.8,20.33-7.83,32.68a23.9,23.9,0,0,0,16.13,6.29c15.5.18,30.12-3.36,44.78-7.78A211,211,0,0,1,867,842c8-1.39,14.59-4.68,21.42-8.23C889.87,833,891.84,833.2,894,832.88Z"/><path class="cls-1" d="M837.66,182.13c-.51-6.21-6.1-11.88-9-18-4.39-9.25-12.61-15-19.74-21.64a12.12,12.12,0,0,0-6.8-3.15c-12.54-.51-24,1.39-34.81,8.85-6.69,4.68-12.24,10.27-17.36,15.1l-15.8,4.57c-4.38,5.59-7.34,12.21-10.45,18.75-6,12.69-10.2,26-14.33,39.27-3,9.72-5.52,19.63-8.3,29.43-4.61,16.38-8.88,32.72-8.45,50,.19,6.29,2.82,12.14,2.64,18-.19,6.47,1.75,12.32,3.62,17.84,6.54,19.09,18,34.44,37.5,42.16a16.2,16.2,0,0,1,4.5,2.88c2.56,0,5.3.08,8,0,3.18-.11,6.07-.22,8.66,2.56.77.81,4,0,6.25-.62,22.67-6,37.88-21.5,49.28-40.29,6.44-10.6,13.68-21.46,15-34.87.66-6.62,4.79-12.94,4.5-19.93-.33-7.16,3.51-13.41,3.1-20.8-.43-8.66-2.48-17.88,2.38-26.28a4.47,4.47,0,0,0,0-4c-5.59-7.13-.26-14.26.62-21,.48-3.51,1.68-7.43,2.27-11.26C842.52,200.23,838.47,191.38,837.66,182.13Zm-24.53,59.41c-1.75,14.92-3.14,30-7.75,44.64-4.35,13.75-9.54,27.13-16.67,39.63-3,5.23-6.07,10.56-10.49,14.91-2.42,2.38-4.24,5.63-6.25,8.19-6.18,7.86-13.38,15.54-25.78,15.5-2.19-3.54-5.59-5-6.87-8.84-5.12-15.21-12.47-29.83-15.79-45.41C720.93,298,723,284.79,723,271c5.2,0,11.34-1.82,14.7.44,5,3.33,9.54,1.32,14.11,2.45,7.72-21.27,12.47-43.36,23.29-63.24a38.63,38.63,0,0,0,2.71-5.71c5.08-15.39,9.46-18.71,25.33-18.93,4.9,2.59,7.28,7.34,10.35,13.85C813.5,212.48,814.81,227.17,813.13,241.54Z"/><path class="cls-1" d="M682.65,160.49c-5.11-2.63-9.61-5-12.9-6.65-19.38,0-37.88-2.05-55.64.62-16.67,2.49-33.42,6.07-49.72,11.88-15.91,5.7-31.63,11.66-47,18.57.55,3.37-2.45,4.5-4.2,6.77-9.73-1.61-18.79,4.6-28.85,2.74-2.77-.51-5.59,5.44-8.88.4-2.81,2.41-6.8,1.13-9.5,2.45-6.4,3.14-12.95,2.59-19.53,2.41-9.79-.22-19.08,4.61-29,2.82-6.07,5.77-12.14,2.56-18.32.07-1.13-.47-2.63-.07-4.09-.07-.66,1.75-1.25,3.36-1.87,5.12-4-.55-7.2,2.7-10.93,3-4.2.29-8.7,1.09-12.61-.62,3.21-8.08,11.22-2.53,17.65-6.91h-34v23.43c6.58,4.13,6.4,15.9,14.91,14.73,4.61,4.5,8.12,7.9,11.78,11.48-5.41,10.82-3.51,25.85-14.66,34.7-6.77.43-13.2-1.43-18.1,3.1-3.84-1.61-4.86-6.36-9.32-5.74-2.38,2.31-1.76,6.84-5.92,7.43-12.51-.11-24.43,2.41-36.86,11,1.06-10.35-.58-18.21,2.56-26.69,2.23-6,1.17-13.63.26-20.36-.95-7,3.58-12.54,3.18-19.49-.84-13.63-.26-27.38-.26-38.68-3.07-10.27-10.2-14.51-14.8-19.88-9.25-.22-17.07-5.38-25.34-2.42-12.13,24.61-12,51.4-15.21,77.07-6.32,12.83-12.24,25.48-18.75,37.87-10,19.16-18.54,39.08-30.23,57.33-3.7,5.77-6.47,12.5-12.76,16.34-5.45-1.94-10.86-3.84-16.64-5.89-1.42,5.71,1.28,7.46,5,8.63,4.67,1.46,5.88,4.94,5.37,9.4-10.53,10-16,23.65-25.45,34.69,3.44,6.95,3.33,15.1,11,19,8.92-4.71,16.52-11.44,20.07-18.75,5.74-11.85,12.47-23.18,18.86-34.91,16-7.64,33.34-12.62,47.13-23.47,8,6.54,2.81,16.56,7.89,23.39,0,13.71,7.86,25.12,10.93,38.24-.36,1.83-3.61,2.64-3.65,2.56,3.95,8,6.36,13.42,9.21,18.61,3.29,6,8.7,9.83,13.38,14.08,5.67-1.36,10-3.11,13.78-7.24,1.87-17.73-4.64-34.66-7.6-52.46,4.61-3.44,3.8-10.35,1.86-13.2-3.94-5.85-1-11.52-2.3-17-1.5-6.14,3.51-12.18,0-18.28,5.66-6.11.95-13.89,3.51-21.1,9.28-7,18.9-14.33,28.44-21.56,6.22,3.8,2.45,10,4.09,15.09,10.06,2.89,12.73,11.26,13.13,20.11.58,12.47-.88,24.86-2,37.29-1,11.92-5.05,23.65-3.37,35.83.11.84.11,2.08-.36,2.52-4.68,4.17-1.06,9.32-2.49,13.45,16.27,11.19,32.54,12.14,44.13,2.67-1.69-11.18,1.17-22.59,3.84-33.45,3.8-15.65,8.07-31.29,12.72-46.76,3-9.79,5.41-19.7,8.44-29.39,1.06-3.33,2.93-7.53,7.68-9.91,18.53-9.25,37.33-17.91,57-24.42,13.93-4.57,22.34-12.25,26.91-24.78-6.8.69-14-1.8-20.07,1.31-3.51,1.79-7.39,1.28-10.93,3.84-3,2.16-8.81.37-13.38.48-2.6,0-5.3,1.46-7.35,1.68-7.75.8-14.88,6-23.11,3.21-1.9-2.85-6-4.16-6.43-9.35,5.85-7.43,1-21.72,17.44-25.41,6.21,2,14.15-2.53,22.26-3.81,7.68-1.24,17.62-1.86,21.94-9.94,4.64-.33,9.36.73,11.51-1.17,3.29-2.92,7.53-1,10.9-4.24,3.51-3.47,7.56,3.66,12.24,2.45.66-.18,1.54.62,2.64,1.13A19.44,19.44,0,0,0,518.4,235c9.14,2.45,16.19-5.48,25.08-5.11l5.37,5.55c-1.46,15-9.8,26.58-12.8,40.55s-8.15,27.63-11.84,42.18l-17.88,9.11a19.69,19.69,0,0,1,11.19,9.1c-2.82,14.26-9.47,27.93-8.37,43.07-6.14,14.14-4.32,29.68-9,45.84,20.37-3.84,32.36-19.92,49.69-24.86,1-16.3,7.24-30.09,11.66-44.27,4.5-14.55,6-30.13,14-43.73h9.43c2.6,6.33,4,13.57,8.05,18.54,5.37,6.51,8.92,13.56,12.43,21,3.62,7.64,10.82,13.49,11.48,22.67,7.31,8.19,12.28,18.24,20.39,25.81,2.2,2,3.66,5.37,7.32,4.93,3.4-3.29,6.65-6.47,9.87-9.61-.19-6.22-1.43-12.25-2.2-18.21-1.53-11.81-5-23.61-3.36-35.83.4-3.07.69-6.61-.44-9.35-6.62-16.05-11.44-32.61-15.68-49.32,10.45-10.46,20.91-20.69,31.11-31.15,9.43-9.69,17.58-20.58,22-33.34,2.59-7.53,6.58-14.73,7.09-23.14C693.84,182.13,688.47,171.09,682.65,160.49ZM248.74,329.68c-4.71,6.26-11.26,10.06-18.42,15H219.38a2.92,2.92,0,0,1-.8-3.36c2-6,4-12,6.4-17.73,3.4-8.12,8.66-15.32,10.89-24.17.77-3.14,1.94-9,8.89-9.25C251,302.74,247.94,316.52,248.74,329.68Zm394.94-80.13c-14.95,15.1-31.62,28.62-51,38.46-3.58,1.83-6.65,1.83-10.09,2.23-7.42-2.63-8.15-10.24-10-15.91-1.68-5.26-3.07-10.41-5.27-15.68-2.77-6.54-5.15-14.15-3-21.6,4.31-13.64,17-17,28-20.51,24.13-7.72,30.71-9.55,63.62-8.45,2.48,3.18,7.6,2.74,9.57,7.17C661.19,228.34,653.11,240,643.68,249.55Z"/><rect class="cls-2" x="28.12" y="459.97" width="1023.76" height="168.06" transform="translate(-49.24 53.76) rotate(-5.45)"/></svg>