<?xml version="1.0" encoding="utf-8"?>
<!-- Generator: Adobe Illustrator 27.5.0, SVG Export Plug-In . SVG Version: 6.00 Build 0)  -->
<svg version="1.1" id="Layer_1" xmlns="http://www.w3.org/2000/svg" xmlns:xlink="http://www.w3.org/1999/xlink" x="0px" y="0px"
	 viewBox="0 0 1080 1080" style="enable-background:new 0 0 1080 1080;" xml:space="preserve">
<style type="text/css">
	.st0{fill:#FFFFFF;}
	.st1{fill:#32B24B;}
</style>
<g>
	<path class="st0" d="M588.6,779.6c0.4-0.3,0-1.8,0-2.8c-12.3-5.8-20.5,7.3-32.7,7.2c-0.3-7,0-12.3,2.3-17.9
		c1.8-4.3-1.4-10.3,1.3-14.5c3.2-4.9,1.1-9.7,1.6-14.4c0.5-5,0.1-10,0.1-15.1v-46.2c-3.6-7-10.9-9.8-14.7-15.1
		c-9.1-0.1-16.9-5.6-25.6-2.5c-0.4,0.7-0.6,1.4-0.8,2.1c-0.1,1.3,0.4,3-0.1,4.1c-8.4,17.3-12.1,36.6-10.8,55.8
		c0.6,8.7-2.2,16.8-5.9,23.6c-14.7,26.8-26,55.3-42.4,81.2c-4.8,7.7-9.8,15.3-14.2,19.7c-7.3,0.7-11.4-2.9-16.6-3.4
		c-2.1-0.2-3.5,0.5-3.3,3.7c4.4,2.8,9.2,6,14.7,9.6c-11.1,12.7-20.8,26.7-28.7,41.7c4.1,5.3,3.2,13.4,10.6,16.2
		c2.1-0.3,5.2,1.1,6.1-1.5c1.9-5.4,7.4-6.7,10.6-10.5c1.4-1.6,2.5-3.5,3.4-5.5c4.1-8.8,9.1-17.2,13.4-26c4-8,10.4-14.2,18.1-16.6
		c12.5-3.8,23.3-10.3,35-17.3c1,1.8,2,3.8,4,7.5c-1.6,5.6,5.2,13.2,3.3,21.8c5,4.1,1.7,10.8,5.3,15.7c4.3,6.1,6.3,13.5,5.7,20.9
		c-0.1,2.2,0.7,4.1,1.3,6.2c3,10,9.2,17.6,16.5,24.3c7.4,0.7,11.8-4.9,17.8-6.9c-2.5-16.1-8.4-31.7-7.8-47.6
		c0.7-16.2-7-32.3-1.4-49.2c-0.1-0.1-1-1.1-2.4-2.6c6.9-6.8-0.5-17.4,4.4-22C569.2,794.3,578.9,787,588.6,779.6z M509.1,815
		c-9.7,3.6-15.8,19.2-30.2,9.3c7.8-17.6,15.4-34.7,23.1-52c5.6,1.3,3.7,6.2,7,7.3L509.1,815z"/>
	<path class="st0" d="M424.6,738.3c0.6-0.8,1.6-2.1,2.5-3.2c-3.7-10.1-8.6-19-13.7-27.8c-3-5.3-9.5-7.8-10.9-13.2
		c-1.5-6.2-7.2-8-10.5-8.4c-8.2-0.9-16-6.1-24.8-2.4c-2.5,5.7,0.7,10.6,3.6,16h8.9c1.2,1.8,2.9,3.1,3.2,4.6
		c2.3,10,3.6,20.1,2.9,30.4c-0.3,4-0.4,8,2.6,10.7c0.4,2.7-2.6,3.2-2.6,4.8c-0.2,9.6-2.5,20,0.5,28.6c3.5,10.2,0.7,18.4-1.5,27.4
		c-4-1.9,0.5-6.5-4.6-8.5c0.6,8.2-3.6,15.3-4.4,22.7c-1.1,11-6.4,20.4-9.8,30.3c-4.3,12.7-8.6,25.7-16.1,37.2
		c-4.1,6.3-6.4,14.4-16.3,17.8c1.8-6.4-5-10.8-2.4-15.5c2.2-3.9,3-8.4,2.2-12.8c-1.6-10.5,4.4-20.1,2.9-30.4
		c6.7-15,6.9-31.6,12.4-46.9c2.6-7.2,5.6-14.8,3.8-23.1c-3.6-3.1-3.5-8.5-6.2-11.5c-11.1-3.2-21.7-6.2-31.6,0.6
		c-0.8,5.4-5.3,9-5.9,14.4c-2,17-8.4,32.9-13.8,49.1c-2.4,7.2-7.3,13.5-8.4,22.7c-2.1,1.8-5.3,4.3-7.8,6.2c0,8.6-4.6,14-8,19.9
		s-4.5,13.2-11.7,15.7c-4.8-2.7-5.4-7.3-8.1-11.5c2.3-29.2-2.7-59.1,2.9-88.8c1.5-7.9-0.1-16.4,0.3-24.6c0.4-7.1-1.6-13-6.9-17.8
		c-2.9,5-8.4,1.1-12.4,3.7v5.3c0,8.2-0.7,16.5,0.2,24.6c0.9,8.7-3.2,16.4-3.4,24.9c-0.4,6-1.5,11.9-3.3,17.7
		c-2.1,7-3.5,14.2-4.2,21.5c-0.6,7.9-2.6,15.6-3.6,23.4c-1.3,10.2-5.1,20.1-4.9,30.7c0,1.9-0.1,3.5-1.7,4.8
		c-2.1,1.8-1.7,5.4-0.9,6.2c5.3,5.1,1.1,11.4,3.1,17.5c4.1-0.3,0.8,4.6,5.8,7.2c2.3,2.2,8.4,3.3,12.7,1.2c6.2-2.9,12.2-1.6,18.2-2.5
		c0.3-0.4,0.6-0.7,1-1c22.8-13.2,21.3-6.9,37.1-31.7c6.2-2.8,5.8-12.1,13.4-14.2c8.3,8.7,7.3,19.4,7.3,29.2c1.2,1.2,1.8,1.8,2.5,2.5
		c11.4,12,21.5,13.5,37.4,9.7c0.8-3.7,8-0.8,6.7-6.6c7.3-4.9,9.8-13.3,14.3-20.1c6.8-10.3,13.9-20.8,18.2-32.2
		c4.5-12.6,10.2-24.7,16.9-36.2v-8.4l5.6-4.4c-1.3-8.3,5.3-14.8,2.5-22c3.2-3.2,5.8-5.8,8.2-8.2
		C428.2,775.4,428.4,756.5,424.6,738.3z M389.9,779.1c-1.9-4-1.9-8.5,0-12.5C391.8,770.5,391.8,775.1,389.9,779.1z M393.5,742.2
		c-3.1-4.1-1.9-8.5,0-12.8V742.2z M422.5,781.2c2.9,1.1,1.2,3.5,2.1,6.8C420.9,784.9,420.7,783.2,422.5,781.2L422.5,781.2z"/>
	<path class="st0" d="M781.6,661.3c-4.8,8.5-9.4,16.2-13.5,24.1c-3.5,6.7-5.6,14.3-9.9,20.5c-8.5,12.3-14.5,26-22.2,38.8
		c-5.9,9.8-10.6,20.5-16.7,30c-12.3,19.1-20.2,40-29.3,60.5c-2.5,5.7-4.7,12.1-11.5,15.1c-7.5-6.1-5.9-15.7-9.3-23
		c-5.3,1.5-3.7,7.8-8.8,8.4v-19.3c2.6,2.3,4.7,4,6.7,5.7c1.8-1.9,2.9-3.3,4.3-4.9c-4.8-5.5-3.4-11.9-3.2-18c0.1-5.7-0.7-10.7-5.7-16
		V813c-2.1-1.2-4-2.3-5.4-3c0-7.6-1.8-15.2,0.5-21.1c2-5.4,2.7-11.1,2-16.8c-0.7-6.1,2.5-11,3.2-16.7c1-7.8-4-14.5-3-22.3
		c-3.1-2.3-5.9-5-9-7.3c-9.1-6.9-20-4.9-29.8-7.5c-7.5-1.9-15.9,0.5-23.5-3c-1.2-0.6-2.6,0.1-3.5,1.3v2.7c1.1,2.4,4.6,0.3,5.5,3.2v5
		c2.4,4.3,8.2,3.9,10.8,8.2c0.8,7,0.1,14.4,2.5,21.9c2.2,6.8,1,14.6,2.7,22.1c1.9,8.2,1,17.3,0.3,25.9s4.6,16.2,3,24.9
		c-1.9,10.2,4.7,20,2.7,30.3c-0.1,0.4,0,0.9,0.2,1.2c4.4,9.5,2.3,20.1,7.3,32.8c3.5,5.5,13.3,6,21.6,10c6.8-3.5,13.5-6.9,20.2-10.3
		c-0.2-1.7-0.1-3,1.2-3.8c2.1-0.7,4.5,0.8,6.5-1c1.6-4.3,2.3-9.4,5-12.9c17.7-24.2,30.6-51.1,44.1-77.7
		c6.3-12.4,11.7-25.4,18.9-37.3c8.8-14.6,15.5-30.3,25-44.5c1.8-2.6,0.6-5.6,2.6-8.6c10.2-15.5,18.9-31.9,23-50.4
		C788.8,658,788.8,658,781.6,661.3z M632.2,886.8c-0.8,1.3-2.2,1.1-1.9,0.1c1.1-3.8-5.9-4.3-1.6-9.7c0.4,0,1.6-0.1,3-0.2
		C633.2,880.5,632.5,883.8,632.2,886.8z M661.4,847c-1.9-2.1-1.9-3.6-0.5-5.3C663.9,842.8,663.1,844.5,661.4,847z"/>
	<path class="st0" d="M894,832.9c1.8,3.8,5.3,6.7,4.3,12.6c-11.8,13.3-26.6,22.8-45.4,26.3c-7.6,1.2-15,3.1-22.3,5.5
		c-12.5,4.6-25,2-37.4,2.1c-6,0-12.4-3.6-17-8.2c-10.6-10.9-17.3-23.2-17.9-39.3c-0.4-11,4.4-20.3,6.1-30.5c0.5-3,11.4-15.3,14-17.7
		c10.8-9.9,23.6-17.7,32.5-29.5c-2.2-8-10.5-7.2-15.2-11.4s-5.3-10.9-9.6-15.5c0-4.8-0.1-9.9,0-14.9c0.2-8.1,2.1-15.5,8.7-21.1
		c5.5-4.6,9.6-10.7,15.8-14.6c16.8-10.6,35-16.6,54.9-16.4c7.9,0.1,16.1-1.8,24.2,3.8c1.8,4.4,3.9,9.9,6,15.4c2,5.1,4,10.3,5.7,14.8
		c-2.5,8.7-7.1,14.6-17.2,17.9c-5.5-1-13.8,2.7-21.1-2.5c-6.3,4.6-14.4,1.8-21,5.5c-6.3,3.5-13.4,5.3-19.5,9s-14.2,4.9-17.3,12.6
		c-0.2,3,2.7,3.6,4,5.8c9.8,0,20.1,1.4,29.8-0.4c7.8-1.5,15.7-2.2,23.6-2.3c0.8,0.1,1.7,0.4,2.4,0.7c1.6,2.6-0.1,4.1-1.7,5.7
		c-9.1,9.1-19.7,16.4-29.3,24.8c-12.2,10.6-27.4,18.7-35.4,34.1c-2.2,4.2-6.6,7.3-9.8,11c-8.1,9.3-9.8,20.3-7.8,32.7
		c4.4,4,10.2,6.3,16.1,6.3c15.5,0.2,30.1-3.4,44.8-7.8c8.2-2.3,16.6-4.1,25.1-5.4c8-1.4,14.6-4.7,21.4-8.2
		C889.9,833,891.8,833.2,894,832.9z"/>
	<path class="st0" d="M837.7,182.1c-0.5-6.2-6.1-11.9-9-18c-4.4-9.2-12.6-15-19.7-21.6c-1.9-1.7-4.3-2.8-6.8-3.1
		c-12.5-0.5-24,1.4-34.8,8.9c-6.7,4.7-12.2,10.3-17.4,15.1l-15.8,4.6c-4.4,5.6-7.3,12.2-10.5,18.8c-6,12.7-10.2,26-14.3,39.3
		c-3,9.7-5.5,19.6-8.3,29.4c-4.6,16.4-8.9,32.7-8.5,50c0.2,6.3,2.8,12.1,2.6,18c-0.2,6.5,1.8,12.3,3.6,17.8
		c6.5,19.1,18,34.4,37.5,42.2c1.6,0.7,3.2,1.7,4.5,2.9c2.6,0,5.3,0.1,8,0c3.2-0.1,6.1-0.2,8.7,2.6c0.8,0.8,4,0,6.2-0.6
		c22.7-6,37.9-21.5,49.3-40.3c6.4-10.6,13.7-21.5,15-34.9c0.7-6.6,4.8-12.9,4.5-19.9c-0.3-7.2,3.5-13.4,3.1-20.8
		c-0.4-8.7-2.5-17.9,2.4-26.3c0.6-1.3,0.6-2.7,0-4c-5.6-7.1-0.3-14.3,0.6-21c0.5-3.5,1.7-7.4,2.3-11.3
		C842.5,200.2,838.5,191.4,837.7,182.1z M813.1,241.5c-1.8,14.9-3.1,30-7.8,44.6c-4.3,13.8-9.5,27.1-16.7,39.6
		c-3,5.2-6.1,10.6-10.5,14.9c-2.4,2.4-4.2,5.6-6.2,8.2c-6.2,7.9-13.4,15.5-25.8,15.5c-2.2-3.5-5.6-5-6.9-8.8
		c-5.1-15.2-12.5-29.8-15.8-45.4c-2.6-12.2-0.5-25.4-0.5-39.2c5.2,0,11.3-1.8,14.7,0.4c5,3.3,9.5,1.3,14.1,2.5
		c7.7-21.3,12.5-43.4,23.3-63.2c1.1-1.8,2-3.7,2.7-5.7c5.1-15.4,9.5-18.7,25.3-18.9c4.9,2.6,7.3,7.3,10.3,13.9
		C813.5,212.5,814.8,227.2,813.1,241.5L813.1,241.5z"/>
	<path class="st0" d="M682.7,160.5c-5.1-2.6-9.6-5-12.9-6.6c-19.4,0-37.9-2.1-55.6,0.6c-16.7,2.5-33.4,6.1-49.7,11.9
		c-15.9,5.7-31.6,11.7-47,18.6c0.5,3.4-2.5,4.5-4.2,6.8c-9.7-1.6-18.8,4.6-28.9,2.7c-2.8-0.5-5.6,5.4-8.9,0.4
		c-2.8,2.4-6.8,1.1-9.5,2.4c-6.4,3.1-13,2.6-19.5,2.4c-9.8-0.2-19.1,4.6-29,2.8c-6.1,5.8-12.1,2.6-18.3,0.1
		c-1.1-0.5-2.6-0.1-4.1-0.1c-0.7,1.8-1.2,3.4-1.9,5.1c-4-0.6-7.2,2.7-10.9,3c-4.2,0.3-8.7,1.1-12.6-0.6c3.2-8.1,11.2-2.5,17.6-6.9
		h-34v23.4c6.6,4.1,6.4,15.9,14.9,14.7c4.6,4.5,8.1,7.9,11.8,11.5c-5.4,10.8-3.5,25.9-14.7,34.7c-6.8,0.4-13.2-1.4-18.1,3.1
		c-3.8-1.6-4.9-6.4-9.3-5.7c-2.4,2.3-1.8,6.8-5.9,7.4c-12.5-0.1-24.4,2.4-36.9,11c1.1-10.4-0.6-18.2,2.6-26.7
		c2.2-6,1.2-13.6,0.3-20.4c-1-7,3.6-12.5,3.2-19.5c-0.8-13.6-0.3-27.4-0.3-38.7c-3.1-10.3-10.2-14.5-14.8-19.9
		c-9.2-0.2-17.1-5.4-25.3-2.4c-12.1,24.6-12,51.4-15.2,77.1c-6.3,12.8-12.2,25.5-18.8,37.9c-10,19.2-18.5,39.1-30.2,57.3
		c-3.7,5.8-6.5,12.5-12.8,16.3c-5.4-1.9-10.9-3.8-16.6-5.9c-1.4,5.7,1.3,7.5,5,8.6c4.7,1.5,5.9,4.9,5.4,9.4
		c-10.5,10-16,23.6-25.4,34.7c3.4,7,3.3,15.1,11,19c8.9-4.7,16.5-11.4,20.1-18.8c5.7-11.9,12.5-23.2,18.9-34.9
		c16-7.6,33.3-12.6,47.1-23.5c8,6.5,2.8,16.6,7.9,23.4c0,13.7,7.9,25.1,10.9,38.2c-0.4,1.8-3.6,2.6-3.6,2.6c4,8,6.4,13.4,9.2,18.6
		c3.3,6,8.7,9.8,13.4,14.1c5.7-1.4,10-3.1,13.8-7.2c1.9-17.7-4.6-34.7-7.6-52.5c4.6-3.4,3.8-10.4,1.9-13.2c-3.9-5.9-1-11.5-2.3-17
		c-1.5-6.1,3.5-12.2,0-18.3c5.7-6.1,1-13.9,3.5-21.1c9.3-7,18.9-14.3,28.4-21.6c6.2,3.8,2.5,10,4.1,15.1
		c10.1,2.9,12.7,11.3,13.1,20.1c0.6,12.5-0.9,24.9-2,37.3c-1,11.9-5,23.6-3.4,35.8c0.1,0.8,0.1,2.1-0.4,2.5
		c-4.7,4.2-1.1,9.3-2.5,13.5c16.3,11.2,32.5,12.1,44.1,2.7c-1.7-11.2,1.2-22.6,3.8-33.5c3.8-15.6,8.1-31.3,12.7-46.8
		c3-9.8,5.4-19.7,8.4-29.4c1.1-3.3,2.9-7.5,7.7-9.9c18.5-9.2,37.3-17.9,57-24.4c13.9-4.6,22.3-12.2,26.9-24.8
		c-6.8,0.7-14-1.8-20.1,1.3c-3.5,1.8-7.4,1.3-10.9,3.8c-3,2.2-8.8,0.4-13.4,0.5c-2.6,0-5.3,1.5-7.4,1.7c-7.8,0.8-14.9,6-23.1,3.2
		c-1.9-2.9-6-4.2-6.4-9.4c5.9-7.4,1-21.7,17.4-25.4c6.2,2,14.1-2.5,22.3-3.8c7.7-1.2,17.6-1.9,21.9-9.9c4.6-0.3,9.4,0.7,11.5-1.2
		c3.3-2.9,7.5-1,10.9-4.2c3.5-3.5,7.6,3.7,12.2,2.4c0.7-0.2,1.5,0.6,2.6,1.1c-1,6.6,1.5,13.2,6.5,17.5c9.1,2.4,16.2-5.5,25.1-5.1
		l5.4,5.6c-1.5,15-9.8,26.6-12.8,40.5s-8.2,27.6-11.8,42.2l-17.9,9.1c4.7,1.5,8.7,4.8,11.2,9.1c-2.8,14.3-9.5,27.9-8.4,43.1
		c-6.1,14.1-4.3,29.7-9,45.8c20.4-3.8,32.4-19.9,49.7-24.9c1-16.3,7.2-30.1,11.7-44.3c4.5-14.5,6-30.1,14-43.7h9.4
		c2.6,6.3,4,13.6,8,18.5c5.4,6.5,8.9,13.6,12.4,21c3.6,7.6,10.8,13.5,11.5,22.7c7.3,8.2,12.3,18.2,20.4,25.8c2.2,2,3.7,5.4,7.3,4.9
		c3.4-3.3,6.7-6.5,9.9-9.6c-0.2-6.2-1.4-12.2-2.2-18.2c-1.5-11.8-5-23.6-3.4-35.8c0.4-3.1,0.7-6.6-0.4-9.4
		c-6.6-16-11.4-32.6-15.7-49.3c10.5-10.5,20.9-20.7,31.1-31.1c9.4-9.7,17.6-20.6,22-33.3c2.6-7.5,6.6-14.7,7.1-23.1
		C693.8,182.1,688.5,171.1,682.7,160.5z M248.7,329.7c-4.7,6.3-11.3,10.1-18.4,15h-10.9c-1-0.8-1.3-2.2-0.8-3.4c2-6,4-12,6.4-17.7
		c3.4-8.1,8.7-15.3,10.9-24.2c0.8-3.1,1.9-9,8.9-9.2C251,302.7,247.9,316.5,248.7,329.7z M643.7,249.5c-15,15.1-31.6,28.6-51,38.5
		c-3.6,1.8-6.7,1.8-10.1,2.2c-7.4-2.6-8.2-10.2-10-15.9c-1.7-5.3-3.1-10.4-5.3-15.7c-2.8-6.5-5.2-14.1-3-21.6
		c4.3-13.6,17-17,28-20.5c24.1-7.7,30.7-9.6,63.6-8.4c2.5,3.2,7.6,2.7,9.6,7.2C661.2,228.3,653.1,240,643.7,249.5L643.7,249.5z"/>
</g>
<rect x="28.1" y="460" transform="matrix(0.9955 -9.497707e-02 9.497707e-02 0.9955 -49.2277 53.7456)" class="st1" width="1023.8" height="168.1"/>
</svg>
